<?xml version="1.0" encoding="UTF-8" standalone="no"?>
<!DOCTYPE svg  PUBLIC '-//W3C//DTD SVG 1.1//EN'  'http://www.w3.org/Graphics/SVG/1.1/DTD/svg11.dtd'>
<svg id="Layer_1" xmlns="http://www.w3.org/2000/svg" xml:space="preserve" height="127px" viewBox="40.5 21.5 242 127" width="242px" version="1.1" y="0px" x="0px" xmlns:xlink="http://www.w3.org/1999/xlink" enable-background="new 40.5 21.5 242 127">
<rect opacity="0" height="127" width="242" y="21.5" x="40.5" fill="#fff"/>
	<defs>
		<path id="SVGID_1_" d="m207.33 107.02c0 13.799-11.186 24.985-24.985 24.985h-43.03c-13.799 0-24.985-11.186-24.985-24.985v-43.03c0.01-13.804 11.2-24.99 25-24.99h43.03c13.799 0 24.985 11.186 24.985 24.985v43.035z"/>
	</defs>
	<use overflow="visible" xlink:href="#SVGID_1_" fill="#E72514"/>
	<clipPath id="SVGID_2_">
		<use overflow="visible" xlink:href="#SVGID_1_"/>
	</clipPath>
<path d="m188.07 110.72c0 3.444-2.792 6.237-6.237 6.237h-46.959c-3.444 0-6.237-2.792-6.237-6.237 0-3.444 2.792-6.237 6.237-6.237h46.959c3.45 0 6.24 2.8 6.24 6.24z" fill="#E72514"/>
<g fill="#fff">
	<path d="m136.73 107.14v8.544h-1.084v-1.469c-0.46 0.561-0.978 0.981-1.551 1.265-0.573 0.282-1.2 0.424-1.88 0.424-1.209 0-2.242-0.438-3.098-1.315s-1.284-1.943-1.284-3.199c0-1.23 0.432-2.283 1.295-3.157s1.903-1.312 3.118-1.312c0.702 0 1.336 0.149 1.904 0.448 0.568 0.298 1.066 0.745 1.496 1.343v-1.571h1.07zm-4.4 0.84c-0.612 0-1.177 0.15-1.694 0.451s-0.93 0.723-1.235 1.267-0.459 1.119-0.459 1.726c0 0.602 0.154 1.177 0.463 1.726s0.723 0.977 1.243 1.282 1.079 0.459 1.675 0.459c0.601 0 1.171-0.151 1.71-0.455s0.953-0.714 1.243-1.231c0.29-0.518 0.435-1.101 0.435-1.749 0-0.988-0.325-1.814-0.977-2.479-0.63-0.66-1.43-1-2.39-1z"/>
	<path d="m140.48 103.85h1.099v6.746l3.961-3.448h1.615l-4.696 4.076 4.971 4.468h-1.547l-4.303-3.847v3.847h-1.099v-11.85z"/>
	<path d="m149.71 107.14h1.1v3.989c0 0.974 0.052 1.645 0.157 2.011 0.157 0.523 0.458 0.937 0.9 1.24s0.971 0.456 1.584 0.456c0.614 0 1.134-0.148 1.562-0.444 0.427-0.296 0.722-0.685 0.885-1.166 0.11-0.33 0.165-1.028 0.165-2.097v-3.989h1.123v4.193c0 1.178-0.138 2.065-0.413 2.662s-0.688 1.064-1.241 1.402c-0.552 0.337-1.245 0.506-2.077 0.506-0.833 0-1.527-0.169-2.085-0.506-0.558-0.338-0.974-0.81-1.249-1.414s-0.413-1.514-0.413-2.729v-4.11z"/>
	<path d="m160.75 103.85h1.098v11.842h-1.098v-11.84z"/>
	<path d="m173.93 107.14v8.544h-1.084v-1.469c-0.461 0.561-0.978 0.981-1.551 1.265-0.573 0.282-1.2 0.424-1.881 0.424-1.209 0-2.241-0.438-3.098-1.315-0.855-0.877-1.284-1.943-1.284-3.199 0-1.23 0.433-2.283 1.296-3.157 0.864-0.874 1.903-1.312 3.117-1.312 0.702 0 1.337 0.149 1.904 0.448 0.568 0.298 1.067 0.745 1.496 1.343v-1.571h1.07zm-4.39 0.84c-0.612 0-1.177 0.15-1.694 0.451s-0.93 0.723-1.235 1.267-0.459 1.119-0.459 1.726c0 0.602 0.154 1.177 0.463 1.726s0.723 0.977 1.243 1.282 1.078 0.459 1.675 0.459c0.602 0 1.171-0.151 1.71-0.455 0.538-0.304 0.953-0.714 1.243-1.231s0.436-1.101 0.436-1.749c0-0.988-0.326-1.814-0.977-2.479-0.66-0.66-1.46-1-2.41-1z"/>
	<path d="m177.68 103.85h1.1v6.746l3.961-3.448h1.614l-4.695 4.076 4.971 4.468h-1.548l-4.303-3.847v3.847h-1.1v-11.85z"/>
	<path d="m186.91 107.14h1.099v3.989c0 0.974 0.053 1.645 0.157 2.011 0.158 0.523 0.458 0.937 0.901 1.24 0.442 0.304 0.971 0.456 1.584 0.456s1.134-0.148 1.562-0.444c0.427-0.296 0.722-0.685 0.885-1.166 0.109-0.33 0.165-1.028 0.165-2.097v-3.989h1.123v4.193c0 1.178-0.138 2.065-0.412 2.662-0.275 0.597-0.688 1.064-1.241 1.402-0.553 0.337-1.244 0.506-2.077 0.506-0.832 0-1.527-0.169-2.085-0.506-0.558-0.338-0.974-0.81-1.248-1.414-0.275-0.604-0.412-1.514-0.412-2.729v-4.11z"/>
</g>
<path d="m171.49 81.433v-0.579c0-0.197-0.032-0.387-0.065-0.576-0.871-8.286-8.662-14.772-18.153-14.772-10.074 0-18.24 7.305-18.24 16.316s8.166 16.316 18.24 16.316c3.614 0 6.973-0.952 9.807-2.574 0.077 2.012 1.921 3.625 4.198 3.625 2.327 0 4.213-1.68 4.213-3.752v-13.226c0.003-0.131 0.022-0.258 0.022-0.389 0.01-0.131-0.01-0.258-0.02-0.389zm-18.33 9.556c-5.318 0-9.629-4.083-9.629-9.119s4.311-9.119 9.629-9.119 9.629 4.083 9.629 9.119-4.31 9.119-9.63 9.119z" fill="#fff"/>
<path d="m183.03 94.58c0 2.279-1.848 4.127-4.127 4.127s-4.127-1.848-4.127-4.127v-34.669c0-2.279 1.848-4.127 4.127-4.127s4.127 1.848 4.127 4.127v34.669z" fill="#fff"/>
</svg>
