<?xml version="1.0" encoding="UTF-8" standalone="no"?>
<!-- Created with Inkscape (http://www.inkscape.org/) -->

<svg
   xmlns:dc="http://purl.org/dc/elements/1.1/"
   xmlns:cc="http://creativecommons.org/ns#"
   xmlns:rdf="http://www.w3.org/1999/02/22-rdf-syntax-ns#"
   xmlns:svg="http://www.w3.org/2000/svg"
   xmlns="http://www.w3.org/2000/svg"
   xmlns:sodipodi="http://sodipodi.sourceforge.net/DTD/sodipodi-0.dtd"
   xmlns:inkscape="http://www.inkscape.org/namespaces/inkscape"
   width="1000mm"
   height="320.11786mm"
   viewBox="0 0 1000 320.11786"
   version="1.1"
   id="svg7857"
   inkscape:version="0.92.3 (2405546, 2018-03-11)"
   sodipodi:docname="Alfamart.svg">
  <defs
     id="defs7851" />
  <sodipodi:namedview
     id="base"
     pagecolor="#ffffff"
     bordercolor="#666666"
     borderopacity="1.0"
     inkscape:pageopacity="0.0"
     inkscape:pageshadow="2"
     inkscape:zoom="0.35"
     inkscape:cx="-647.86733"
     inkscape:cy="78.056589"
     inkscape:document-units="mm"
     inkscape:current-layer="layer1"
     showgrid="false"
     fit-margin-top="0"
     fit-margin-left="0"
     fit-margin-right="0"
     fit-margin-bottom="0"
     inkscape:window-width="1280"
     inkscape:window-height="738"
     inkscape:window-x="-8"
     inkscape:window-y="-8"
     inkscape:window-maximized="1" />
  <metadata
     id="metadata7854">
    <rdf:RDF>
      <cc:Work
         rdf:about="">
        <dc:format>image/svg+xml</dc:format>
        <dc:type
           rdf:resource="http://purl.org/dc/dcmitype/StillImage" />
        <dc:title></dc:title>
      </cc:Work>
    </rdf:RDF>
  </metadata>
  <g
     inkscape:label="Layer 1"
     inkscape:groupmode="layer"
     id="layer1"
     transform="translate(-277.24823,-30.796535)">
    <g
       id="g7911">
      <path
         inkscape:connector-curvature="0"
         id="path6131"
         style="fill:#1756c2;fill-opacity:1;fill-rule:nonzero;stroke:none;stroke-width:32.19838715"
         d="m 466.33623,30.817778 c -14.03839,0 -22.21628,10.824743 -22.21628,26.33169 v 10.019733 98.318059 10.30358 c 0,15.16195 8.17789,26.14824 22.21628,26.14824 13.77189,0 22.31394,-10.98629 22.31394,-26.14824 V 165.48726 67.169201 57.149468 c 0,-15.506947 -8.54297,-26.33169 -22.31394,-26.33169" />
      <path
         inkscape:connector-curvature="0"
         id="path6133"
         style="fill:#1756c2;fill-opacity:1;fill-rule:nonzero;stroke:none;stroke-width:32.19838715"
         d="m 570.73933,77.801362 h -10.46696 v -6.507624 c 0,-7.301682 4.25323,-10.377515 15.50603,-9.099721 11.97476,1.113507 14.66634,-6.507624 14.66634,-12.596314 0,-4.709584 -1.37819,-7.100885 -5.01078,-11.317606 -7.75803,-7.694147 -27.39134,-7.46597 -27.39134,-7.46597 0,0 -17.79603,-0.821439 -29.86388,8.762018 -12.01948,9.327899 -10.96987,26.312523 -10.96987,26.312523 v 11.909956 h -1.92581 c -7.98622,0 -16.46712,4.97427 -16.46712,15.178371 0,10.278025 9.62088,14.988525 17.3424,14.988525 h 1.04962 v 70.80715 c 0,12.17738 7.46597,23.16367 22.18799,23.16367 15.02412,0 20.87459,-10.64129 20.87459,-22.47731 v -71.49351 h 10.46696 c 5.78659,0 17.27852,-2.82027 17.27852,-14.392526 0,-12.014004 -9.06321,-15.77437 -17.27852,-15.77437" />
      <path
         inkscape:connector-curvature="0"
         id="path6135"
         style="fill:#1756c2;fill-opacity:1;fill-rule:nonzero;stroke:none;stroke-width:32.19838715"
         d="m 696.32004,73.879446 c -7.20128,0 -12.96048,3.240121 -16.73089,8.150502 -6.92747,-4.809983 -16.05366,-8.150502 -26.69495,-8.150502 -45.34527,0 -65.43402,34.088814 -65.43402,67.002054 0,35.23792 24.40678,62.49966 65.43402,62.49966 9.72036,0 19.08386,-3.24012 26.64019,-8.21439 3.69647,5.03816 9.49218,8.21439 16.78565,8.21439 14.10229,0 22.14235,-10.86946 22.14235,-26.21212 v -76.9862 c 0,-15.078884 -8.04098,-26.303394 -22.14235,-26.303394 z m -64.81885,65.301674 v 0 c 0,-28.03845 13.60668,-33.00999 22.742,-33.00999 0.36508,0 0.82144,0 1.14088,0 10.50347,0.82144 18.77537,7.82193 18.77537,34.2239 0,25.97756 -8.96282,31.18092 -18.25695,31.69934 -0.54762,0 -0.82144,0 -1.40557,0 -10.43228,0 -22.99939,-4.97427 -22.99939,-32.91325" />
      <path
         inkscape:connector-curvature="0"
         id="path6137"
         style="fill:#1756c2;fill-opacity:1;fill-rule:nonzero;stroke:none;stroke-width:32.19838715"
         d="m 426.93544,168.2336 c -2.30915,-6.93659 -39.77773,-113.760199 -41.63875,-118.799272 -2.06272,-5.065541 -3.96116,-8.734637 -8.4882,-11.899916 -7.48423,-5.677057 -23.51051,-5.339354 -23.51051,-5.339354 0,0 -15.80996,-0.365084 -23.43109,5.339354 -4.45403,3.167105 -6.35247,6.8362 -8.31479,11.899916 -1.89844,5.038161 -39.36519,111.863592 -41.94816,118.799272 -2.09924,6.78144 -3.91553,15.08802 0,21.85941 4.29886,6.34334 11.38879,11.84607 20.5524,11.84607 9.29231,0 17.53499,-4.03418 21.13198,-15.34905 3.50481,-11.57499 5.33936,-17.23288 5.33936,-17.23288 h 26.6703 26.81452 c 0,0 1.74327,5.6588 5.27546,17.23288 3.53219,11.31761 11.97476,15.34905 21.01333,15.34905 9.5077,0 16.7747,-5.50364 20.53598,-11.84607 4.07069,-6.77231 2.4917,-15.07797 0,-21.85941 z m -90.23327,-35.66962 v 0 l 16.59581,-54.176658 16.64601,54.176658 z" />
      <path
         inkscape:connector-curvature="0"
         id="path6139"
         style="fill:#efcf00;fill-opacity:1;fill-rule:nonzero;stroke:none;stroke-width:32.19838715"
         d="M 1218.9644,330.58741 H 277.24823 v 20.32697 h 941.71617 c 28.8973,0 53.1015,-21.24151 57.519,-48.75789 -12.9505,17.3132 -34.024,28.43092 -57.519,28.43092" />
      <path
         inkscape:connector-curvature="0"
         id="path6141"
         style="fill:#d60f27;fill-opacity:1;fill-rule:nonzero;stroke:none;stroke-width:32.19838715"
         d="M 1277.2044,258.34731 V 242.05543 H 335.6626 c -32.14383,0 -58.41437,26.29244 -58.41437,58.46548 v 16.29279 h 941.71617 c 32.2013,0 58.24,-26.3326 58.24,-58.46639" />
      <path
         inkscape:connector-curvature="0"
         id="path6143"
         style="fill:#d60f27;fill-opacity:1;fill-rule:nonzero;stroke:none;stroke-width:32.19838715"
         d="m 910.89,72.562405 c -23.82356,0 -46.98724,31.899225 -55.20072,44.240895 0.36509,-2.81115 0.9766,-7.10089 2.29091,-12.00397 1.73415,-8.123121 3.24012,-19.630571 -2.29091,-26.412008 -3.24012,-3.924654 -8.01359,-5.823091 -14.42173,-5.823091 -22.05929,0 -43.85481,28.141589 -53.17267,41.912569 1.10438,-4.02506 2.41868,-9.06322 3.30401,-11.97385 1.44208,-6.772309 4.28974,-17.332366 -0.27381,-23.485858 -2.71988,-3.796875 -7.20129,-5.503643 -13.55284,-5.503643 -10.37751,0 -21.9233,4.873873 -22.40703,4.873873 l -2.3548,1.058744 2.154,1.268667 c 0,0 3.17623,3.176231 0.73017,19.988357 -4.18934,29.55173 -13.83578,64.78326 -17.59614,78.75776 -2.16313,7.12827 -1.83455,12.94953 1.01311,16.8103 3.00281,3.93378 8.46995,6.18817 15.29063,6.18817 9.50862,0 18.15381,-3.17623 18.63663,-3.63258 l 1.40557,-0.36509 -1.1135,-1.43295 c 0,-0.0913 -4.96515,-7.46597 1.57899,-21.79461 22.05016,-49.05087 39.87813,-68.58287 44.85879,-71.91518 1.1774,-0.54762 1.86193,-1.20477 2.71075,-1.20477 0.54763,0 0.82144,0.36508 0.82144,0.63889 0.54763,0.27382 0.6389,1.47859 0.54763,2.58297 -1.79804,17.04852 -8.99933,45.51869 -13.63316,64.55691 -0.99485,4.35363 -2.06272,7.89494 -2.6286,10.87038 -1.69764,7.29255 -1.13176,12.95044 1.63375,16.71081 2.75638,3.11234 7.21041,4.91038 13.51632,4.91038 9.88557,0 18.62751,-3.63259 18.98438,-3.69647 l 1.79804,-0.73017 -1.34169,-1.21391 c 0,-0.45635 -4.77347,-6.68104 1.92582,-21.84937 16.29827,-37.73053 38.31284,-67.21107 44.03736,-71.49989 1.93494,-1.35994 2.92067,-1.53335 3.5048,-1.53335 0.18255,0 0.27382,0 0.6389,0.54762 0.45636,0.45636 0.6389,2.07185 0.45636,4.02505 -0.0913,0.73017 -0.73017,3.07584 -1.24129,6.57152 -3.2675,13.05906 -9.06321,40.05794 -12.23944,58.84243 -1.89844,11.2172 -0.9766,19.62144 3.17623,24.40587 3.3679,3.86076 8.64336,6.11516 15.05241,6.11516 11.18892,0 21.53084,-6.97311 21.98537,-7.22867 l 1.63375,-1.11351 -1.49685,-1.0131 c 0,0 -7.92232,-7.46597 -4.03417,-29.48054 2.75638,-14.75944 6.31595,-31.73494 8.99932,-44.07661 1.27779,-6.18817 2.09923,-11.32673 2.78376,-14.13788 l 0.18255,-1.10438 c 1.43295,-6.772307 3.59607,-19.138618 -2.26352,-26.148232 -3.10322,-4.052434 -7.78542,-5.594914 -14.29213,-5.594914" />
      <path
         inkscape:connector-curvature="0"
         id="path6145"
         style="fill:#d60f27;fill-opacity:1;fill-rule:nonzero;stroke:none;stroke-width:32.19838715"
         d="m 1050.1057,73.879446 c -6.7632,0 -12.2668,1.807166 -16.0281,5.458007 -2.7564,-1.697641 -12.1482,-6.77231 -24.4771,-6.77231 -7.037,0 -17.38072,1.314303 -28.98857,8.670747 -12.88838,7.986215 -23.75876,20.74499 -32.62026,38.21609 -20.05316,39.10142 -10.44141,67.6583 -5.40325,74.66791 4.39014,6.08778 10.46788,8.83504 19.23811,8.83504 12.40282,0 28.89549,-4.87388 54.05157,-44.40153 -0.7301,5.56753 -1.5607,13.38854 -1.5607,20.05954 0,21.53084 15.1683,23.84912 21.4213,23.84912 16.1997,0 21.8503,-7.55724 21.895,-7.8128 l 0.6389,-0.82144 -0.6389,-0.82144 c -0.1825,-0.27381 -7.5481,-7.79454 -2.7016,-47.84335 4.6731,-38.1522 17.9156,-64.454686 17.9156,-64.776873 l 0.6389,-1.058744 -1.1226,-0.730168 c -0.4564,-0.182542 -11.3815,-4.709585 -22.2428,-4.709585 z m -69.98572,99.757404 v 0 c -3.30401,0 -5.06554,-5.65881 -5.06554,-11.58229 0,-6.41636 3.20361,-43.35465 18.83925,-62.300692 3.4683,-3.687349 7.59371,-6.01476 11.71101,-6.01476 10.0133,0 19.3768,10.721602 21.6951,13.480732 -12.139,24.67055 -29.18847,50.22644 -41.32022,62.74883 -2.22701,2.49169 -4.38101,3.66909 -5.8596,3.66909" />
      <path
         inkscape:connector-curvature="0"
         id="path6147"
         style="fill:#d60f27;fill-opacity:1;fill-rule:nonzero;stroke:none;stroke-width:32.19838715"
         d="m 1174.4077,72.562405 c -17.5158,0 -38.5447,28.988585 -47.4445,42.434635 1.4695,-5.81396 3.6326,-14.38614 5.2937,-22.28108 1.15,-5.914363 0.3651,-10.532676 -1.9258,-13.635891 -3.012,-3.395282 -7.9771,-5.202448 -14.921,-5.202448 -9.9394,0 -21.9434,4.3445 -22.3714,4.508788 l -1.7433,0.730168 1.5425,1.314303 c 0,0.182542 3.2401,4.773474 1.2413,20.90289 -2.7838,17.57058 -13.9645,61.37976 -18.6814,79.11463 -2.1631,7.12827 -1.6337,12.32889 0.9857,16.02537 3.9886,5.40324 11.7457,6.02389 17.0841,6.02389 9.0815,0 18.1182,-3.17623 18.5107,-3.63259 l 1.7342,-0.36508 -1.0405,-1.43296 c -0.065,-0.0913 -4.3263,-6.88183 0.6389,-19.99839 13.3785,-33.76937 28.2484,-53.49395 37.1737,-60.26534 2.0628,-1.44209 4.162,-2.32742 6.2247,-2.32742 4.9013,0 8.0136,5.50365 8.0136,5.50365 l 0.7302,1.37819 1.0861,-1.11351 c 4.6731,-4.64569 13.0153,-14.5057 16.0546,-23.401887 2.0992,-5.330228 4.8191,-14.8142 0.7302,-20.31693 -1.6977,-2.747258 -4.737,-3.961162 -8.9263,-3.961162" />
      <path
         inkscape:connector-curvature="0"
         id="path6149"
         style="fill:#d60f27;fill-opacity:1;fill-rule:nonzero;stroke:none;stroke-width:32.19838715"
         d="m 1275.5369,88.436261 c -4.9104,1.697641 -16.9782,2.811148 -33.177,2.811148 -1.8254,0 -3.3314,0 -4.3445,0 0.7301,-4.18934 3.6599,-16.028104 6.8362,-27.252615 1.9988,-6.772309 1.7706,-12.331627 -1.0861,-15.928618 -2.8112,-3.440918 -7.4204,-4.983398 -14.4218,-4.983398 -9.8207,0 -23.9559,4.390136 -24.5062,4.645695 l -2.0993,0.638897 1.8072,1.642878 c 5.4215,5.549279 -0.4564,32.291688 -2.9846,42.232015 -0.2738,0.547626 -14.0648,53.594347 -14.0648,78.946697 0,21.26706 11.6461,31.80886 33.9601,31.80886 10.4067,0 25.5851,-2.81114 35.7883,-11.65531 4.454,-3.85163 6.4163,-9.35436 5.2389,-15.17837 -0.6389,-4.18021 -2.7107,-7.45684 -2.7107,-7.62113 l -0.7302,-1.54248 -1.3052,1.21391 c -0.1825,0 -4.7735,4.51791 -13.948,7.62113 -3.4592,1.0131 -6.1791,1.70676 -8.9902,1.70676 -2.9481,0 -5.4306,-1.2139 -7.758,-3.17623 -5.166,-5.30284 -1.8346,-24.24158 -0.7302,-30.33027 1.7341,-9.61814 5.9782,-27.5173 6.9001,-31.99871 1.6063,0 4.9742,-0.0648 9.2923,-0.0648 3.7056,0 6.8727,0.0648 9.975,0.0648 19.2034,0.36509 24.5802,-14.557726 24.77,-22.442629 v -1.971454 z" />
    </g>
  </g>
</svg>
