<?xml version="1.0" standalone="no"?>
<!DOCTYPE svg PUBLIC "-//W3C//DTD SVG 20010904//EN"
 "http://www.w3.org/TR/2001/REC-SVG-20010904/DTD/svg10.dtd">
<svg version="1.0" xmlns="http://www.w3.org/2000/svg"
 width="6070.000000pt" height="1200.000000pt" viewBox="0 0 6070.000000 1200.000000"
 preserveAspectRatio="xMidYMid meet">
<g transform="translate(0.000000,1200.000000) scale(0.100000,-0.100000)"
fill="#26408D" stroke="none">
<path d="M16682 11397 c-73 -95 -133 -157 -151 -157 -4 0 -63 16 -132 35 -313
90 -472 110 -779 101 -677 -20 -1297 -140 -1915 -371 -547 -205 -1031 -474
-1493 -832 -396 -308 -807 -726 -1103 -1123 -537 -721 -906 -1564 -1043 -2385
-48 -282 -60 -438 -60 -760 -1 -315 7 -423 50 -671 248 -1458 1220 -2467 2697
-2800 408 -92 1004 -144 1406 -124 408 21 542 38 946 125 138 29 277 59 310
65 72 14 136 49 169 93 14 18 55 97 91 177 37 79 279 596 540 1149 654 1392
645 1372 645 1398 0 13 -7 26 -15 29 -8 4 -70 -26 -143 -70 -253 -149 -662
-335 -947 -431 -538 -182 -1052 -211 -1560 -86 -567 139 -959 430 -1203 891
-193 366 -246 744 -161 1165 152 762 578 1343 1228 1674 303 154 586 240 936
283 170 20 650 17 795 -5 486 -76 907 -250 1313 -544 175 -127 187 -132 221
-95 36 41 1306 2357 1306 2384 0 19 -10 35 -34 53 -18 14 -301 166 -627 339
-1081 570 -1133 596 -1172 596 -33 0 -40 -6 -115 -103z"/>
<path d="M4598 11440 c-47 -14 -94 -48 -120 -87 -14 -21 -112 -207 -218 -413
-106 -206 -332 -643 -503 -970 -394 -758 -557 -1083 -557 -1115 0 -13 8 -28
18 -34 9 -5 138 -10 285 -12 265 -4 269 -4 287 -27 23 -28 40 49 -210 -912
-183 -705 -556 -2147 -1109 -4290 -121 -470 -224 -876 -227 -902 -12 -87 -248
-79 2287 -75 2093 2 2251 4 2349 20 641 108 1077 271 1530 572 340 226 681
561 887 870 208 314 343 655 399 1010 21 136 30 492 15 652 -23 255 -68 479
-128 638 -128 342 -363 602 -702 777 -53 27 -102 56 -109 63 -12 10 11 28 131
99 495 295 869 641 1149 1061 334 501 456 1024 363 1552 -103 586 -427 1015
-960 1273 -263 127 -487 190 -855 242 -101 14 -3958 22 -4002 8z m2780 -2360
c210 -22 325 -89 391 -230 24 -50 26 -66 26 -185 0 -151 -21 -239 -85 -370
-92 -186 -253 -314 -470 -375 -161 -44 -234 -50 -647 -50 -215 0 -398 3 -407
6 -23 9 -20 43 18 216 19 84 73 326 121 538 53 238 93 395 104 410 35 49 40
50 457 50 216 0 437 -5 492 -10z m-528 -2824 c234 -45 405 -205 465 -436 31
-116 11 -283 -50 -425 -75 -174 -262 -343 -480 -431 -226 -93 -353 -106 -932
-102 -398 3 -444 5 -459 20 -20 20 -30 -26 186 804 133 511 141 540 171 567
l31 29 492 -5 c399 -4 507 -7 576 -21z"/>
<path d="M19954 11431 c-48 -22 -66 -46 -124 -161 -23 -47 -62 -119 -85 -160
-82 -144 -1086 -1993 -1125 -2071 -41 -81 -49 -122 -27 -136 6 -4 148 -10 314
-13 262 -4 304 -7 319 -21 15 -16 6 -35 -114 -270 -248 -486 -726 -1426 -1622
-3194 -1332 -2629 -1377 -2718 -1384 -2747 -4 -18 -1 -32 10 -42 14 -14 165
-16 1515 -16 1016 0 1507 3 1520 10 10 6 30 32 43 58 25 50 299 698 466 1103
104 253 117 279 164 313 27 21 37 21 899 24 480 1 887 0 904 -3 19 -3 38 -15
45 -28 10 -17 14 -186 18 -729 5 -662 6 -708 23 -725 17 -17 88 -18 1375 -21
746 -1 1371 0 1388 3 20 3 35 14 42 31 16 33 15 170 -3 519 -8 160 -22 472
-30 695 -8 223 -27 657 -40 965 -28 628 -107 2467 -160 3715 -19 454 -39 920
-45 1035 -20 418 -30 680 -50 1237 -11 313 -24 578 -29 591 -21 56 129 52
-2105 54 -1994 3 -2062 2 -2102 -16z m1710 -2913 c10 -69 26 -1197 26 -1766
l0 -523 -25 -24 -24 -25 -468 0 c-257 0 -478 3 -490 6 -31 8 -33 24 -13 80 17
48 400 957 715 1699 87 204 176 415 199 470 60 145 71 156 80 83z"/>
<path d="M32645 9355 l-25 -24 0 -3364 c0 -3298 0 -3365 19 -3388 l19 -24 736
0 735 0 23 23 23 23 0 3365 0 3366 -28 24 -28 24 -725 0 -725 0 -24 -25z"/>
<path d="M35299 9361 l-24 -19 0 -571 0 -570 23 -23 23 -23 732 -3 c402 -2
756 0 785 3 92 11 87 -24 87 605 0 300 -4 558 -8 573 -4 16 -18 32 -33 37 -15
6 -324 10 -794 10 -741 0 -769 -1 -791 -19z"/>
<path d="M38023 9356 l-28 -24 0 -3366 0 -3365 23 -23 23 -23 707 -3 c389 -2
722 0 740 3 20 4 39 16 50 33 16 24 17 85 18 862 1 628 4 846 14 880 18 65 61
146 122 228 56 75 81 93 103 71 14 -14 448 -710 963 -1544 146 -236 276 -444
290 -462 13 -18 43 -41 66 -52 42 -21 56 -21 900 -21 572 0 864 3 877 10 10 6
19 21 19 34 0 32 -44 99 -1210 1861 -298 451 -552 838 -563 859 -21 39 -21 39
-1 75 11 20 385 485 832 1035 562 690 812 1006 812 1022 0 13 -9 28 -19 34
-26 13 -1672 14 -1721 0 -88 -24 -116 -54 -376 -401 -604 -804 -1047 -1386
-1070 -1406 -14 -13 -29 -23 -35 -23 -5 0 -9 694 -9 1844 l0 1845 -26 20 c-26
21 -33 21 -750 21 l-723 0 -28 -24z"/>
<path d="M26353 9089 c-18 -5 -39 -19 -48 -31 -13 -20 -15 -354 -15 -3230 0
-1949 4 -3216 9 -3231 6 -14 23 -29 42 -36 42 -14 1535 -16 1574 -1 14 5 30
22 36 37 7 18 11 367 13 1043 3 1009 3 1015 25 1088 38 130 110 250 229 382
39 45 40 45 61 26 11 -10 316 -460 678 -1000 361 -539 738 -1102 837 -1251
160 -238 187 -273 230 -300 l49 -30 948 -3 c854 -2 949 -1 963 14 26 25 19 53
-32 123 -27 36 -161 228 -297 426 -137 198 -618 893 -1070 1545 -991 1431
-945 1362 -945 1389 0 34 11 51 190 281 92 118 580 753 1085 1410 505 657 933
1213 951 1234 40 47 44 88 12 110 -20 14 -121 16 -893 16 -952 0 -934 1 -1002
-58 -17 -15 -217 -286 -444 -602 -396 -552 -1547 -2151 -1555 -2159 -2 -2 -7
-1 -11 3 -5 4 -10 628 -13 1387 l-5 1378 -23 23 -23 23 -762 2 c-453 1 -775
-2 -794 -8z"/>
<path d="M43712 9089 c-67 -20 -62 246 -62 -3267 0 -2244 3 -3198 11 -3220 7
-20 21 -34 41 -41 34 -12 1500 -16 1557 -5 70 14 65 -53 71 1067 l5 1009 24
19 c22 18 44 19 360 19 792 1 1117 41 1510 186 451 167 909 532 1141 909 106
171 211 446 264 685 78 354 78 763 0 1131 -128 609 -519 1054 -1144 1302 -331
132 -631 188 -1106 207 -313 12 -2628 11 -2672 -1z m2416 -1270 c192 -21 399
-89 519 -169 151 -102 255 -257 306 -458 31 -125 31 -414 0 -549 -81 -345
-288 -559 -625 -648 -136 -35 -283 -54 -511 -65 -259 -13 -443 -4 -469 22 -17
17 -18 56 -18 916 0 960 -1 939 50 953 41 11 643 10 748 -2z"/>
<path d="M50740 7624 c-450 -39 -862 -103 -1254 -196 -164 -39 -171 -45 -181
-159 -4 -46 -5 -298 -3 -559 3 -431 5 -478 21 -507 34 -63 69 -59 307 32 682
263 1104 327 1628 249 275 -41 450 -111 558 -226 87 -92 136 -204 150 -342 6
-56 4 -66 -14 -84 -24 -24 -43 -27 -312 -47 -351 -27 -781 -75 -1020 -116
-774 -130 -1284 -414 -1535 -854 -85 -149 -142 -328 -171 -540 -21 -153 -15
-492 11 -635 102 -563 525 -1025 1063 -1161 189 -48 328 -62 562 -56 238 5
349 24 557 92 244 80 435 188 668 376 155 125 147 120 165 109 12 -7 16 -48
20 -204 5 -187 6 -197 28 -218 l23 -23 702 -3 c386 -2 717 0 735 3 68 12 63
-135 63 1836 -1 1572 -2 1795 -16 1874 -88 507 -346 859 -790 1080 -212 105
-428 170 -735 220 -310 50 -404 57 -805 60 -209 1 -400 1 -425 -1z m1194
-2799 c8 -9 18 -30 21 -48 3 -18 5 -226 3 -463 l-3 -430 -28 -42 c-46 -71
-215 -184 -360 -242 -179 -72 -373 -94 -565 -66 -196 29 -292 67 -377 147 -99
94 -139 213 -140 419 0 112 4 147 22 206 85 271 352 413 908 484 419 53 495
58 519 35z"/>
<path d="M35363 7480 c-12 -5 -26 -18 -32 -29 -8 -14 -11 -745 -11 -2434 0
-2363 0 -2415 19 -2438 l19 -24 736 0 735 0 23 23 23 23 3 2395 c1 1611 -1
2409 -8 2434 -8 30 -17 41 -42 49 -38 13 -1432 14 -1465 1z"/>
<path d="M53689 7472 c-20 -17 -21 -23 -12 -58 10 -39 815 -2185 1429 -3809
313 -829 317 -841 317 -915 0 -73 -4 -85 -127 -400 -284 -721 -558 -1437 -563
-1467 -11 -67 -64 -63 822 -63 750 0 804 1 824 18 23 19 93 206 1582 4240 547
1483 879 2395 879 2417 0 29 -5 37 -26 45 -34 13 -1484 13 -1518 0 -14 -5 -33
-21 -42 -36 -10 -14 -221 -674 -470 -1467 -249 -792 -460 -1447 -468 -1455
-12 -12 -15 -12 -25 7 -6 11 -227 663 -490 1449 -263 785 -486 1443 -495 1460
-9 18 -28 37 -42 42 -15 6 -327 10 -789 10 -726 0 -764 -1 -786 -18z"/>
</g>
</svg>
