<?xml version="1.0" encoding="UTF-8"?>
<svg xmlns="http://www.w3.org/2000/svg" xmlns:xlink="http://www.w3.org/1999/xlink" width="535.8pt" height="161.6pt" viewBox="0 0 535.8 161.6" version="1.1">
<defs>
<clipPath id="clip1">
  <path d="M 5 125 L 450 125 L 450 161.601563 L 5 161.601563 Z M 5 125 "/>
</clipPath>
<clipPath id="clip2">
  <path d="M 403 30 L 535.800781 30 L 535.800781 82 L 403 82 Z M 403 30 "/>
</clipPath>
</defs>
<g id="surface1">
<path style=" stroke:none;fill-rule:evenodd;fill:rgb(0%,31.37207%,57.617188%);fill-opacity:1;" d="M 18.816406 -0.09375 L 102.058594 -0.09375 C 112.371094 -0.09375 120.808594 7.609375 120.808594 17.023438 L 120.808594 94.558594 C 120.808594 103.972656 112.371094 111.675781 102.058594 111.675781 L 18.816406 111.675781 C 8.503906 111.675781 0.0664063 103.972656 0.0664063 94.558594 L 0.0664063 17.023438 C 0.0664063 7.609375 8.503906 -0.09375 18.816406 -0.09375 Z M 20.828125 7.855469 L 35.59375 7.855469 C 39.644531 9.558594 42.921875 12.230469 45.175781 15.28125 C 47.878906 18.941406 49.058594 23.03125 48.234375 26.441406 C 48.210938 26.539063 48.164063 26.703125 48.09375 26.925781 C 46.054688 33.601563 39.109375 39.738281 32.039063 45.976563 C 30 47.78125 27.949219 49.589844 25.925781 51.492188 L 21.75 55.410156 L 25.972656 59.269531 L 25.976563 59.273438 L 25.988281 59.265625 C 27.992188 61.144531 30.019531 62.9375 32.039063 64.71875 C 39.109375 70.960938 46.054688 77.097656 48.09375 83.769531 C 48.164063 83.996094 48.210938 84.15625 48.234375 84.257813 C 49.058594 87.667969 47.878906 91.753906 45.175781 95.417969 C 42.480469 99.066406 38.324219 102.167969 33.132813 103.722656 L 20.828125 103.722656 C 16.714844 103.722656 13.347656 100.34375 13.347656 96.214844 L 13.347656 15.367188 C 13.347656 11.238281 16.714844 7.859375 20.828125 7.859375 Z M 54.265625 7.855469 L 69.160156 7.855469 C 73.207031 9.558594 76.484375 12.230469 78.738281 15.28125 C 81.445313 18.941406 82.625 23.03125 81.796875 26.441406 C 81.773438 26.539063 81.726563 26.703125 81.660156 26.925781 C 79.621094 33.601563 72.671875 39.738281 65.605469 45.976563 C 63.5625 47.78125 61.511719 49.589844 59.488281 51.492188 L 55.410156 55.316406 L 59.464844 59.183594 L 104.53125 102.210938 C 103.28125 103.160156 101.726563 103.722656 100.046875 103.722656 L 53.515625 103.722656 C 54.117188 103.035156 54.6875 102.332031 55.21875 101.613281 C 59.722656 95.519531 61.585938 88.300781 60.03125 81.871094 C 59.929688 81.457031 59.835938 81.105469 59.75 80.824219 C 56.816406 71.21875 48.691406 64.042969 40.425781 56.746094 C 39.898438 56.28125 39.371094 55.816406 38.847656 55.347656 C 39.371094 54.882813 39.898438 54.417969 40.425781 53.953125 C 48.691406 46.65625 56.816406 39.480469 59.75 29.875 C 59.835938 29.589844 59.929688 29.238281 60.03125 28.824219 C 61.585938 22.398438 59.722656 15.179688 55.21875 9.082031 C 54.914063 8.667969 54.59375 8.261719 54.265625 7.855469 Z M 87.828125 7.855469 L 100.046875 7.855469 C 104.160156 7.855469 107.527344 11.238281 107.527344 15.367188 L 107.527344 89.078125 L 72.300781 55.445313 C 72.863281 54.949219 73.425781 54.449219 73.988281 53.953125 C 82.253906 46.65625 90.378906 39.480469 93.3125 29.875 C 93.398438 29.589844 93.492188 29.238281 93.59375 28.824219 C 95.152344 22.398438 93.285156 15.179688 88.78125 9.082031 C 88.476563 8.667969 88.15625 8.261719 87.828125 7.855469 Z M 87.828125 7.855469 "/>
<g clip-path="url(#clip1)" clip-rule="nonzero">
<path style=" stroke:none;fill-rule:evenodd;fill:rgb(0%,31.37207%,57.617188%);fill-opacity:1;" d="M 5.414063 153.605469 L 8.066406 153.605469 L 8.066406 130.367188 L 8.144531 130.367188 L 18.214844 153.605469 L 20.480469 153.605469 L 30.242188 130.367188 L 30.320313 130.367188 L 30.320313 153.605469 L 32.972656 153.605469 L 32.972656 127.816406 L 29.164063 127.816406 L 19.328125 150.503906 L 9.527344 127.816406 L 5.414063 127.816406 Z M 52.457031 150.648438 C 52.160156 150.828125 51.796875 151 51.359375 151.167969 C 50.925781 151.332031 50.453125 151.480469 49.941406 151.617188 C 49.425781 151.746094 48.921875 151.855469 48.402344 151.929688 C 47.890625 152.011719 47.410156 152.054688 46.960938 152.054688 C 45.902344 152.046875 44.976563 151.855469 44.167969 151.488281 C 43.367188 151.117188 42.6875 150.605469 42.144531 149.949219 C 41.605469 149.289063 41.195313 148.527344 40.921875 147.65625 C 40.644531 146.789063 40.503906 145.851563 40.503906 144.847656 L 53.917969 144.847656 L 53.917969 143.667969 C 53.917969 142.390625 53.769531 141.191406 53.472656 140.070313 C 53.179688 138.949219 52.71875 137.957031 52.089844 137.097656 C 51.464844 136.234375 50.65625 135.558594 49.671875 135.070313 C 48.683594 134.578125 47.5 134.324219 46.117188 134.320313 C 44.871094 134.324219 43.746094 134.574219 42.734375 135.050781 C 41.722656 135.53125 40.851563 136.210938 40.125 137.089844 C 39.394531 137.96875 38.839844 139.011719 38.449219 140.210938 C 38.058594 141.414063 37.859375 142.738281 37.851563 144.183594 C 37.84375 145.605469 38.007813 146.914063 38.332031 148.113281 C 38.660156 149.308594 39.171875 150.347656 39.875 151.234375 C 40.582031 152.121094 41.496094 152.8125 42.636719 153.304688 C 43.769531 153.789063 45.148438 154.042969 46.769531 154.050781 C 47.375 154.050781 48.011719 154.007813 48.671875 153.925781 C 49.332031 153.84375 49.984375 153.726563 50.628906 153.582031 C 51.277344 153.425781 51.886719 153.238281 52.457031 153.015625 Z M 40.503906 142.855469 C 40.503906 142.066406 40.636719 141.289063 40.902344 140.519531 C 41.164063 139.757813 41.546875 139.054688 42.046875 138.421875 C 42.546875 137.785156 43.148438 137.28125 43.859375 136.898438 C 44.570313 136.515625 45.371094 136.320313 46.269531 136.316406 C 47.171875 136.320313 47.941406 136.503906 48.574219 136.875 C 49.207031 137.238281 49.726563 137.730469 50.125 138.351563 C 50.523438 138.96875 50.8125 139.671875 50.996094 140.445313 C 51.175781 141.222656 51.265625 142.023438 51.265625 142.855469 Z M 58.527344 153.605469 L 60.949219 153.605469 L 60.949219 125.894531 L 58.527344 125.894531 Z M 78.320313 153.605469 L 80.703125 153.605469 C 80.640625 153.175781 80.59375 152.753906 80.570313 152.34375 C 80.542969 151.929688 80.523438 151.5 80.519531 151.0625 C 80.511719 150.625 80.511719 150.152344 80.511719 149.652344 L 80.511719 141.339844 C 80.519531 139.707031 80.28125 138.371094 79.804688 137.335938 C 79.328125 136.300781 78.582031 135.539063 77.570313 135.046875 C 76.550781 134.558594 75.238281 134.3125 73.632813 134.320313 C 73.195313 134.320313 72.722656 134.355469 72.210938 134.421875 C 71.703125 134.492188 71.183594 134.585938 70.667969 134.703125 C 70.140625 134.824219 69.636719 134.960938 69.15625 135.113281 C 68.675781 135.269531 68.246094 135.433594 67.867188 135.613281 L 67.867188 137.867188 C 68.769531 137.320313 69.699219 136.917969 70.667969 136.671875 C 71.625 136.433594 72.613281 136.308594 73.632813 136.316406 C 74.714844 136.316406 75.585938 136.492188 76.238281 136.855469 C 76.890625 137.214844 77.367188 137.753906 77.660156 138.46875 C 77.957031 139.191406 78.097656 140.082031 78.089844 141.15625 L 78.089844 142.113281 L 77.628906 142.113281 C 76.777344 142.109375 75.894531 142.128906 74.976563 142.164063 C 74.054688 142.207031 73.144531 142.292969 72.25 142.421875 C 71.34375 142.558594 70.492188 142.769531 69.691406 143.050781 C 68.894531 143.335938 68.179688 143.722656 67.566406 144.207031 C 66.945313 144.691406 66.457031 145.304688 66.105469 146.042969 C 65.746094 146.78125 65.566406 147.679688 65.5625 148.726563 C 65.554688 149.074219 65.601563 149.480469 65.695313 149.9375 C 65.792969 150.390625 65.972656 150.859375 66.226563 151.332031 C 66.488281 151.8125 66.855469 152.257813 67.335938 152.664063 C 67.816406 153.078125 68.445313 153.410156 69.207031 153.660156 C 69.972656 153.914063 70.910156 154.042969 72.019531 154.050781 C 72.625 154.050781 73.242188 153.976563 73.863281 153.820313 C 74.476563 153.671875 75.074219 153.453125 75.636719 153.15625 C 76.199219 152.867188 76.707031 152.503906 77.160156 152.074219 C 77.609375 151.632813 77.96875 151.144531 78.246094 150.578125 L 78.320313 150.578125 Z M 78.089844 145.253906 C 78.097656 145.675781 78.078125 146.167969 78.03125 146.738281 C 77.988281 147.320313 77.871094 147.910156 77.6875 148.527344 C 77.5 149.140625 77.199219 149.714844 76.789063 150.242188 C 76.375 150.777344 75.804688 151.210938 75.074219 151.542969 C 74.347656 151.875 73.421875 152.039063 72.285156 152.054688 C 71.539063 152.058594 70.851563 151.949219 70.238281 151.722656 C 69.628906 151.5 69.136719 151.136719 68.777344 150.636719 C 68.410156 150.140625 68.21875 149.472656 68.214844 148.65625 C 68.21875 147.828125 68.40625 147.144531 68.765625 146.589844 C 69.128906 146.042969 69.617188 145.601563 70.238281 145.269531 C 70.859375 144.9375 71.570313 144.683594 72.355469 144.515625 C 73.144531 144.351563 73.972656 144.238281 74.835938 144.183594 C 75.703125 144.128906 76.550781 144.105469 77.398438 144.109375 L 78.089844 144.109375 Z M 86.238281 134.761719 L 83.585938 134.761719 L 90.539063 153.828125 L 90.042969 155.488281 C 89.792969 156.308594 89.527344 157.023438 89.246094 157.640625 C 88.960938 158.25 88.605469 158.726563 88.171875 159.066406 C 87.742188 159.414063 87.191406 159.585938 86.507813 159.589844 C 86.070313 159.589844 85.71875 159.558594 85.441406 159.5 C 85.167969 159.441406 84.925781 159.375 84.699219 159.296875 L 84.46875 161.289063 C 84.878906 161.382813 85.300781 161.457031 85.75 161.507813 C 86.191406 161.5625 86.640625 161.585938 87.082031 161.585938 C 87.761719 161.578125 88.363281 161.433594 88.890625 161.144531 C 89.414063 160.855469 89.882813 160.460938 90.277344 159.972656 C 90.675781 159.480469 91.027344 158.925781 91.324219 158.316406 C 91.625 157.699219 91.886719 157.066406 92.117188 156.414063 L 99.957031 134.761719 L 97.421875 134.761719 L 91.773438 150.464844 L 91.734375 150.464844 Z M 114.597656 153.605469 L 116.980469 153.605469 C 116.917969 153.175781 116.871094 152.753906 116.847656 152.34375 C 116.820313 151.929688 116.800781 151.5 116.796875 151.0625 C 116.789063 150.625 116.789063 150.152344 116.789063 149.652344 L 116.789063 141.339844 C 116.796875 139.707031 116.558594 138.371094 116.085938 137.335938 C 115.605469 136.300781 114.859375 135.539063 113.847656 135.046875 C 112.832031 134.558594 111.519531 134.3125 109.910156 134.320313 C 109.476563 134.320313 109 134.355469 108.488281 134.421875 C 107.980469 134.492188 107.464844 134.585938 106.945313 134.703125 C 106.417969 134.824219 105.914063 134.960938 105.433594 135.113281 C 104.953125 135.269531 104.523438 135.433594 104.144531 135.613281 L 104.144531 137.867188 C 105.050781 137.320313 105.976563 136.917969 106.945313 136.671875 C 107.90625 136.433594 108.890625 136.308594 109.910156 136.316406 C 110.992188 136.316406 111.863281 136.492188 112.515625 136.855469 C 113.171875 137.214844 113.644531 137.753906 113.941406 138.46875 C 114.234375 139.191406 114.375 140.082031 114.367188 141.15625 L 114.367188 142.113281 L 113.90625 142.113281 C 113.054688 142.109375 112.171875 142.128906 111.257813 142.164063 C 110.332031 142.207031 109.421875 142.292969 108.527344 142.421875 C 107.625 142.558594 106.773438 142.769531 105.972656 143.050781 C 105.171875 143.335938 104.460938 143.722656 103.84375 144.207031 C 103.222656 144.691406 102.738281 145.304688 102.382813 146.042969 C 102.027344 146.78125 101.847656 147.679688 101.839844 148.726563 C 101.832031 149.074219 101.878906 149.480469 101.972656 149.9375 C 102.070313 150.390625 102.25 150.859375 102.507813 151.332031 C 102.769531 151.8125 103.132813 152.257813 103.613281 152.664063 C 104.09375 153.078125 104.722656 153.410156 105.484375 153.660156 C 106.253906 153.914063 107.1875 154.042969 108.296875 154.050781 C 108.90625 154.050781 109.519531 153.976563 110.140625 153.820313 C 110.757813 153.671875 111.351563 153.453125 111.914063 153.15625 C 112.476563 152.867188 112.984375 152.503906 113.441406 152.074219 C 113.886719 151.632813 114.246094 151.144531 114.523438 150.578125 L 114.597656 150.578125 Z M 114.367188 145.253906 C 114.375 145.675781 114.355469 146.167969 114.3125 146.738281 C 114.265625 147.320313 114.152344 147.910156 113.964844 148.527344 C 113.78125 149.140625 113.476563 149.714844 113.070313 150.242188 C 112.652344 150.777344 112.082031 151.210938 111.351563 151.542969 C 110.628906 151.875 109.699219 152.039063 108.566406 152.054688 C 107.816406 152.058594 107.132813 151.949219 106.515625 151.722656 C 105.90625 151.5 105.414063 151.136719 105.054688 150.636719 C 104.691406 150.140625 104.496094 149.472656 104.492188 148.65625 C 104.496094 147.828125 104.683594 147.144531 105.042969 146.589844 C 105.40625 146.042969 105.894531 145.601563 106.515625 145.269531 C 107.136719 144.9375 107.847656 144.683594 108.636719 144.515625 C 109.421875 144.351563 110.25 144.238281 111.113281 144.183594 C 111.980469 144.128906 112.832031 144.105469 113.675781 144.109375 L 114.367188 144.109375 Z M 122.554688 153.605469 L 124.976563 153.605469 L 124.976563 143.1875 C 124.976563 142.550781 125.03125 141.914063 125.15625 141.265625 C 125.277344 140.621094 125.476563 140.003906 125.742188 139.410156 C 126.019531 138.820313 126.378906 138.292969 126.828125 137.828125 C 127.273438 137.363281 127.824219 136.996094 128.480469 136.726563 C 129.132813 136.457031 129.894531 136.320313 130.777344 136.316406 C 131.886719 136.320313 132.78125 136.5625 133.46875 137.039063 C 134.152344 137.515625 134.652344 138.191406 134.96875 139.0625 C 135.28125 139.933594 135.433594 140.964844 135.429688 142.152344 L 135.429688 153.605469 L 137.851563 153.605469 L 137.851563 141.5625 C 137.851563 140.519531 137.734375 139.558594 137.484375 138.683594 C 137.242188 137.804688 136.851563 137.039063 136.324219 136.386719 C 135.792969 135.734375 135.101563 135.230469 134.25 134.867188 C 133.398438 134.511719 132.371094 134.324219 131.164063 134.320313 C 130.152344 134.324219 129.285156 134.441406 128.570313 134.675781 C 127.851563 134.902344 127.25 135.207031 126.769531 135.582031 C 126.28125 135.957031 125.890625 136.371094 125.578125 136.8125 C 125.269531 137.257813 125.019531 137.695313 124.820313 138.125 L 124.746094 138.125 L 124.746094 134.761719 L 122.402344 134.761719 C 122.476563 135.519531 122.523438 136.265625 122.535156 137.003906 C 122.554688 137.742188 122.558594 138.476563 122.554688 139.195313 Z M 143.921875 153.605469 L 146.34375 153.605469 L 146.34375 134.761719 L 143.921875 134.761719 Z M 146.34375 126.632813 L 143.921875 126.632813 L 143.921875 129.738281 L 146.34375 129.738281 Z M 165.828125 130.035156 L 169.710938 130.035156 C 171.222656 130.027344 172.632813 130.207031 173.9375 130.5625 C 175.25 130.925781 176.402344 131.515625 177.398438 132.328125 C 178.390625 133.144531 179.171875 134.222656 179.730469 135.5625 C 180.292969 136.910156 180.582031 138.566406 180.585938 140.527344 C 180.582031 142.496094 180.285156 144.179688 179.695313 145.558594 C 179.105469 146.941406 178.261719 148.0625 177.160156 148.925781 C 176.058594 149.78125 174.734375 150.410156 173.195313 150.804688 C 171.652344 151.199219 169.929688 151.394531 168.019531 151.390625 L 165.828125 151.390625 Z M 163.175781 153.605469 L 167.867188 153.605469 C 169.648438 153.605469 171.320313 153.457031 172.875 153.15625 C 174.433594 152.855469 175.847656 152.386719 177.117188 151.746094 C 178.382813 151.105469 179.472656 150.28125 180.382813 149.265625 C 181.296875 148.25 182.003906 147.03125 182.496094 145.605469 C 182.984375 144.183594 183.230469 142.539063 183.238281 140.675781 C 183.246094 138.785156 182.996094 137.054688 182.496094 135.484375 C 181.996094 133.917969 181.207031 132.5625 180.140625 131.417969 C 179.0625 130.273438 177.679688 129.386719 175.976563 128.765625 C 174.273438 128.144531 172.222656 127.824219 169.824219 127.816406 L 163.175781 127.816406 Z M 201.914063 150.648438 C 201.621094 150.828125 201.257813 151 200.820313 151.167969 C 200.386719 151.332031 199.910156 151.480469 199.398438 151.617188 C 198.886719 151.746094 198.382813 151.855469 197.863281 151.929688 C 197.347656 152.011719 196.871094 152.054688 196.421875 152.054688 C 195.363281 152.046875 194.433594 151.855469 193.628906 151.488281 C 192.828125 151.117188 192.148438 150.605469 191.605469 149.949219 C 191.066406 149.289063 190.65625 148.527344 190.378906 147.65625 C 190.105469 146.789063 189.964844 145.851563 189.964844 144.847656 L 203.378906 144.847656 L 203.378906 143.667969 C 203.378906 142.390625 203.230469 141.191406 202.933594 140.070313 C 202.640625 138.949219 202.179688 137.957031 201.550781 137.097656 C 200.925781 136.234375 200.117188 135.558594 199.128906 135.070313 C 198.144531 134.578125 196.957031 134.324219 195.574219 134.320313 C 194.332031 134.324219 193.207031 134.574219 192.191406 135.050781 C 191.179688 135.53125 190.308594 136.210938 189.585938 137.089844 C 188.855469 137.96875 188.296875 139.011719 187.90625 140.210938 C 187.519531 141.414063 187.320313 142.738281 187.3125 144.183594 C 187.304688 145.605469 187.464844 146.914063 187.792969 148.113281 C 188.121094 149.308594 188.632813 150.347656 189.335938 151.234375 C 190.039063 152.121094 190.957031 152.8125 192.097656 153.304688 C 193.230469 153.789063 194.609375 154.042969 196.230469 154.050781 C 196.835938 154.050781 197.472656 154.007813 198.128906 153.925781 C 198.789063 153.84375 199.445313 153.726563 200.089844 153.582031 C 200.738281 153.425781 201.347656 153.238281 201.914063 153.015625 Z M 189.964844 142.855469 C 189.964844 142.066406 190.097656 141.289063 190.363281 140.519531 C 190.625 139.757813 191.007813 139.054688 191.507813 138.421875 C 192.007813 137.785156 192.609375 137.28125 193.320313 136.898438 C 194.03125 136.515625 194.832031 136.320313 195.730469 136.316406 C 196.632813 136.320313 197.402344 136.503906 198.035156 136.875 C 198.667969 137.238281 199.1875 137.730469 199.585938 138.351563 C 199.980469 138.96875 200.269531 139.671875 200.457031 140.445313 C 200.636719 141.222656 200.726563 142.023438 200.726563 142.855469 Z M 207.988281 153.605469 L 210.410156 153.605469 L 210.410156 143.1875 C 210.410156 142.550781 210.46875 141.914063 210.589844 141.265625 C 210.710938 140.621094 210.910156 140.003906 211.175781 139.410156 C 211.453125 138.820313 211.8125 138.292969 212.261719 137.828125 C 212.710938 137.363281 213.257813 136.996094 213.914063 136.726563 C 214.566406 136.457031 215.328125 136.320313 216.210938 136.316406 C 217.320313 136.320313 218.21875 136.5625 218.902344 137.039063 C 219.589844 137.515625 220.089844 138.191406 220.402344 139.0625 C 220.714844 139.933594 220.867188 140.964844 220.863281 142.152344 L 220.863281 153.605469 L 223.285156 153.605469 L 223.285156 141.5625 C 223.285156 140.519531 223.167969 139.558594 222.917969 138.683594 C 222.675781 137.804688 222.285156 137.039063 221.761719 136.386719 C 221.226563 135.734375 220.535156 135.230469 219.683594 134.867188 C 218.832031 134.511719 217.808594 134.324219 216.597656 134.320313 C 215.585938 134.324219 214.71875 134.441406 214.003906 134.675781 C 213.285156 134.902344 212.683594 135.207031 212.203125 135.582031 C 211.714844 135.957031 211.324219 136.371094 211.011719 136.8125 C 210.703125 137.257813 210.453125 137.695313 210.257813 138.125 L 210.179688 138.125 L 210.179688 134.761719 L 207.835938 134.761719 C 207.910156 135.519531 207.957031 136.265625 207.96875 137.003906 C 207.988281 137.742188 207.992188 138.476563 207.988281 139.195313 Z M 230.855469 144.183594 C 230.847656 143.445313 230.90625 142.707031 231.015625 141.960938 C 231.125 141.214844 231.3125 140.507813 231.574219 139.832031 C 231.828125 139.160156 232.183594 138.554688 232.625 138.03125 C 233.066406 137.503906 233.621094 137.085938 234.28125 136.78125 C 234.949219 136.472656 235.742188 136.320313 236.660156 136.316406 C 237.761719 136.320313 238.683594 136.515625 239.433594 136.90625 C 240.175781 137.292969 240.769531 137.84375 241.21875 138.542969 C 241.660156 139.25 241.980469 140.082031 242.179688 141.039063 C 242.371094 141.992188 242.46875 143.042969 242.460938 144.183594 C 242.460938 144.878906 242.398438 145.574219 242.261719 146.277344 C 242.128906 146.980469 241.917969 147.644531 241.628906 148.285156 C 241.339844 148.917969 240.964844 149.484375 240.496094 149.984375 C 240.027344 150.484375 239.46875 150.878906 238.804688 151.167969 C 238.144531 151.457031 237.382813 151.605469 236.503906 151.609375 C 235.480469 151.597656 234.609375 151.390625 233.886719 150.96875 C 233.167969 150.550781 232.585938 149.992188 232.136719 149.28125 C 231.695313 148.574219 231.367188 147.78125 231.15625 146.90625 C 230.953125 146.027344 230.855469 145.121094 230.855469 144.183594 Z M 244.882813 134.761719 L 242.460938 134.761719 L 242.460938 136.90625 L 242.386719 136.90625 C 241.789063 136.160156 241.1875 135.605469 240.578125 135.230469 C 239.96875 134.863281 239.316406 134.609375 238.617188 134.492188 C 237.921875 134.367188 237.140625 134.304688 236.273438 134.320313 C 234.832031 134.324219 233.601563 134.574219 232.578125 135.050781 C 231.558594 135.539063 230.722656 136.222656 230.082031 137.101563 C 229.433594 137.984375 228.960938 139.023438 228.652344 140.226563 C 228.351563 141.425781 228.203125 142.742188 228.203125 144.183594 C 228.203125 145.027344 228.285156 145.890625 228.460938 146.765625 C 228.640625 147.644531 228.921875 148.488281 229.304688 149.300781 C 229.695313 150.113281 230.214844 150.847656 230.847656 151.492188 C 231.488281 152.140625 232.277344 152.652344 233.199219 153.027344 C 234.128906 153.402344 235.21875 153.601563 236.464844 153.605469 C 237.304688 153.613281 238.09375 153.496094 238.832031 153.253906 C 239.574219 153.015625 240.246094 152.625 240.855469 152.085938 C 241.460938 151.542969 241.988281 150.816406 242.421875 149.910156 L 242.5 149.910156 C 242.507813 150.984375 242.476563 152 242.398438 152.960938 C 242.320313 153.925781 242.15625 154.8125 241.910156 155.621094 C 241.667969 156.425781 241.300781 157.121094 240.808594 157.71875 C 240.316406 158.308594 239.65625 158.773438 238.832031 159.097656 C 238.003906 159.425781 236.972656 159.585938 235.738281 159.589844 C 235.023438 159.589844 234.328125 159.53125 233.636719 159.414063 C 232.941406 159.296875 232.285156 159.136719 231.660156 158.933594 C 231.042969 158.734375 230.476563 158.511719 229.972656 158.261719 L 229.78125 160.589844 C 230.117188 160.695313 230.585938 160.820313 231.1875 160.976563 C 231.785156 161.128906 232.46875 161.273438 233.238281 161.394531 C 234.011719 161.511719 234.832031 161.578125 235.699219 161.585938 C 237.375 161.578125 238.796875 161.328125 239.96875 160.835938 C 241.144531 160.34375 242.089844 159.660156 242.816406 158.789063 C 243.539063 157.914063 244.0625 156.90625 244.398438 155.753906 C 244.722656 154.609375 244.890625 153.371094 244.882813 152.054688 Z M 261.984375 153.605469 L 264.367188 153.605469 C 264.304688 153.175781 264.257813 152.753906 264.234375 152.34375 C 264.207031 151.929688 264.1875 151.5 264.183594 151.0625 C 264.175781 150.625 264.175781 150.152344 264.175781 149.652344 L 264.175781 141.339844 C 264.183594 139.707031 263.945313 138.371094 263.472656 137.335938 C 262.992188 136.300781 262.246094 135.539063 261.234375 135.046875 C 260.21875 134.558594 258.90625 134.3125 257.296875 134.320313 C 256.863281 134.320313 256.386719 134.355469 255.875 134.421875 C 255.367188 134.492188 254.851563 134.585938 254.332031 134.703125 C 253.804688 134.824219 253.300781 134.960938 252.820313 135.113281 C 252.339844 135.269531 251.910156 135.433594 251.53125 135.613281 L 251.53125 137.867188 C 252.4375 137.320313 253.363281 136.917969 254.332031 136.671875 C 255.292969 136.433594 256.277344 136.308594 257.296875 136.316406 C 258.378906 136.316406 259.25 136.492188 259.902344 136.855469 C 260.558594 137.214844 261.03125 137.753906 261.328125 138.46875 C 261.621094 139.191406 261.761719 140.082031 261.753906 141.15625 L 261.753906 142.113281 L 261.292969 142.113281 C 260.441406 142.109375 259.558594 142.128906 258.644531 142.164063 C 257.71875 142.207031 256.808594 142.292969 255.914063 142.421875 C 255.011719 142.558594 254.160156 142.769531 253.355469 143.050781 C 252.558594 143.335938 251.847656 143.722656 251.230469 144.207031 C 250.609375 144.691406 250.125 145.304688 249.769531 146.042969 C 249.414063 146.78125 249.230469 147.679688 249.226563 148.726563 C 249.21875 149.074219 249.265625 149.480469 249.359375 149.9375 C 249.457031 150.390625 249.636719 150.859375 249.894531 151.332031 C 250.15625 151.8125 250.519531 152.257813 251 152.664063 C 251.480469 153.078125 252.109375 153.410156 252.871094 153.660156 C 253.640625 153.914063 254.574219 154.042969 255.683594 154.050781 C 256.292969 154.050781 256.90625 153.976563 257.527344 153.820313 C 258.144531 153.671875 258.738281 153.453125 259.300781 153.15625 C 259.863281 152.867188 260.371094 152.503906 260.828125 152.074219 C 261.273438 151.632813 261.632813 151.144531 261.910156 150.578125 L 261.984375 150.578125 Z M 261.753906 145.253906 C 261.761719 145.675781 261.742188 146.167969 261.699219 146.738281 C 261.652344 147.320313 261.535156 147.910156 261.351563 148.527344 C 261.164063 149.140625 260.863281 149.714844 260.457031 150.242188 C 260.039063 150.777344 259.46875 151.210938 258.738281 151.542969 C 258.015625 151.875 257.085938 152.039063 255.953125 152.054688 C 255.203125 152.058594 254.519531 151.949219 253.902344 151.722656 C 253.292969 151.5 252.800781 151.136719 252.441406 150.636719 C 252.078125 150.140625 251.882813 149.472656 251.878906 148.65625 C 251.882813 147.828125 252.070313 147.144531 252.429688 146.589844 C 252.792969 146.042969 253.28125 145.601563 253.902344 145.269531 C 254.523438 144.9375 255.234375 144.683594 256.023438 144.515625 C 256.808594 144.351563 257.636719 144.238281 258.5 144.183594 C 259.367188 144.128906 260.21875 144.105469 261.0625 144.109375 L 261.753906 144.109375 Z M 269.941406 153.605469 L 272.363281 153.605469 L 272.363281 143.1875 C 272.363281 142.550781 272.417969 141.914063 272.539063 141.265625 C 272.664063 140.621094 272.863281 140.003906 273.128906 139.410156 C 273.40625 138.820313 273.765625 138.292969 274.214844 137.828125 C 274.660156 137.363281 275.210938 136.996094 275.863281 136.726563 C 276.519531 136.457031 277.28125 136.320313 278.164063 136.316406 C 279.273438 136.320313 280.167969 136.5625 280.855469 137.039063 C 281.539063 137.515625 282.039063 138.191406 282.355469 139.0625 C 282.667969 139.933594 282.820313 140.964844 282.816406 142.152344 L 282.816406 153.605469 L 285.238281 153.605469 L 285.238281 141.5625 C 285.238281 140.519531 285.121094 139.558594 284.871094 138.683594 C 284.628906 137.804688 284.238281 137.039063 283.710938 136.386719 C 283.179688 135.734375 282.488281 135.230469 281.636719 134.867188 C 280.785156 134.511719 279.757813 134.324219 278.546875 134.320313 C 277.535156 134.324219 276.671875 134.441406 275.957031 134.675781 C 275.238281 134.902344 274.636719 135.207031 274.15625 135.582031 C 273.667969 135.957031 273.277344 136.371094 272.964844 136.8125 C 272.65625 137.257813 272.40625 137.695313 272.207031 138.125 L 272.132813 138.125 L 272.132813 134.761719 L 269.785156 134.761719 C 269.863281 135.519531 269.910156 136.265625 269.921875 137.003906 C 269.941406 137.742188 269.945313 138.476563 269.941406 139.195313 Z M 301.261719 152.941406 C 301.972656 153.242188 302.839844 153.5 303.851563 153.714844 C 304.867188 153.925781 306.027344 154.035156 307.335938 154.050781 C 308.175781 154.050781 309.007813 153.960938 309.847656 153.789063 C 310.679688 153.617188 311.472656 153.351563 312.230469 152.988281 C 312.976563 152.621094 313.652344 152.152344 314.234375 151.585938 C 314.824219 151.011719 315.285156 150.324219 315.617188 149.53125 C 315.957031 148.726563 316.128906 147.8125 316.136719 146.769531 C 316.128906 145.835938 315.949219 144.996094 315.609375 144.269531 C 315.265625 143.542969 314.796875 142.898438 314.214844 142.324219 C 313.632813 141.757813 312.972656 141.246094 312.246094 140.792969 C 311.519531 140.328125 310.761719 139.90625 309.988281 139.511719 C 309.210938 139.117188 308.457031 138.726563 307.726563 138.339844 C 307.003906 137.957031 306.34375 137.558594 305.761719 137.140625 C 305.175781 136.714844 304.710938 136.253906 304.363281 135.75 C 304.023438 135.242188 303.84375 134.664063 303.839844 134.023438 C 303.84375 133.191406 304.019531 132.496094 304.355469 131.929688 C 304.691406 131.355469 305.136719 130.902344 305.703125 130.558594 C 306.265625 130.21875 306.886719 129.964844 307.566406 129.8125 C 308.25 129.664063 308.945313 129.585938 309.640625 129.589844 C 310.25 129.589844 310.851563 129.628906 311.445313 129.703125 C 312.042969 129.769531 312.601563 129.878906 313.132813 130.019531 C 313.65625 130.164063 314.117188 130.339844 314.523438 130.550781 L 314.945313 128.222656 C 314.324219 128 313.6875 127.828125 313.046875 127.707031 C 312.40625 127.582031 311.800781 127.496094 311.21875 127.445313 C 310.632813 127.398438 310.121094 127.375 309.679688 127.375 C 308.488281 127.375 307.386719 127.535156 306.355469 127.839844 C 305.332031 128.148438 304.433594 128.597656 303.65625 129.183594 C 302.890625 129.769531 302.28125 130.46875 301.84375 131.300781 C 301.417969 132.128906 301.191406 133.058594 301.1875 134.097656 C 301.191406 134.941406 301.371094 135.691406 301.71875 136.363281 C 302.058594 137.035156 302.523438 137.644531 303.109375 138.179688 C 303.691406 138.722656 304.351563 139.222656 305.082031 139.671875 C 305.804688 140.125 306.558594 140.558594 307.335938 140.957031 C 308.109375 141.363281 308.867188 141.769531 309.597656 142.164063 C 310.320313 142.5625 310.980469 142.984375 311.5625 143.421875 C 312.144531 143.851563 312.613281 144.324219 312.960938 144.835938 C 313.296875 145.347656 313.476563 145.921875 313.484375 146.550781 C 313.476563 147.460938 313.316406 148.253906 313.003906 148.917969 C 312.695313 149.585938 312.261719 150.132813 311.710938 150.5625 C 311.152344 150.996094 310.511719 151.316406 309.789063 151.523438 C 309.0625 151.726563 308.28125 151.832031 307.449219 151.832031 C 306.207031 151.832031 305.105469 151.695313 304.144531 151.4375 C 303.183594 151.171875 302.3125 150.804688 301.53125 150.316406 Z M 334.351563 150.648438 C 334.058594 150.828125 333.691406 151 333.257813 151.167969 C 332.820313 151.332031 332.347656 151.480469 331.835938 151.617188 C 331.324219 151.746094 330.816406 151.855469 330.296875 151.929688 C 329.785156 152.011719 329.304688 152.054688 328.855469 152.054688 C 327.800781 152.046875 326.871094 151.855469 326.0625 151.488281 C 325.261719 151.117188 324.585938 150.605469 324.039063 149.949219 C 323.5 149.289063 323.089844 148.527344 322.816406 147.65625 C 322.539063 146.789063 322.402344 145.851563 322.402344 144.847656 L 335.8125 144.847656 L 335.8125 143.667969 C 335.8125 142.390625 335.664063 141.191406 335.371094 140.070313 C 335.078125 138.949219 334.613281 137.957031 333.988281 137.097656 C 333.359375 136.234375 332.550781 135.558594 331.566406 135.070313 C 330.578125 134.578125 329.394531 134.324219 328.011719 134.320313 C 326.769531 134.324219 325.640625 134.574219 324.628906 135.050781 C 323.617188 135.53125 322.746094 136.210938 322.023438 137.089844 C 321.292969 137.96875 320.734375 139.011719 320.34375 140.210938 C 319.953125 141.414063 319.753906 142.738281 319.75 144.183594 C 319.742188 145.605469 319.902344 146.914063 320.226563 148.113281 C 320.554688 149.308594 321.066406 150.347656 321.773438 151.234375 C 322.476563 152.121094 323.390625 152.8125 324.53125 153.304688 C 325.664063 153.789063 327.042969 154.042969 328.664063 154.050781 C 329.273438 154.050781 329.90625 154.007813 330.566406 153.925781 C 331.226563 153.84375 331.878906 153.726563 332.527344 153.582031 C 333.171875 153.425781 333.78125 153.238281 334.351563 153.015625 Z M 322.402344 142.855469 C 322.402344 142.066406 322.535156 141.289063 322.796875 140.519531 C 323.058594 139.757813 323.445313 139.054688 323.945313 138.421875 C 324.445313 137.785156 325.046875 137.28125 325.757813 136.898438 C 326.46875 136.515625 327.269531 136.320313 328.164063 136.316406 C 329.066406 136.320313 329.835938 136.503906 330.46875 136.875 C 331.105469 137.238281 331.625 137.730469 332.019531 138.351563 C 332.417969 138.96875 332.707031 139.671875 332.890625 140.445313 C 333.070313 141.222656 333.160156 142.023438 333.160156 142.855469 Z M 348.878906 134.761719 L 344.421875 134.761719 L 344.421875 129.40625 L 342 130.21875 L 342 134.761719 L 338.15625 134.761719 L 338.15625 136.757813 L 342 136.757813 L 342 147.769531 C 341.988281 148.628906 342.019531 149.441406 342.089844 150.199219 C 342.160156 150.957031 342.339844 151.621094 342.613281 152.195313 C 342.890625 152.773438 343.339844 153.222656 343.945313 153.550781 C 344.554688 153.875 345.394531 154.042969 346.457031 154.050781 C 346.859375 154.050781 347.246094 154.019531 347.625 153.960938 C 348 153.90625 348.347656 153.84375 348.660156 153.765625 C 348.96875 153.6875 349.21875 153.605469 349.417969 153.53125 L 349.261719 151.609375 C 348.921875 151.738281 348.582031 151.851563 348.230469 151.929688 C 347.886719 152.011719 347.488281 152.054688 347.035156 152.054688 C 346.386719 152.046875 345.867188 151.90625 345.484375 151.628906 C 345.097656 151.351563 344.832031 150.976563 344.664063 150.507813 C 344.496094 150.046875 344.414063 149.523438 344.421875 148.949219 L 344.421875 136.757813 L 348.878906 136.757813 Z M 368.519531 134.761719 L 366.097656 134.761719 L 366.097656 145.179688 C 366.097656 145.816406 366.039063 146.457031 365.917969 147.101563 C 365.796875 147.75 365.597656 148.367188 365.328125 148.957031 C 365.050781 149.546875 364.695313 150.078125 364.246094 150.539063 C 363.796875 151.007813 363.246094 151.371094 362.59375 151.640625 C 361.9375 151.914063 361.175781 152.046875 360.292969 152.054688 C 359.183594 152.046875 358.289063 151.808594 357.601563 151.328125 C 356.917969 150.851563 356.417969 150.175781 356.105469 149.308594 C 355.789063 148.433594 355.636719 147.40625 355.644531 146.214844 L 355.644531 134.761719 L 353.222656 134.761719 L 353.222656 146.808594 C 353.222656 147.847656 353.34375 148.808594 353.585938 149.683594 C 353.832031 150.5625 354.21875 151.328125 354.75 151.980469 C 355.277344 152.632813 355.96875 153.136719 356.820313 153.5 C 357.671875 153.859375 358.699219 154.042969 359.910156 154.050781 C 360.921875 154.042969 361.785156 153.925781 362.503906 153.691406 C 363.21875 153.464844 363.824219 153.160156 364.300781 152.78125 C 364.789063 152.40625 365.179688 152 365.492188 151.554688 C 365.800781 151.109375 366.050781 150.675781 366.25 150.242188 L 366.328125 150.242188 L 366.328125 153.605469 L 368.671875 153.605469 C 368.601563 152.847656 368.554688 152.097656 368.535156 151.359375 C 368.523438 150.621094 368.519531 149.890625 368.519531 149.171875 Z M 374.589844 153.605469 L 377.011719 153.605469 L 377.011719 125.894531 L 374.589844 125.894531 Z M 398.417969 134.761719 L 395.996094 134.761719 L 395.996094 145.179688 C 395.996094 145.816406 395.9375 146.457031 395.816406 147.101563 C 395.695313 147.75 395.496094 148.367188 395.226563 148.957031 C 394.953125 149.546875 394.59375 150.078125 394.144531 150.539063 C 393.699219 151.007813 393.144531 151.371094 392.492188 151.640625 C 391.839844 151.914063 391.078125 152.046875 390.191406 152.054688 C 389.085938 152.046875 388.1875 151.808594 387.503906 151.328125 C 386.816406 150.851563 386.320313 150.175781 386.003906 149.308594 C 385.691406 148.433594 385.535156 147.40625 385.542969 146.214844 L 385.542969 134.761719 L 383.121094 134.761719 L 383.121094 146.808594 C 383.121094 147.847656 383.242188 148.808594 383.488281 149.683594 C 383.730469 150.5625 384.121094 151.328125 384.652344 151.980469 C 385.179688 152.632813 385.871094 153.136719 386.722656 153.5 C 387.574219 153.859375 388.597656 154.042969 389.808594 154.050781 C 390.820313 154.042969 391.6875 153.925781 392.402344 153.691406 C 393.121094 153.464844 393.722656 153.160156 394.203125 152.78125 C 394.691406 152.40625 395.082031 152 395.394531 151.554688 C 395.703125 151.109375 395.953125 150.675781 396.152344 150.242188 L 396.226563 150.242188 L 396.226563 153.605469 L 398.570313 153.605469 C 398.5 152.847656 398.457031 152.097656 398.4375 151.359375 C 398.425781 150.621094 398.417969 149.890625 398.417969 149.171875 Z M 402.761719 153.160156 C 403.632813 153.488281 404.527344 153.722656 405.453125 153.851563 C 406.375 153.988281 407.316406 154.054688 408.257813 154.050781 C 408.851563 154.050781 409.472656 153.992188 410.109375 153.875 C 410.734375 153.761719 411.351563 153.570313 411.945313 153.308594 C 412.535156 153.058594 413.066406 152.71875 413.542969 152.300781 C 414.015625 151.882813 414.394531 151.375 414.667969 150.777344 C 414.949219 150.179688 415.089844 149.484375 415.097656 148.691406 C 415.089844 147.816406 414.914063 147.058594 414.566406 146.417969 C 414.214844 145.785156 413.757813 145.238281 413.183594 144.773438 C 412.613281 144.3125 411.984375 143.914063 411.300781 143.566406 C 410.613281 143.230469 409.933594 142.910156 409.25 142.621094 C 408.5625 142.332031 407.9375 142.035156 407.367188 141.738281 C 406.789063 141.445313 406.335938 141.109375 405.984375 140.75 C 405.636719 140.378906 405.457031 139.945313 405.453125 139.457031 C 405.457031 138.660156 405.636719 138.03125 405.988281 137.570313 C 406.347656 137.113281 406.839844 136.789063 407.476563 136.589844 C 408.101563 136.398438 408.839844 136.308594 409.679688 136.316406 C 410.132813 136.316406 410.613281 136.351563 411.121094 136.417969 C 411.625 136.492188 412.132813 136.589844 412.632813 136.726563 C 413.132813 136.855469 413.59375 137.015625 414.023438 137.203125 L 414.253906 135.167969 C 413.667969 134.960938 413.066406 134.792969 412.457031 134.671875 C 411.851563 134.546875 411.273438 134.457031 410.742188 134.398438 C 410.210938 134.34375 409.761719 134.320313 409.410156 134.320313 C 408.597656 134.320313 407.808594 134.410156 407.050781 134.597656 C 406.296875 134.78125 405.609375 135.082031 405.007813 135.488281 C 404.40625 135.894531 403.925781 136.425781 403.574219 137.078125 C 403.222656 137.730469 403.035156 138.527344 403.03125 139.457031 C 403.035156 140.230469 403.214844 140.894531 403.554688 141.457031 C 403.890625 142.011719 404.335938 142.492188 404.902344 142.898438 C 405.457031 143.296875 406.066406 143.660156 406.738281 143.980469 C 407.40625 144.296875 408.070313 144.601563 408.742188 144.898438 C 409.410156 145.199219 410.023438 145.519531 410.582031 145.859375 C 411.140625 146.203125 411.585938 146.605469 411.925781 147.058594 C 412.265625 147.515625 412.441406 148.058594 412.445313 148.691406 C 412.441406 149.226563 412.324219 149.707031 412.09375 150.121094 C 411.863281 150.539063 411.542969 150.890625 411.140625 151.179688 C 410.734375 151.460938 410.273438 151.683594 409.757813 151.832031 C 409.238281 151.980469 408.6875 152.054688 408.101563 152.054688 C 407.15625 152.046875 406.25 151.9375 405.386719 151.726563 C 404.523438 151.511719 403.726563 151.226563 402.992188 150.871094 Z M 430.46875 153.605469 L 433.121094 153.605469 L 433.121094 141.449219 L 446.6875 141.449219 L 446.6875 153.605469 L 449.339844 153.605469 L 449.339844 127.816406 L 446.6875 127.816406 L 446.6875 139.234375 L 433.121094 139.234375 L 433.121094 127.816406 L 430.46875 127.816406 Z M 430.46875 153.605469 "/>
</g>
<path style=" stroke:none;fill-rule:evenodd;fill:rgb(0%,31.37207%,57.617188%);fill-opacity:1;" d="M 467.019531 153.605469 L 469.402344 153.605469 C 469.335938 153.175781 469.292969 152.753906 469.265625 152.34375 C 469.242188 151.929688 469.222656 151.5 469.214844 151.0625 C 469.210938 150.625 469.210938 150.152344 469.210938 149.652344 L 469.210938 141.339844 C 469.214844 139.707031 468.980469 138.371094 468.503906 137.335938 C 468.023438 136.300781 467.28125 135.539063 466.269531 135.046875 C 465.25 134.558594 463.9375 134.3125 462.332031 134.320313 C 461.894531 134.320313 461.421875 134.355469 460.910156 134.421875 C 460.402344 134.492188 459.882813 134.585938 459.363281 134.703125 C 458.839844 134.824219 458.332031 134.960938 457.851563 135.113281 C 457.375 135.269531 456.945313 135.433594 456.566406 135.613281 L 456.566406 137.867188 C 457.46875 137.320313 458.398438 136.917969 459.363281 136.671875 C 460.324219 136.433594 461.3125 136.308594 462.332031 136.316406 C 463.414063 136.316406 464.285156 136.492188 464.9375 136.855469 C 465.589844 137.214844 466.066406 137.753906 466.359375 138.46875 C 466.652344 139.191406 466.796875 140.082031 466.789063 141.15625 L 466.789063 142.113281 L 466.328125 142.113281 C 465.476563 142.109375 464.59375 142.128906 463.675781 142.164063 C 462.753906 142.207031 461.84375 142.292969 460.945313 142.421875 C 460.042969 142.558594 459.191406 142.769531 458.390625 143.050781 C 457.589844 143.335938 456.878906 143.722656 456.265625 144.207031 C 455.644531 144.691406 455.15625 145.304688 454.804688 146.042969 C 454.445313 146.78125 454.265625 147.679688 454.261719 148.726563 C 454.253906 149.074219 454.296875 149.480469 454.394531 149.9375 C 454.492188 150.390625 454.667969 150.859375 454.925781 151.332031 C 455.1875 151.8125 455.554688 152.257813 456.035156 152.664063 C 456.515625 153.078125 457.144531 153.410156 457.90625 153.660156 C 458.671875 153.914063 459.609375 154.042969 460.714844 154.050781 C 461.324219 154.050781 461.941406 153.976563 462.5625 153.820313 C 463.175781 153.671875 463.773438 153.453125 464.335938 153.15625 C 464.898438 152.867188 465.40625 152.503906 465.859375 152.074219 C 466.308594 151.632813 466.667969 151.144531 466.941406 150.578125 L 467.019531 150.578125 Z M 466.789063 145.253906 C 466.796875 145.675781 466.777344 146.167969 466.730469 146.738281 C 466.6875 147.320313 466.570313 147.910156 466.386719 148.527344 C 466.199219 149.140625 465.898438 149.714844 465.488281 150.242188 C 465.070313 150.777344 464.5 151.210938 463.773438 151.542969 C 463.046875 151.875 462.117188 152.039063 460.984375 152.054688 C 460.234375 152.058594 459.550781 151.949219 458.933594 151.722656 C 458.328125 151.5 457.832031 151.136719 457.476563 150.636719 C 457.109375 150.140625 456.917969 149.472656 456.910156 148.65625 C 456.917969 147.828125 457.105469 147.144531 457.460938 146.589844 C 457.828125 146.042969 458.316406 145.601563 458.933594 145.269531 C 459.558594 144.9375 460.269531 144.683594 461.054688 144.515625 C 461.84375 144.351563 462.671875 144.238281 463.535156 144.183594 C 464.398438 144.128906 465.25 144.105469 466.097656 144.109375 L 466.789063 144.109375 Z M 483.429688 134.761719 L 478.972656 134.761719 L 478.972656 129.40625 L 476.550781 130.21875 L 476.550781 134.761719 L 472.707031 134.761719 L 472.707031 136.757813 L 476.550781 136.757813 L 476.550781 147.769531 C 476.535156 148.628906 476.570313 149.441406 476.640625 150.199219 C 476.710938 150.957031 476.890625 151.621094 477.164063 152.195313 C 477.441406 152.773438 477.886719 153.222656 478.496094 153.550781 C 479.105469 153.875 479.945313 154.042969 481.007813 154.050781 C 481.410156 154.050781 481.796875 154.019531 482.171875 153.960938 C 482.550781 153.90625 482.898438 153.84375 483.210938 153.765625 C 483.519531 153.6875 483.769531 153.605469 483.96875 153.53125 L 483.8125 151.609375 C 483.472656 151.738281 483.132813 151.851563 482.78125 151.929688 C 482.4375 152.011719 482.039063 152.054688 481.585938 152.054688 C 480.9375 152.046875 480.417969 151.90625 480.035156 151.628906 C 479.648438 151.351563 479.382813 150.976563 479.214844 150.507813 C 479.046875 150.046875 478.964844 149.523438 478.972656 148.949219 L 478.972656 136.757813 L 483.429688 136.757813 Z M 487.773438 153.605469 L 490.191406 153.605469 L 490.191406 134.761719 L 487.773438 134.761719 Z M 490.191406 126.632813 L 487.773438 126.632813 L 487.773438 129.738281 L 490.191406 129.738281 Z M 490.191406 126.632813 "/>
<path style=" stroke:none;fill-rule:evenodd;fill:rgb(0%,31.37207%,57.617188%);fill-opacity:1;" d="M 318.839844 30.289063 L 334.46875 30.289063 L 334.46875 52.703125 L 353.992188 30.289063 L 372.597656 30.289063 L 351.246094 54.15625 L 373.625 81.800781 L 353.800781 81.800781 L 334.46875 57.699219 L 334.46875 81.800781 L 318.839844 81.800781 Z M 256.777344 30.289063 L 278.355469 30.289063 L 297.039063 68.355469 L 297.039063 30.289063 L 310.839844 30.289063 L 310.839844 81.800781 L 289.183594 81.800781 L 270.578125 43.167969 L 270.578125 81.800781 L 256.777344 81.800781 Z M 211.03125 30.289063 L 231.027344 30.289063 L 254.300781 81.800781 L 235.617188 81.800781 L 231.683594 70.578125 L 208.492188 70.578125 L 204.640625 81.800781 L 187.183594 81.800781 Z M 227.175781 61.667969 L 220.128906 40.890625 L 212.34375 61.667969 Z M 138.914063 30.289063 L 164.292969 30.289063 C 165.234375 30.335938 166.703125 30.40625 168.695313 30.503906 C 170.683594 30.597656 172.753906 30.929688 174.902344 31.5 C 177.679688 32.210938 180.230469 33.441406 182.5625 35.199219 C 184.894531 36.953125 186.21875 39.632813 186.53125 43.238281 C 186.53125 43.332031 186.53125 43.417969 186.53125 43.488281 C 186.53125 43.558594 186.558594 43.640625 186.609375 43.738281 C 186.609375 43.832031 186.609375 43.914063 186.609375 43.984375 C 186.609375 44.058594 186.609375 44.140625 186.609375 44.234375 C 186.609375 47.082031 185.480469 49.511719 183.230469 51.527344 C 180.976563 53.542969 177.964844 54.695313 174.191406 54.976563 C 174.246094 54.976563 174.289063 54.992188 174.3125 55.011719 C 174.339844 55.039063 174.378906 55.050781 174.429688 55.050781 C 177.78125 55.902344 180.847656 57.277344 183.625 59.175781 C 186.398438 61.074219 187.789063 63.964844 187.789063 67.855469 C 187.789063 72.882813 185.808594 76.464844 181.855469 78.601563 C 177.902344 80.734375 172.046875 81.800781 164.292969 81.800781 L 138.914063 81.800781 Z M 155.023438 71.699219 L 163.664063 71.699219 C 166.023438 71.746094 167.75 71.355469 168.851563 70.523438 C 169.953125 69.695313 170.632813 68.78125 170.894531 67.785156 C 170.945313 67.59375 170.988281 67.417969 171.011719 67.25 C 171.039063 67.085938 171.050781 66.90625 171.050781 66.71875 C 171.050781 66.433594 171.027344 66.136719 170.972656 65.828125 C 170.921875 65.519531 170.816406 65.199219 170.660156 64.867188 C 170.292969 63.964844 169.597656 63.125 168.574219 62.34375 C 167.554688 61.558594 166.128906 61.167969 164.292969 61.167969 L 155.023438 61.097656 Z M 155.023438 50.425781 L 163.039063 50.425781 C 165.5 50.472656 167.253906 50.070313 168.300781 49.214844 C 169.351563 48.359375 169.871094 47.105469 169.871094 45.445313 C 169.871094 44.070313 169.269531 42.882813 168.066406 41.886719 C 166.859375 40.890625 165.183594 40.390625 163.039063 40.390625 L 155.023438 40.320313 Z M 155.023438 50.425781 "/>
<g clip-path="url(#clip2)" clip-rule="nonzero">
<path style=" stroke:none;fill-rule:evenodd;fill:rgb(0%,31.37207%,57.617188%);fill-opacity:1;" d="M 519.570313 30.289063 L 535.808594 30.289063 L 535.808594 81.800781 L 519.570313 81.800781 Z M 460.683594 30.289063 L 486.273438 30.289063 C 486.539063 30.335938 486.789063 30.359375 487.027344 30.359375 C 487.265625 30.359375 487.515625 30.359375 487.777344 30.359375 C 493.167969 30.457031 498.105469 31.378906 502.59375 33.136719 C 507.082031 34.890625 509.332031 38.449219 509.332031 43.808594 C 509.332031 47.980469 507.980469 51.03125 505.289063 52.953125 C 502.59375 54.871094 499.371094 56.117188 495.621094 56.6875 C 501.273438 56.875 504.773438 58.582031 506.121094 61.808594 C 508.878906 68.414063 511.296875 75.378906 513.945313 81.800781 L 496.515625 81.800781 C 494.222656 77.152344 492.164063 70.625 490.3125 65.648438 C 489.46875 63.371094 487.488281 62.234375 484.371094 62.234375 L 476.925781 62.164063 L 476.925781 81.800781 L 460.683594 81.800781 Z M 476.925781 40.890625 L 476.925781 52.132813 L 483.183594 52.132813 C 483.449219 52.179688 483.699219 52.203125 483.9375 52.203125 C 484.171875 52.203125 484.425781 52.203125 484.691406 52.203125 C 486.644531 52.109375 488.441406 51.707031 490.078125 50.992188 C 491.714844 50.28125 492.53125 48.8125 492.53125 46.582031 C 492.53125 44.636719 491.6875 43.214844 490 42.3125 C 488.308594 41.414063 486.222656 40.960938 483.738281 40.960938 Z M 403.957031 30.289063 L 429.546875 30.289063 C 430.5 30.335938 431.976563 30.40625 433.984375 30.503906 C 435.992188 30.597656 438.078125 30.929688 440.242188 31.5 C 443.042969 32.210938 445.617188 33.441406 447.96875 35.199219 C 450.320313 36.953125 451.652344 39.632813 451.96875 43.238281 C 451.96875 43.332031 451.96875 43.417969 451.96875 43.488281 C 451.96875 43.558594 451.996094 43.640625 452.046875 43.738281 C 452.046875 43.832031 452.046875 43.914063 452.046875 43.984375 C 452.046875 44.058594 452.046875 44.140625 452.046875 44.234375 C 452.046875 47.082031 450.914063 49.511719 448.640625 51.527344 C 446.371094 53.542969 443.335938 54.695313 439.53125 54.976563 C 439.582031 54.976563 439.625 54.992188 439.648438 55.011719 C 439.675781 55.039063 439.714844 55.050781 439.769531 55.050781 C 443.148438 55.902344 446.238281 57.277344 449.039063 59.175781 C 451.835938 61.074219 453.234375 63.964844 453.234375 67.855469 C 453.234375 72.882813 451.242188 76.464844 447.253906 78.601563 C 443.269531 80.734375 437.367188 81.800781 429.546875 81.800781 L 403.957031 81.800781 Z M 420.199219 71.699219 L 428.914063 71.699219 C 431.292969 71.746094 433.035156 71.355469 434.140625 70.523438 C 435.253906 69.695313 435.941406 68.78125 436.203125 67.785156 C 436.257813 67.59375 436.296875 67.417969 436.320313 67.25 C 436.347656 67.085938 436.359375 66.90625 436.359375 66.71875 C 436.359375 66.433594 436.335938 66.136719 436.28125 65.828125 C 436.230469 65.519531 436.121094 65.199219 435.964844 64.867188 C 435.597656 63.964844 434.894531 63.125 433.867188 62.34375 C 432.835938 61.558594 431.394531 61.167969 429.546875 61.167969 L 420.199219 61.097656 Z M 420.199219 50.425781 L 428.28125 50.425781 C 430.761719 50.472656 432.53125 50.070313 433.589844 49.214844 C 434.644531 48.359375 435.175781 47.105469 435.175781 45.445313 C 435.175781 44.070313 434.566406 42.882813 433.351563 41.886719 C 432.136719 40.890625 430.445313 40.390625 428.28125 40.390625 L 420.199219 40.320313 Z M 420.199219 50.425781 "/>
</g>
</g>
</svg>
