<?xml version="1.0" standalone="no"?>
<!DOCTYPE svg PUBLIC "-//W3C//DTD SVG 20010904//EN"
 "http://www.w3.org/TR/2001/REC-SVG-20010904/DTD/svg10.dtd">
<svg version="1.0" xmlns="http://www.w3.org/2000/svg"
 width="6584.000000pt" height="1200.000000pt" viewBox="0 0 6584.000000 1200.000000"
 preserveAspectRatio="xMidYMid meet">
<g transform="translate(0.000000,1200.000000) scale(0.100000,-0.100000)"
 stroke="none">
<path fill="#E72530" d="M49510 11169 c-311 -81 -647 -377 -997 -879 -229 -329 -620 -952
-907 -1444 -420 -720 -725 -1284 -1104 -2046 -141 -283 -330 -648 -420 -810
-748 -1343 -1011 -1999 -1147 -2868 -123 -778 26 -1273 469 -1560 284 -184
670 -206 1033 -58 258 105 536 330 763 616 88 110 259 366 374 558 253 423
308 720 154 832 -88 64 -179 65 -305 6 -139 -67 -268 -170 -498 -401 -257
-257 -415 -347 -531 -300 -68 27 -82 79 -60 217 36 219 134 499 391 1113 62
149 154 371 205 495 464 1133 1105 2363 1990 3815 306 502 356 580 636 996
256 382 520 792 599 933 139 248 157 447 54 577 -31 40 -146 122 -226 162
-134 68 -320 86 -473 46z"/>
<path fill="#771418" d="M5260 10449 c-1244 -86 -2290 -611 -3012 -1513 -196 -244 -350 -488
-498 -791 -195 -397 -319 -763 -414 -1220 -151 -728 -153 -1592 -6 -2325 244
-1215 885 -2213 1815 -2825 607 -399 1291 -624 2084 -685 172 -13 600 -13 767
0 1262 99 2293 688 2922 1670 253 396 438 847 546 1339 38 171 82 440 92 569
l7 82 -956 0 -956 0 -5 -32 c-3 -18 -13 -76 -22 -128 -117 -708 -451 -1264
-944 -1571 -317 -197 -709 -291 -1150 -276 -901 31 -1567 457 -1966 1257 -181
364 -285 747 -346 1275 -20 172 -17 791 5 983 106 931 420 1615 942 2050 277
232 620 385 1007 451 488 84 967 21 1374 -179 524 -258 911 -739 1010 -1258
l18 -92 959 0 959 0 -6 38 c-30 201 -63 376 -96 504 -290 1140 -1065 1994
-2192 2416 -568 214 -1264 307 -1938 261z"/>
<path fill="#E72530" d="M58312 10369 c-34 -4 -70 -10 -80 -13 -35 -12 -313 -436 -506 -774
-236 -412 -438 -814 -836 -1657 -116 -247 -291 -607 -387 -800 -119 -239 -201
-418 -258 -565 -46 -118 -157 -399 -248 -625 -461 -1145 -621 -1677 -701
-2325 -83 -672 -100 -885 -93 -1193 4 -206 9 -259 30 -357 45 -210 113 -350
231 -477 110 -118 236 -199 325 -210 67 -8 112 10 161 63 88 96 134 268 170
634 11 112 47 362 55 388 8 23 119 -73 294 -256 200 -209 297 -289 416 -347
206 -99 496 -128 785 -79 348 60 715 234 1210 573 102 70 277 183 390 251 533
321 763 516 846 718 59 143 8 297 -131 392 -132 91 -286 46 -592 -174 -229
-164 -748 -467 -1095 -641 -186 -92 -266 -120 -808 -284 -201 -61 -405 -124
-454 -141 -50 -16 -93 -30 -97 -30 -10 0 42 193 103 380 105 322 221 589 388
896 353 647 665 1080 1065 1480 291 291 614 548 1506 1200 86 63 181 125 210
138 30 14 122 39 204 56 190 40 264 65 309 102 53 44 70 82 69 161 0 57 -6 79
-37 142 -62 126 -254 309 -399 379 -153 75 -367 51 -662 -73 -308 -130 -543
-291 -920 -631 -250 -225 -413 -363 -775 -659 -583 -476 -842 -696 -1012 -860
-49 -46 -88 -78 -88 -70 0 21 199 611 268 794 92 248 155 392 267 615 56 113
135 282 175 375 93 218 152 333 241 470 40 61 153 240 251 399 262 422 299
480 463 711 359 506 473 709 550 970 32 109 43 262 25 348 -17 83 -89 221
-157 302 -184 219 -435 333 -671 304z"/>
<path fill="#E72530" d="M43135 10291 c-718 -132 -1653 -730 -2965 -1900 -976 -872 -1674
-1709 -2161 -2597 -357 -651 -585 -1319 -666 -1949 -24 -192 -24 -680 0 -838
79 -510 251 -880 547 -1177 216 -216 407 -331 805 -482 350 -134 688 -204
1030 -215 277 -8 471 13 754 83 343 85 650 214 1383 580 559 279 809 424 1583
914 50 32 171 101 270 155 320 174 430 249 552 379 125 131 184 265 185 414 1
95 -13 146 -55 208 -47 70 -109 99 -207 98 -132 -1 -165 -18 -750 -392 -719
-459 -907 -569 -1380 -806 -444 -222 -679 -324 -1205 -523 -560 -212 -715
-263 -943 -309 -684 -138 -1069 111 -1169 758 -24 159 -24 577 1 778 84 690
334 1380 814 2240 388 696 809 1293 1210 1711 276 288 756 718 1077 965 72 55
198 153 280 218 271 213 522 369 677 422 150 51 232 42 297 -32 94 -107 84
-270 -43 -639 -81 -237 -89 -274 -84 -390 3 -76 10 -113 27 -152 29 -65 112
-145 186 -179 121 -56 314 -67 485 -29 93 21 237 89 312 149 228 181 436 621
504 1066 24 155 24 437 0 575 -81 462 -347 775 -751 881 -89 24 -122 27 -300
30 -162 3 -219 0 -300 -15z"/>
<path fill="#771418" d="M11110 5770 l0 -4480 985 0 985 0 0 4480 0 4480 -985 0 -985 0 0
-4480z"/>
<path fill="#771418" d="M15080 5770 l0 -4480 925 0 925 0 0 3140 c0 1869 4 3140 9 3140 5 0
16 -19 24 -42 8 -24 501 -1435 1096 -3136 594 -1702 1081 -3096 1081 -3098 0
-2 344 -4 764 -4 l764 0 15 43 c59 170 2126 6141 2149 6210 16 48 34 87 39 87
5 0 9 -1271 9 -3170 l0 -3170 925 0 925 0 0 4480 0 4480 -1390 0 -1389 0 -67
-207 c-827 -2575 -1914 -5947 -1918 -5951 -3 -3 -7 -3 -9 -1 -2 2 -474 1388
-1049 3079 l-1045 3075 -1392 3 -1391 2 0 -4480z"/>
<path fill="#771418" d="M26730 5770 l0 -4481 2353 4 c2574 4 2402 0 2774 62 564 95 1066 298
1453 589 111 83 304 267 397 378 257 308 426 697 495 1140 19 124 22 182 22
433 0 251 -3 309 -22 434 -80 509 -265 907 -572 1225 -252 261 -550 446 -923
571 l-98 33 111 62 c606 337 948 798 1055 1420 36 209 36 579 0 825 -135 922
-703 1474 -1733 1685 -147 30 -360 59 -587 82 -87 8 -760 12 -2422 15 l-2303
4 0 -4481z m4050 2930 c681 -51 1032 -319 1100 -841 22 -174 4 -404 -45 -554
-50 -153 -125 -274 -231 -376 -145 -138 -312 -220 -549 -270 -162 -33 -351
-39 -1367 -39 l-988 0 0 1045 0 1045 973 0 c559 0 1029 -4 1107 -10z m466
-3458 c300 -58 521 -165 689 -336 215 -216 315 -505 315 -906 0 -604 -287
-973 -866 -1111 -226 -54 -198 -53 -1486 -56 l-1198 -4 0 1221 0 1221 1218 -4
c1196 -3 1219 -4 1328 -25z"/>
<path fill="#E72530" d="M50953 9680 c-91 -13 -183 -41 -183 -56 0 -41 162 -439 251 -617 234
-466 531 -747 935 -886 132 -45 126 -48 119 57 -40 549 -276 1094 -579 1338
-166 133 -354 190 -543 164z"/>
<path fill="#E72530" d="M63990 8504 c-243 -44 -386 -87 -715 -217 -516 -203 -870 -428 -1181
-749 -356 -368 -599 -811 -763 -1390 -100 -356 -133 -550 -134 -788 0 -187 18
-297 72 -435 45 -117 101 -195 204 -287 51 -44 303 -249 560 -455 258 -206
503 -404 545 -440 113 -97 202 -186 202 -201 0 -19 -124 -198 -226 -327 -114
-143 -454 -482 -619 -616 -333 -271 -578 -440 -1255 -862 -511 -319 -507 -316
-591 -395 -94 -88 -132 -156 -132 -236 0 -105 80 -207 211 -269 65 -31 70 -32
202 -31 118 0 147 4 225 28 111 34 321 134 522 250 186 106 970 494 1378 681
611 280 836 406 1084 605 183 148 356 356 427 515 129 292 68 560 -189 831
-164 174 -391 334 -862 609 -566 331 -681 417 -759 564 -51 98 -69 187 -69
351 0 215 47 399 160 624 120 240 267 432 522 686 349 348 779 655 1237 884
174 87 226 105 391 140 184 39 246 68 341 160 69 66 84 95 83 167 0 70 -22
125 -85 213 -94 133 -332 327 -452 371 -48 17 -272 30 -334 19z"/>
<path fill="#E72530" d="M53593 7960 c-197 -20 -401 -102 -583 -236 -199 -145 -479 -475 -735
-864 -577 -878 -1040 -1964 -1180 -2770 -33 -185 -45 -522 -26 -687 38 -319
141 -607 303 -846 82 -121 249 -288 361 -361 169 -112 307 -156 509 -163 195
-7 320 20 518 113 260 123 522 346 1018 869 156 165 416 431 577 590 308 305
386 398 468 554 49 93 58 131 31 131 -35 0 -205 -64 -319 -120 -66 -33 -208
-112 -315 -176 -220 -131 -417 -236 -599 -319 -169 -77 -577 -247 -725 -301
-67 -25 -175 -67 -241 -94 -149 -60 -225 -80 -305 -80 -79 0 -129 15 -175 52
-155 129 -113 455 137 1058 33 80 92 224 130 320 73 184 230 515 319 672 168
299 352 557 582 816 104 117 451 448 540 515 120 92 231 121 350 93 114 -27
199 -78 372 -224 207 -175 346 -253 456 -256 93 -2 133 41 150 161 42 296
-180 735 -565 1118 -136 135 -229 209 -360 283 -208 120 -461 175 -693 152z"/>
<path fill="#E72530" d="M49843 6431 c-153 -57 -264 -199 -375 -481 -227 -572 -238 -604 -522
-1420 -250 -720 -387 -1183 -515 -1740 -51 -221 -131 -616 -131 -645 0 -25
144 -208 212 -269 66 -61 156 -109 242 -131 70 -18 236 -30 252 -18 11 9 541
1079 694 1403 390 824 661 1463 886 2094 145 405 158 577 56 779 -38 76 -61
107 -146 192 -110 110 -208 177 -321 221 -96 37 -254 44 -332 15z"/>
</g>
</svg>
