<?xml version="1.0" encoding="UTF-8"?>
<svg xmlns="http://www.w3.org/2000/svg" xmlns:xlink="http://www.w3.org/1999/xlink" width="569.6pt" height="197.4pt" viewBox="0 0 569.6 197.4" version="1.1">
<defs>
<clipPath id="clip1">
  <path d="M 544 44 L 569.601563 44 L 569.601563 52 L 544 52 Z M 544 44 "/>
</clipPath>
<clipPath id="clip2">
  <path d="M 507 49 L 569.601563 49 L 569.601563 141 L 507 141 Z M 507 49 "/>
</clipPath>
<clipPath id="clip3">
  <path d="M 76 187 L 168 187 L 168 197.398438 L 76 197.398438 Z M 76 187 "/>
</clipPath>
</defs>
<g id="surface1">
<path style=" stroke:none;fill-rule:evenodd;fill:rgb(84.375%,1.567078%,18.431091%);fill-opacity:1;" d="M 480.851563 0.402344 L 499.742188 7.957031 L 524.300781 -0.0703125 Z M 480.851563 0.402344 "/>
<path style=" stroke:none;fill-rule:evenodd;fill:rgb(67.771912%,13.330078%,17.651367%);fill-opacity:1;" d="M 478.488281 3.234375 C 482.59375 5.40625 493.964844 10.078125 496.4375 12.679688 L 499.742188 8.429688 L 499.742188 7.957031 L 480.851563 0.402344 L 479.359375 0.375 Z M 478.488281 3.234375 "/>
<path style=" stroke:none;fill-rule:evenodd;fill:rgb(86.326599%,28.637695%,34.521484%);fill-opacity:1;" d="M 499.742188 7.957031 L 499.742188 8.429688 L 504.9375 12.207031 L 528.550781 3.707031 L 525.71875 -0.0703125 L 524.300781 -0.0703125 Z M 499.742188 7.957031 "/>
<path style=" stroke:none;fill-rule:evenodd;fill:rgb(49.414063%,68.943787%,19.993591%);fill-opacity:1;" d="M 544.136719 45.269531 L 568.695313 44.796875 L 534.21875 29.210938 Z M 544.136719 45.269531 "/>
<path style=" stroke:none;fill-rule:evenodd;fill:rgb(0%,58.789063%,71.679688%);fill-opacity:1;" d="M 444.484375 45.742188 L 460.542969 46.6875 L 473.292969 31.101563 Z M 444.484375 45.742188 "/>
<path style=" stroke:none;fill-rule:evenodd;fill:rgb(35.301208%,53.709412%,11.376953%);fill-opacity:1;" d="M 530.441406 30.628906 L 538.46875 49.046875 L 544.136719 45.742188 L 544.136719 45.269531 L 534.21875 29.210938 Z M 530.441406 30.628906 "/>
<path style=" stroke:none;fill-rule:evenodd;fill:rgb(16.088867%,70.896912%,89.451599%);fill-opacity:1;" d="M 473.292969 31.101563 L 460.542969 46.6875 L 460.542969 47.15625 L 466.679688 49.519531 L 478.960938 32.988281 L 474.691406 30.121094 Z M 473.292969 31.101563 "/>
<g clip-path="url(#clip1)" clip-rule="nonzero">
<path style=" stroke:none;fill-rule:evenodd;fill:rgb(63.084412%,76.171875%,29.026794%);fill-opacity:1;" d="M 544.136719 45.269531 L 544.136719 45.742188 L 545.554688 51.882813 L 569.640625 49.992188 L 569.617188 45.308594 L 568.695313 44.796875 Z M 544.136719 45.269531 "/>
</g>
<path style=" stroke:none;fill-rule:evenodd;fill:rgb(0%,45.092773%,56.054688%);fill-opacity:1;" d="M 444.011719 49.046875 L 460.542969 51.882813 L 460.542969 46.6875 L 444.484375 45.742188 L 443.480469 46.21875 Z M 444.011719 49.046875 "/>
<path style=" stroke:none;fill-rule:evenodd;fill:rgb(22.363281%,46.655273%,18.431091%);fill-opacity:1;" d="M 507.296875 140.199219 L 508.242188 137.839844 L 538.46875 49.046875 L 530.441406 30.628906 C 529.570313 32 518.980469 79.984375 518.121094 85.371094 C 516.734375 94.027344 513.738281 103.8125 511.984375 112.769531 C 511.035156 117.609375 505.332031 137.371094 507.296875 140.199219 Z M 507.296875 140.199219 "/>
<path style=" stroke:none;fill-rule:evenodd;fill:rgb(82.421875%,2.745056%,18.041992%);fill-opacity:1;" d="M 496.4375 12.679688 L 504.9375 75.023438 L 504.9375 12.207031 L 499.742188 8.429688 Z M 496.4375 12.679688 "/>
<path style=" stroke:none;fill-rule:evenodd;fill:rgb(45.092773%,10.984802%,9.423828%);fill-opacity:1;" d="M 504.9375 77.386719 L 504.9375 75.023438 L 496.4375 12.679688 C 493.964844 10.078125 482.59375 5.40625 478.488281 3.234375 L 503.554688 76.824219 Z M 504.9375 77.386719 "/>
<path style=" stroke:none;fill-rule:evenodd;fill:rgb(69.334412%,12.939453%,18.821716%);fill-opacity:1;" d="M 504.9375 12.207031 L 504.9375 77.386719 C 507.285156 78.753906 508.214844 72.488281 508.902344 70.015625 C 509.839844 66.671875 510.777344 64.015625 511.738281 60.570313 C 513.554688 54.070313 515.5625 48.273438 517.40625 41.679688 C 519.21875 35.179688 521.21875 29.375 523.074219 22.789063 C 524.414063 18.027344 528.203125 7.890625 528.550781 3.707031 Z M 504.9375 12.207031 "/>
<path style=" stroke:none;fill-rule:evenodd;fill:rgb(0%,58.006287%,70.896912%);fill-opacity:1;" d="M 460.542969 51.882813 L 499.742188 111.390625 L 466.679688 49.519531 L 460.542969 47.15625 Z M 460.542969 51.882813 "/>
<path style=" stroke:none;fill-rule:evenodd;fill:rgb(20.384216%,20.384216%,20.384216%);fill-opacity:1;" d="M 84.597656 130.753906 L 84.050781 136.886719 L 79.0625 139.132813 L 78.929688 140.671875 L 99.710938 140.671875 L 99.710938 138.78125 C 95.507813 138.78125 93.570313 137.296875 93.570313 133.117188 L 93.570313 116.585938 C 93.570313 112.1875 95.960938 105.25 100.183594 105.25 C 102.820313 105.25 101.4375 109.972656 104.433594 109.972656 L 106.792969 109.972656 C 109.128906 109.972656 111.046875 108.058594 111.046875 105.722656 L 111.046875 105.25 C 111.046875 102.492188 108.609375 100.054688 105.851563 100.054688 L 103.960938 100.054688 C 98.027344 100.054688 96.140625 105.128906 93.570313 108.082031 L 93.570313 100.054688 L 78.929688 101 L 78.929688 102.890625 L 80.816406 102.890625 C 83.253906 102.890625 84.597656 104.855469 84.597656 107.140625 Z M 84.597656 130.753906 "/>
<path style=" stroke:none;fill-rule:evenodd;fill:rgb(0%,32.93457%,44.309998%);fill-opacity:1;" d="M 501.160156 114.695313 L 499.742188 111.390625 L 460.542969 51.882813 L 444.011719 49.046875 C 451.394531 60.070313 463.992188 71.277344 472.160156 82.296875 C 475.351563 86.601563 498.199219 114.007813 501.160156 114.695313 Z M 501.160156 114.695313 "/>
<path style=" stroke:none;fill-rule:evenodd;fill:rgb(0%,45.092773%,56.054688%);fill-opacity:1;" d="M 466.679688 49.519531 L 499.742188 111.390625 L 501.160156 114.695313 C 502.003906 114.390625 502.574219 114.351563 502.574219 112.808594 C 502.574219 111.304688 480.480469 36.15625 478.960938 32.988281 Z M 466.679688 49.519531 "/>
<path style=" stroke:none;fill-rule:evenodd;fill:rgb(20.384216%,20.384216%,20.384216%);fill-opacity:1;" d="M 222.976563 103.359375 L 227.230469 103.359375 L 227.230469 131.226563 C 227.230469 137.917969 230.019531 141.617188 236.675781 141.617188 C 239.679688 141.617188 247.066406 139.8125 247.066406 137.839844 C 247.066406 136.839844 246.894531 137.214844 246.59375 135.949219 C 245.136719 136.71875 243.296875 138.3125 241.398438 138.3125 C 238.332031 138.3125 236.675781 135.277344 236.675781 132.171875 L 236.675781 103.359375 L 245.648438 103.359375 L 245.648438 101 L 236.675781 101 L 236.675781 88.71875 L 234.3125 88.71875 C 232.027344 88.71875 231.980469 101 224.394531 101 L 222.976563 101 Z M 222.976563 103.359375 "/>
<path style=" stroke:none;fill-rule:evenodd;fill:rgb(48.631287%,67.771912%,19.213867%);fill-opacity:1;" d="M 538.46875 49.046875 L 508.242188 137.839844 L 545.554688 51.882813 L 544.136719 45.742188 Z M 538.46875 49.046875 "/>
<path style=" stroke:none;fill-rule:evenodd;fill:rgb(20.384216%,20.384216%,20.384216%);fill-opacity:1;" d="M 15.640625 86.359375 L 22.726563 86.359375 C 27.957031 86.359375 32.171875 92.421875 32.171875 98.164063 L 32.171875 103.359375 C 32.171875 110.035156 26.765625 114.695313 19.890625 114.695313 L 15.640625 114.695313 Z M 42.089844 99.582031 C 42.089844 89.253906 34.695313 83.996094 24.617188 83.996094 L 0.527344 83.996094 L 0.527344 85.886719 C 4.082031 85.886719 6.667969 87.132813 6.667969 90.609375 L 6.667969 134.058594 C 6.667969 137.117188 4.546875 138.3125 1.472656 138.3125 L 0.0546875 138.3125 L 0.0546875 140.671875 L 22.253906 140.671875 L 22.253906 138.3125 L 20.835938 138.3125 C 17.097656 138.3125 15.640625 136.855469 15.640625 133.117188 L 15.640625 116.585938 L 23.199219 116.585938 C 34.691406 116.585938 42.089844 111.269531 42.089844 99.582031 Z M 42.089844 99.582031 "/>
<path style=" stroke:none;fill-rule:evenodd;fill:rgb(20.384216%,20.384216%,20.384216%);fill-opacity:1;" d="M 161.582031 103.359375 L 162.050781 103.359375 C 166.851563 103.359375 167.71875 108.390625 167.71875 113.277344 L 167.71875 135.003906 C 167.71875 138.050781 165.597656 138.78125 162.523438 138.78125 L 162.523438 140.671875 L 182.832031 140.671875 L 182.832031 138.78125 L 181.417969 138.78125 C 170.292969 138.78125 185.328125 100.054688 167.71875 100.054688 L 163.941406 100.054688 C 159.21875 100.054688 153.46875 103.910156 152.605469 107.140625 L 151.660156 107.140625 C 150.890625 103.835938 147.84375 100.054688 144.105469 100.054688 L 138.4375 100.054688 C 133.300781 100.054688 130.511719 105.332031 128.046875 107.140625 L 128.046875 100.054688 L 113.40625 101 L 113.40625 102.890625 L 114.824219 102.890625 C 117.882813 102.890625 119.074219 105.011719 119.074219 108.082031 L 119.074219 132.644531 C 119.074219 135.074219 118.539063 138.3125 116.238281 138.3125 L 112.933594 138.3125 L 112.933594 140.671875 L 133.714844 140.671875 L 133.714844 138.78125 L 132.296875 138.78125 C 128.105469 138.78125 128.046875 134.929688 128.046875 130.753906 L 128.046875 117.058594 C 128.046875 110.242188 130.925781 103.359375 137.492188 103.359375 C 140.890625 103.359375 143.160156 107.011719 143.160156 110.445313 L 143.160156 135.003906 C 143.160156 138.050781 141.039063 138.78125 137.964844 138.78125 L 137.964844 140.671875 L 158.273438 140.671875 L 158.273438 138.3125 L 155.914063 138.3125 C 153.652344 138.3125 152.605469 136.710938 152.605469 134.53125 L 152.605469 113.75 C 152.605469 109.183594 156.679688 103.359375 161.582031 103.359375 Z M 161.582031 103.359375 "/>
<path style=" stroke:none;fill-rule:evenodd;fill:rgb(20.384216%,20.384216%,20.384216%);fill-opacity:1;" d="M 304.683594 111.390625 L 316.019531 111.390625 C 323.246094 111.390625 329.242188 116.617188 329.242188 123.667969 L 329.242188 125.558594 C 329.242188 133.714844 323.136719 138.78125 315.074219 138.78125 L 304.683594 138.78125 Z M 304.683594 85.886719 L 314.128906 85.886719 C 321.527344 85.886719 327.355469 89.324219 327.355469 96.75 L 327.355469 98.164063 C 327.355469 106.261719 320.417969 109.5 312.242188 109.5 L 304.683594 109.5 Z M 316.019531 83.996094 L 292.40625 83.996094 L 292.40625 85.414063 L 294.292969 85.414063 C 296.578125 85.414063 298.074219 86.90625 298.074219 89.191406 L 298.074219 135.949219 C 298.074219 138.335938 295.050781 139.253906 292.40625 139.253906 L 292.40625 140.199219 L 318.855469 140.199219 C 328.179688 140.199219 336.328125 135.761719 336.328125 126.503906 L 336.328125 124.140625 C 336.328125 115.59375 327.832031 110.445313 319.324219 110.445313 C 322.84375 107.386719 334.4375 109.875 334.4375 96.75 L 334.4375 95.332031 C 334.4375 87.515625 324.277344 83.996094 316.019531 83.996094 Z M 316.019531 83.996094 "/>
<g clip-path="url(#clip2)" clip-rule="nonzero">
<path style=" stroke:none;fill-rule:evenodd;fill:rgb(41.967773%,56.054688%,8.616638%);fill-opacity:1;" d="M 545.554688 51.882813 L 508.242188 137.839844 L 507.296875 140.199219 C 510.316406 141.957031 514.886719 133.066406 516.367188 130.847656 C 519.027344 126.855469 521.304688 123.175781 524.015625 119.136719 C 529.277344 111.300781 533.972656 103.96875 539.222656 96.085938 C 549.515625 80.628906 559.382813 65.3125 569.640625 49.992188 Z M 545.554688 51.882813 "/>
</g>
<path style=" stroke:none;fill-rule:evenodd;fill:rgb(20.384216%,20.384216%,20.384216%);fill-opacity:1;" d="M 194.167969 127.921875 C 194.167969 122.25 200.285156 118.945313 205.976563 118.945313 L 208.808594 118.945313 L 208.808594 128.390625 C 208.808594 133.429688 204.980469 138.3125 199.835938 138.3125 C 196.746094 138.3125 194.167969 134.164063 194.167969 130.753906 Z M 193.222656 113.277344 C 199.660156 113.277344 193.550781 101.472656 203.140625 101.472656 L 203.613281 101.472656 C 207.011719 101.472656 208.808594 104.675781 208.808594 108.082031 L 208.808594 117.058594 C 198.035156 117.058594 184.25 119.394531 184.25 129.808594 L 184.25 130.753906 C 184.25 137.417969 188.402344 140.28125 194.53125 141.257813 C 203.507813 142.683594 205.417969 136.980469 209.28125 135.949219 C 209.363281 139.640625 212.644531 140.671875 216.367188 140.671875 L 222.976563 140.671875 L 222.976563 138.78125 C 217.480469 138.78125 217.773438 135.671875 217.78125 130.28125 C 217.792969 125.714844 217.78125 121.152344 217.78125 116.585938 C 217.78125 106.183594 217.339844 100.054688 206.921875 100.054688 L 201.726563 100.054688 C 195.292969 100.054688 187.085938 103.328125 187.085938 109.5 L 187.085938 110.445313 C 187.085938 112.386719 189.679688 113.277344 191.808594 113.277344 Z M 193.222656 113.277344 "/>
<path style=" stroke:none;fill-rule:evenodd;fill:rgb(20.384216%,20.384216%,20.384216%);fill-opacity:1;" d="M 259.34375 127.921875 C 259.34375 121.796875 265.859375 118.945313 272.097656 118.945313 L 273.984375 118.945313 L 273.984375 126.503906 C 273.984375 132.691406 271.050781 138.3125 265.011719 138.3125 C 262.367188 138.3125 259.34375 134.40625 259.34375 131.699219 Z M 258.871094 113.277344 C 264.144531 113.277344 259.023438 101.472656 268.316406 101.472656 L 268.789063 101.472656 C 272.835938 101.472656 273.984375 105.785156 273.984375 109.972656 L 273.984375 117.058594 L 271.152344 117.058594 C 259.425781 117.058594 249.425781 120.167969 249.425781 132.171875 C 249.425781 136.378906 255.023438 141.617188 259.34375 141.617188 L 260.761719 141.617188 C 267.777344 141.617188 269.90625 138.679688 273.984375 135.949219 C 274.273438 139.425781 277.777344 140.671875 281.542969 140.671875 L 288.15625 140.671875 L 288.15625 138.78125 C 282.351563 138.78125 282.953125 135.820313 282.960938 130.28125 C 282.964844 125.875 282.960938 121.464844 282.960938 117.058594 C 282.960938 111.554688 283.652344 108.453125 281.539063 104.78125 C 280.121094 102.3125 276.820313 100.054688 273.042969 100.054688 L 266.902344 100.054688 C 260.484375 100.054688 251.789063 103.699219 251.789063 109.5 C 251.789063 112.738281 254.71875 113.277344 257.929688 113.277344 Z M 258.871094 113.277344 "/>
<path style=" stroke:none;fill-rule:evenodd;fill:rgb(20.384216%,20.384216%,20.384216%);fill-opacity:1;" d="M 346.71875 130.753906 C 346.71875 120.863281 356.277344 118.003906 366.082031 118.003906 L 366.082031 124.140625 C 366.082031 131.917969 361.6875 138.78125 354.277344 138.78125 L 353.332031 138.78125 C 349.691406 138.78125 346.71875 134.554688 346.71875 130.753906 Z M 455.617188 104.105469 C 458.195313 102.589844 459.972656 103.601563 460.542969 101.472656 L 443.539063 101.472656 L 443.539063 102.417969 C 445.78125 102.417969 448.734375 103.289063 448.734375 105.25 C 448.734375 107.859375 434.21875 123.730469 432.675781 124.140625 L 432.675781 98.164063 L 433.246094 83.53125 L 421.8125 83.996094 L 421.8125 85.414063 L 424.648438 85.414063 C 426.175781 85.414063 427.007813 87.128906 427.007813 88.71875 L 427.007813 135.476563 C 427.007813 137.761719 425.515625 139.253906 423.230469 139.253906 L 419.453125 139.253906 C 408.71875 139.253906 425.554688 100.054688 404.339844 100.054688 C 392.59375 100.054688 393.851563 105.636719 389.226563 109.027344 L 389.226563 100.527344 L 378.371094 101.128906 L 378.363281 102.417969 C 381.933594 102.496094 383.558594 103.980469 383.558594 107.613281 L 383.558594 135.003906 C 383.558594 137.574219 381.878906 139.253906 379.308594 139.253906 L 375.527344 139.253906 C 373.429688 139.253906 372.585938 138.144531 371.75 136.894531 C 371.75 128.867188 371.710938 120.832031 371.753906 112.804688 C 371.796875 104.242188 369.457031 100.054688 360.886719 100.054688 L 357.582031 100.054688 C 351.402344 100.054688 342.941406 103.140625 342.941406 108.554688 L 342.941406 109.972656 C 342.941406 111.0625 343.269531 111.390625 344.355469 111.390625 L 347.664063 111.390625 C 348.722656 111.390625 348.699219 111.015625 349.550781 110.445313 C 349.550781 104.765625 351.621094 101 357.109375 101 C 363.363281 101 366.082031 103.742188 366.082031 109.972656 L 366.082031 112.808594 L 365.554688 117.050781 L 363.25 117.058594 C 354.511719 117.058594 340.578125 120.351563 340.578125 128.390625 L 340.578125 132.644531 C 340.578125 136.105469 345.144531 140.671875 348.609375 140.671875 L 354.746094 140.671875 C 359.296875 140.671875 363.433594 135.363281 366.082031 133.585938 C 366.082031 138.253906 366.621094 140.671875 371.277344 140.671875 L 395.363281 140.671875 L 395.363281 139.253906 L 393.476563 139.253906 C 390.480469 139.253906 389.226563 136.554688 389.226563 133.585938 L 389.226563 117.53125 C 389.226563 110.925781 393.652344 102.417969 400.089844 102.417969 L 402.921875 102.417969 C 408 102.417969 410.007813 108.902344 410.007813 114.222656 L 410.007813 129.808594 C 410.007813 134.140625 410.035156 139.253906 405.753906 139.253906 L 403.867188 139.253906 L 403.867188 140.671875 L 438.816406 140.671875 L 438.816406 139.253906 L 436.925781 139.253906 C 433.929688 139.253906 432.675781 136.554688 432.675781 133.585938 L 432.675781 127.917969 C 432.675781 126.472656 438.445313 120.242188 439.761719 119.890625 L 451.890625 140.480469 L 461.957031 140.671875 L 461.957031 139.253906 C 456.335938 138.785156 454.078125 132.597656 451.378906 128.582031 C 450.289063 126.957031 443.539063 116.675781 443.539063 115.640625 C 443.539063 115.636719 450.257813 108.1875 450.96875 107.484375 C 452.363281 106.113281 453.832031 105.152344 455.617188 104.105469 Z M 455.617188 104.105469 "/>
<path style=" stroke:none;fill-rule:evenodd;fill:rgb(20.384216%,20.384216%,20.384216%);fill-opacity:1;" d="M 52.007813 115.640625 C 52.007813 109.867188 55.175781 101.472656 60.507813 101.472656 C 66.335938 101.472656 68.066406 110.695313 68.066406 117.058594 L 52.007813 117.058594 Z M 61.925781 138.3125 C 54.839844 138.3125 51.535156 126.6875 51.535156 118.945313 L 77.511719 118.945313 L 77.511719 117.53125 C 77.511719 107.289063 71.65625 100.054688 61.453125 100.054688 L 60.039063 100.054688 C 35.511719 100.054688 35.203125 141.144531 60.039063 141.144531 L 63.34375 141.144531 C 69.085938 141.144531 77.039063 135.402344 77.039063 131.226563 C 77.039063 130.257813 76.066406 130.359375 75.152344 130.28125 C 74.246094 133.664063 69.21875 138.3125 64.761719 138.3125 Z M 61.925781 138.3125 "/>
<path style=" stroke:none;fill-rule:evenodd;fill:rgb(20.384216%,20.384216%,20.384216%);fill-opacity:1;" d="M 17.058594 162.398438 C 17.058594 161.308594 16.730469 160.980469 15.640625 160.980469 C 14.535156 160.980469 13.753906 161.765625 13.753906 162.871094 C 13.753906 163.957031 14.082031 164.285156 15.167969 164.285156 L 15.640625 164.285156 C 16.730469 164.285156 17.058594 163.957031 17.058594 162.871094 Z M 17.058594 162.398438 "/>
<path style=" stroke:none;fill-rule:evenodd;fill:rgb(20.384216%,20.384216%,20.384216%);fill-opacity:1;" d="M 53.898438 162.398438 C 53.898438 161.308594 53.570313 160.980469 52.480469 160.980469 C 51.375 160.980469 50.589844 161.765625 50.589844 162.871094 C 50.589844 163.957031 50.921875 164.285156 52.007813 164.285156 L 52.480469 164.285156 C 53.570313 164.285156 53.898438 163.957031 53.898438 162.871094 Z M 53.898438 162.398438 "/>
<path style=" stroke:none;fill-rule:evenodd;fill:rgb(29.80957%,29.80957%,29.80957%);fill-opacity:1;" d="M 134.660156 162.398438 C 134.660156 161.824219 133.683594 160.980469 132.769531 160.980469 C 131.664063 160.980469 130.882813 161.765625 130.882813 162.871094 C 130.882813 163.445313 131.859375 164.285156 132.769531 164.285156 C 133.875 164.285156 134.660156 163.503906 134.660156 162.398438 Z M 134.660156 162.398438 "/>
<path style=" stroke:none;fill-rule:evenodd;fill:rgb(20.384216%,20.384216%,20.384216%);fill-opacity:1;" d="M 179.445313 167.570313 C 177.835938 167.199219 177.308594 166.648438 175.277344 166.648438 L 174.804688 166.648438 C 173.214844 166.648438 171.027344 168.761719 171.027344 170.898438 L 171.027344 171.84375 C 171.027344 175.160156 177.164063 174.761719 177.164063 177.511719 L 177.164063 177.984375 C 177.164063 179.089844 176.382813 179.871094 175.277344 179.871094 L 173.859375 179.871094 C 171.351563 179.871094 170.644531 177.273438 170.554688 181.289063 C 171.613281 181.535156 171.640625 181.761719 172.914063 181.761719 L 175.75 181.761719 C 178.359375 181.761719 180 179.632813 180 177.039063 C 180 173.136719 173.386719 173.492188 173.386719 170.898438 C 173.386719 169.792969 174.171875 169.007813 175.277344 169.007813 L 176.695313 169.007813 C 177.96875 169.007813 177.996094 169.234375 178.953125 169.453125 Z M 179.445313 167.570313 "/>
<path style=" stroke:none;fill-rule:evenodd;fill:rgb(20.384216%,20.384216%,20.384216%);fill-opacity:1;" d="M 24.144531 165.703125 C 24.144531 164.113281 24.976563 162.398438 26.503906 162.398438 L 28.867188 162.398438 C 28.832031 160.882813 29.019531 160.035156 27.449219 160.035156 L 26.503906 160.035156 C 23.476563 160.035156 21.308594 162.8125 21.308594 165.703125 L 21.308594 167.121094 L 19.421875 167.121094 L 19.421875 169.480469 L 21.308594 169.480469 L 21.308594 181.761719 L 24.144531 181.761719 L 24.144531 169.007813 L 27.449219 169.007813 L 27.449219 167.121094 L 24.144531 167.121094 Z M 24.144531 165.703125 "/>
<path style=" stroke:none;fill-rule:evenodd;fill:rgb(20.384216%,20.384216%,20.384216%);fill-opacity:1;" d="M 31.226563 172.789063 C 31.429688 170.378906 32.929688 168.539063 35.476563 168.539063 C 37.667969 168.539063 38.730469 170.433594 38.785156 172.789063 Z M 35.476563 179.871094 C 32.492188 179.871094 31.226563 177.773438 31.226563 174.675781 L 41.144531 174.675781 L 41.144531 172.789063 C 41.144531 169.65625 38.945313 166.648438 35.949219 166.648438 L 35.007813 166.648438 C 31.363281 166.648438 28.394531 170.875 28.394531 174.675781 L 28.394531 175.148438 C 28.394531 178.253906 31.359375 181.761719 34.535156 181.761719 L 36.894531 181.761719 C 38.523438 181.761719 38.722656 181.414063 40.199219 181.289063 L 40.199219 179.398438 C 38.722656 179.523438 38.523438 179.871094 36.894531 179.871094 Z M 35.476563 179.871094 "/>
<path style=" stroke:none;fill-rule:evenodd;fill:rgb(20.384216%,20.384216%,20.384216%);fill-opacity:1;" d="M 0.0546875 181.761719 L 11.390625 181.761719 L 11.390625 179.398438 L 2.890625 179.398438 L 2.890625 161.453125 L 0.0546875 161.453125 Z M 0.0546875 181.761719 "/>
<path style=" stroke:none;fill-rule:evenodd;fill:rgb(29.80957%,29.80957%,29.80957%);fill-opacity:1;" d="M 14.226563 181.761719 L 17.058594 181.761719 L 17.058594 167.121094 L 14.226563 167.121094 Z M 14.226563 181.761719 "/>
<path style=" stroke:none;fill-rule:evenodd;fill:rgb(20.384216%,20.384216%,20.384216%);fill-opacity:1;" d="M 51.0625 181.761719 L 53.425781 181.761719 L 53.425781 167.121094 L 51.0625 167.121094 Z M 51.0625 181.761719 "/>
<path style=" stroke:none;fill-rule:evenodd;fill:rgb(20.384216%,20.384216%,20.384216%);fill-opacity:1;" d="M 66.09375 167.570313 C 64.527344 167.207031 64.585938 166.648438 62.871094 166.648438 L 61.453125 166.648438 C 60.394531 166.648438 57.675781 168.605469 57.675781 169.953125 L 57.675781 171.84375 C 57.675781 175.160156 63.816406 174.761719 63.816406 177.511719 L 63.816406 177.984375 C 63.816406 179.089844 63.03125 179.871094 61.925781 179.871094 L 60.507813 179.871094 C 59.070313 179.871094 58.605469 179.417969 57.675781 178.929688 L 57.105469 181.265625 C 58.261719 181.535156 58.289063 181.761719 59.566406 181.761719 L 62.398438 181.761719 C 64.734375 181.761719 66.648438 179.84375 66.648438 177.511719 L 66.648438 177.039063 C 66.648438 173.363281 60.039063 173.332031 60.039063 170.898438 C 60.039063 169.792969 60.820313 169.007813 61.925781 169.007813 L 63.34375 169.007813 C 64.617188 169.007813 64.644531 169.234375 65.601563 169.453125 Z M 66.09375 167.570313 "/>
<path style=" stroke:none;fill-rule:evenodd;fill:rgb(20.384216%,20.384216%,20.384216%);fill-opacity:1;" d="M 95.929688 173.734375 C 95.929688 172.113281 97.15625 169.480469 98.765625 169.480469 L 100.65625 169.480469 L 100.65625 166.648438 L 100.3125 166.121094 L 95.367188 169.339844 L 95.460938 167.121094 L 93.570313 167.121094 L 93.570313 181.761719 L 95.929688 181.761719 Z M 95.929688 173.734375 "/>
<path style=" stroke:none;fill-rule:evenodd;fill:rgb(20.384216%,20.384216%,20.384216%);fill-opacity:1;" d="M 104.90625 172.789063 C 104.957031 170.457031 106.292969 168.539063 108.210938 168.539063 C 109.9375 168.539063 111.988281 169.839844 111.988281 171.371094 L 111.988281 172.789063 Z M 109.15625 179.871094 C 106.15625 179.871094 104.5 177.726563 104.433594 174.675781 L 114.824219 174.675781 L 114.824219 172.789063 C 114.824219 169.945313 112.214844 166.648438 109.15625 166.648438 L 108.210938 166.648438 C 105.316406 166.648438 102.070313 169.890625 102.070313 172.789063 L 102.070313 175.148438 C 102.070313 178.691406 104.375 181.761719 107.738281 181.761719 L 111.515625 181.761719 C 113.570313 181.761719 113.832031 181.457031 113.878906 179.398438 L 109.644531 179.976563 Z M 109.15625 179.871094 "/>
<path style=" stroke:none;fill-rule:evenodd;fill:rgb(20.384216%,20.384216%,20.384216%);fill-opacity:1;" d="M 128.578125 167.609375 C 127.828125 167.261719 125.753906 166.648438 124.742188 166.648438 C 120.726563 166.648438 117.183594 169.660156 117.183594 173.734375 L 117.183594 176.09375 C 117.183594 178.929688 120.015625 181.761719 122.851563 181.761719 L 125.6875 181.761719 C 127.738281 181.761719 128 181.457031 128.046875 179.398438 C 126.570313 179.523438 126.371094 179.871094 124.742188 179.871094 C 121.539063 179.871094 119.546875 177.296875 119.546875 174.203125 C 119.546875 171.496094 121.578125 169.007813 124.269531 169.007813 L 125.6875 169.007813 C 126.960938 169.007813 126.988281 169.234375 127.988281 169.464844 Z M 128.578125 167.609375 "/>
<path style=" stroke:none;fill-rule:evenodd;fill:rgb(20.384216%,20.384216%,20.384216%);fill-opacity:1;" d="M 131.351563 181.761719 L 134.1875 181.761719 L 134.1875 167.121094 L 131.351563 167.121094 Z M 131.351563 181.761719 "/>
<path style=" stroke:none;fill-rule:evenodd;fill:rgb(20.384216%,20.384216%,20.384216%);fill-opacity:1;" d="M 140.328125 173.261719 C 140.328125 170.976563 141.667969 169.007813 144.105469 169.007813 L 145.523438 169.007813 C 147.53125 169.007813 148.828125 171.933594 148.828125 174.203125 L 148.828125 175.148438 C 148.828125 177.535156 147.125 179.871094 144.578125 179.871094 L 143.632813 179.871094 C 142.128906 179.871094 140.328125 177.464844 140.328125 175.621094 Z M 145.523438 181.761719 C 149.457031 181.761719 151.660156 177.972656 151.660156 173.734375 L 151.660156 173.261719 C 151.660156 170.03125 148.28125 166.648438 145.050781 166.648438 L 144.105469 166.648438 C 140.351563 166.648438 137.492188 170.234375 137.492188 174.203125 L 137.492188 174.675781 C 137.492188 178.21875 139.652344 181.761719 143.160156 181.761719 Z M 145.523438 181.761719 "/>
<path style=" stroke:none;fill-rule:evenodd;fill:rgb(20.384216%,20.384216%,20.384216%);fill-opacity:1;" d="M 154.96875 177.511719 C 154.96875 179.84375 156.882813 181.761719 159.21875 181.761719 L 160.636719 181.761719 C 163.007813 181.761719 163.375 180.410156 164.886719 179.398438 L 164.886719 181.761719 L 167.246094 181.761719 L 167.246094 167.121094 L 164.414063 167.121094 L 164.414063 176.566406 C 164.414063 178.128906 162.214844 179.871094 160.636719 179.871094 C 158.277344 179.871094 157.328125 177.621094 157.328125 175.148438 L 157.328125 167.121094 L 154.96875 167.121094 Z M 154.96875 177.511719 "/>
<path style=" stroke:none;fill-rule:evenodd;fill:rgb(20.384216%,20.384216%,20.384216%);fill-opacity:1;" d="M 78.929688 173.261719 C 78.929688 171.417969 80.730469 169.007813 82.234375 169.007813 L 83.179688 169.007813 C 85.726563 169.007813 87.429688 171.34375 87.429688 173.734375 L 87.429688 174.203125 C 87.429688 177.171875 86.175781 179.871094 83.179688 179.871094 L 82.234375 179.871094 C 80.515625 179.871094 78.929688 177.570313 78.929688 175.621094 Z M 84.597656 181.761719 C 87.246094 181.761719 89.792969 178.640625 89.792969 176.09375 L 89.792969 172.316406 C 89.792969 169.480469 86.960938 166.648438 84.125 166.648438 C 81.171875 166.648438 80.179688 168.328125 78.457031 169.480469 L 78.457031 167.121094 L 76.09375 167.121094 L 76.09375 187.902344 L 78.929688 187.902344 L 78.929688 179.871094 C 80.242188 180.753906 80.5625 181.761719 82.707031 181.761719 Z M 84.597656 181.761719 "/>
<g clip-path="url(#clip3)" clip-rule="nonzero">
<path style=" stroke:none;fill-rule:evenodd;fill:rgb(84.764099%,1.567078%,7.054138%);fill-opacity:1;" d="M 82.707031 197.347656 C 86.121094 197.347656 99.765625 194.527344 103.125 193.679688 C 108.390625 192.351563 117.925781 190.679688 123.546875 191.050781 C 131.476563 191.578125 137.179688 191.199219 145.082031 192.117188 C 153.460938 193.09375 158.429688 193.261719 165.832031 194.984375 L 167.214844 194.425781 L 167.246094 193.097656 C 163.183594 192.757813 158.042969 189.457031 152.570313 188.882813 C 145.675781 188.160156 143.421875 187.429688 136.546875 187.429688 C 125.757813 187.429688 116.691406 188.558594 105.847656 189.316406 C 96.773438 189.945313 85.484375 194.042969 76.566406 194.042969 C 77.054688 195.867188 78.019531 197.347656 80.347656 197.347656 Z M 82.707031 197.347656 "/>
</g>
</g>
</svg>
