<?xml version="1.0" encoding="UTF-8" standalone="no"?>
<svg
   xmlns:dc="http://purl.org/dc/elements/1.1/"
   xmlns:cc="http://creativecommons.org/ns#"
   xmlns:rdf="http://www.w3.org/1999/02/22-rdf-syntax-ns#"
   xmlns:svg="http://www.w3.org/2000/svg"
   xmlns="http://www.w3.org/2000/svg"
   xmlns:sodipodi="http://sodipodi.sourceforge.net/DTD/sodipodi-0.dtd"
   xmlns:inkscape="http://www.inkscape.org/namespaces/inkscape"
   width="108.37466mm"
   height="17.412731mm"
   viewBox="0 0 108.37466 17.412731"
   version="1.1"
   id="svg845"
   inkscape:version="1.0.1 (3bc2e813f5, 2020-09-07)"
   sodipodi:docname="QRIS logo.svg">
  <defs
     id="defs839">
    <clipPath
       clipPathUnits="userSpaceOnUse"
       id="clipPath96">
      <path
         d="M -1.2207e-4,2.4414e-4 H 959.99988 V 540.00024 H -1.2207e-4 Z"
         clip-rule="evenodd"
         id="path94" />
    </clipPath>
    <clipPath
       clipPathUnits="userSpaceOnUse"
       id="clipPath106">
      <path
         d="M 0,0 H 130.46 V 23.577 H 0 Z"
         id="path104" />
    </clipPath>
  </defs>
  <sodipodi:namedview
     id="base"
     pagecolor="#ffffff"
     bordercolor="#666666"
     borderopacity="1.0"
     inkscape:pageopacity="0.0"
     inkscape:pageshadow="2"
     inkscape:zoom="0.98994949"
     inkscape:cx="272.53112"
     inkscape:cy="-7.6525993"
     inkscape:document-units="mm"
     inkscape:current-layer="layer1"
     inkscape:document-rotation="0"
     showgrid="false"
     fit-margin-top="0"
     fit-margin-left="0"
     fit-margin-right="0"
     fit-margin-bottom="0"
     inkscape:window-width="1366"
     inkscape:window-height="705"
     inkscape:window-x="-8"
     inkscape:window-y="-8"
     inkscape:window-maximized="1" />
  <metadata
     id="metadata842">
    <rdf:RDF>
      <cc:Work
         rdf:about="">
        <dc:format>image/svg+xml</dc:format>
        <dc:type
           rdf:resource="http://purl.org/dc/dcmitype/StillImage" />
        <dc:title></dc:title>
      </cc:Work>
    </rdf:RDF>
  </metadata>
  <g
     inkscape:label="Layer 1"
     inkscape:groupmode="layer"
     id="layer1"
     transform="translate(-31.991243,-118.40059)">
    <g
       id="g90"
       transform="matrix(0.7313755,0,0,-0.7313755,-550.54458,504.98281)"
       style="fill:#000000">
      <g
         id="g92"
         clip-path="url(#clipPath96)"
         style="fill:#000000">
        <g
           id="g98"
           transform="matrix(2.1033,-7.54e-7,-7.54e-7,0.375,795.24,502.8)"
           style="fill:#000000">
          <g
             id="g100"
             transform="scale(0.55189,3.0538)"
             style="fill:#000000">
            <g
               id="g102"
               clip-path="url(#clipPath106)"
               style="fill:#000000">
              <g
                 id="g108"
                 style="fill:#000000">
                <g
                   id="g110"
                   style="fill:#000000">
                  <g
                     id="g112"
                     style="fill:#000000" />
                </g>
                <path
                   d="M 18.813,19.108 H 32.767 V 10.622 H 26.913 L 32.767,5.1912 H 27.794 L 22.053,10.622 V 5.1912 h -3.24 v 8.6268 h 10.231 v 2.065 H 18.813 Z"
                   style="fill:#000000;fill-opacity:1;fill-rule:nonzero;stroke:none"
                   id="path114" />
                <path
                   d="m 34.216,5.1912 h 3.4103 v 13.945 H 34.216 Z"
                   style="fill:#000000;fill-opacity:1;fill-rule:nonzero;stroke:none"
                   id="path116" />
                <path
                   d="M 6.9058,8.5572 V 19.108 H 4.2344 c -0.4831,0 -0.8526,-0.368 -0.8526,-0.82 0,-2.49 -0.0284,-9.8157 -0.0284,-12.2482 0,-0.4526 0.3695,-0.8486 0.8242,-0.8486 1.8472,0 7.1614,0 7.9284,0 v 3.366 z"
                   style="fill:#000000;fill-opacity:1;fill-rule:nonzero;stroke:none"
                   id="path118" />
                <path
                   d="m 13.868,1.712 c 0.313,0 2.7,0 3.496,0 0,0 0,6.8735 0,6.9866 -1.137,0 -2.33,0 -3.496,0 0,-2.3194 0,-4.6388 0,-6.9866 z"
                   style="fill:#000000;fill-opacity:1;fill-rule:nonzero;stroke:none"
                   id="path120" />
                <path
                   d="m 8.6109,19.108 c 0,-0.057 0,-3.479 0,-3.479 1.5631,0 3.5521,0 5.2571,0 0,-2.405 0,-5.205 0,-5.205 0.796,0 3.183,0 3.496,0 v 7.835 c 0,0.453 -0.37,0.821 -0.824,0.849 -1.705,0 -5.741,0 -7.9291,0 z"
                   style="fill:#000000;fill-opacity:1;fill-rule:nonzero;stroke:none"
                   id="path122" />
                <path
                   d="m 8.6109,13.932 c 0,-1.16 0,-2.32 0,-3.536 0.2842,0 0.5968,0 0.881,0 0.7961,0 1.7901,0 2.5861,0 0,0 0,3.479 0,3.536 -1.137,0 -2.3019,0 -3.4671,0 z m 2.4441,-2.461 v 0 c -0.341,0 -0.739,0 -1.052,0 -0.1132,0 -0.2269,0 -0.369,0 0,0.481 0,0.933 0,1.414 0.483,0 0.938,0 1.421,0 0,-0.028 0,-1.414 0,-1.414 z"
                   style="fill:#000000;fill-opacity:1;fill-rule:nonzero;stroke:none"
                   id="path124" />
                <path
                   d="M 54.365,8.6986 V 3.494 c 0,-0.4525 -0.398,-0.8203 -0.852,-0.8203 H 48.284 V 1.8252 h 6.081 0.029 c 0.426,0 0.795,0.3677 0.795,0.8203 v 0.0282 6.0249 z"
                   style="fill:#000000;fill-opacity:1;fill-rule:nonzero;stroke:none"
                   id="path126" />
                <path
                   d="m 1.9325,15.657 v 5.205 c 0,0.452 0.341,0.792 0.7957,0.792 h 5.2291 c 0.0284,0 0.0284,0.028 0.0284,0.028 v 0.792 c 0,0 0,0.028 -0.0284,0.028 H 1.9325 c -0.4831,0 -0.8526,-0.368 -0.8526,-0.848 v -5.997 c 0,-0.028 0.0284,-0.028 0.0284,-0.028 h 0.7958 c 0,0 0.0284,0 0.0284,0.028 z"
                   style="fill:#000000;fill-opacity:1;fill-rule:nonzero;stroke:none"
                   id="path128" />
                <path
                   d="m 52.887,15.657 v 3.451 H 39.104 v -5.176 -3.48 h 9.18 V 8.7269 h -9.18 V 5.2478 h 13.783 v 8.6552 h -9.179 v 1.754 z"
                   style="fill:#000000;fill-opacity:1;fill-rule:nonzero;stroke:none"
                   id="path130" />
                <path
                   d="m 62.834,14.101 h -3.041 c -0.369,0 -0.71,0.057 -1.051,0.198 -0.313,0.113 -0.625,0.311 -0.853,0.538 -0.256,0.254 -0.454,0.537 -0.597,0.848 -0.142,0.34 -0.227,0.679 -0.227,1.075 0,0.396 0.085,0.736 0.227,1.075 0.143,0.311 0.313,0.622 0.569,0.849 0.256,0.254 0.54,0.424 0.852,0.565 0.341,0.142 0.682,0.198 1.08,0.198 0.37,0 0.711,-0.056 1.052,-0.198 0.312,-0.141 0.597,-0.311 0.852,-0.537 0.228,-0.255 0.427,-0.509 0.569,-0.849 0.142,-0.311 0.199,-0.65 0.199,-1.018 0,-0.226 -0.029,-0.453 -0.057,-0.651 -0.057,-0.226 -0.142,-0.424 -0.256,-0.622 -0.085,-0.17 -0.227,-0.339 -0.369,-0.481 -0.142,-0.169 -0.313,-0.283 -0.512,-0.367 v 0 h 1.563 z m -3.069,0.651 v 0 c 0.284,0 0.568,0.056 0.796,0.17 0.227,0.113 0.454,0.254 0.625,0.424 0.17,0.198 0.284,0.396 0.398,0.65 0.085,0.255 0.142,0.538 0.142,0.821 0,0.254 -0.057,0.537 -0.142,0.763 -0.114,0.255 -0.256,0.453 -0.427,0.623 -0.17,0.198 -0.369,0.339 -0.596,0.424 -0.256,0.113 -0.512,0.17 -0.796,0.17 -0.284,0 -0.54,-0.057 -0.767,-0.17 -0.228,-0.085 -0.427,-0.226 -0.597,-0.424 -0.171,-0.17 -0.313,-0.368 -0.427,-0.623 -0.085,-0.226 -0.142,-0.48 -0.142,-0.763 0,-0.283 0.057,-0.538 0.142,-0.792 0.086,-0.255 0.228,-0.481 0.398,-0.651 0.171,-0.198 0.37,-0.339 0.626,-0.452 0.227,-0.114 0.483,-0.17 0.767,-0.17 z"
                   style="fill:#000000;fill-opacity:1;fill-rule:nonzero;stroke:none"
                   id="path132" />
                <path
                   d="m 63.573,19.334 h 1.847 c 0.341,0 0.625,-0.056 0.824,-0.141 0.228,-0.113 0.398,-0.227 0.54,-0.368 0.114,-0.141 0.199,-0.283 0.256,-0.453 0.057,-0.169 0.057,-0.339 0.057,-0.509 0,-0.169 -0.028,-0.339 -0.085,-0.481 -0.057,-0.169 -0.142,-0.311 -0.256,-0.424 -0.114,-0.141 -0.227,-0.226 -0.398,-0.311 -0.17,-0.085 -0.341,-0.141 -0.54,-0.17 l 1.506,-2.376 h -0.909 l -1.336,2.291 h -0.796 v -2.291 h -0.71 z m 0.71,-2.319 v 0 h 0.938 c 0.142,0 0.284,0 0.427,0.028 0.113,0.028 0.255,0.057 0.341,0.141 0.113,0.057 0.199,0.142 0.255,0.255 0.086,0.085 0.114,0.255 0.114,0.424 0,0.17 -0.028,0.311 -0.114,0.425 -0.056,0.113 -0.142,0.198 -0.255,0.254 -0.086,0.057 -0.228,0.113 -0.341,0.113 -0.143,0.029 -0.285,0.057 -0.427,0.057 h -0.938 z"
                   style="fill:#000000;fill-opacity:1;fill-rule:nonzero;stroke:none"
                   id="path134" />
                <path
                   d="m 73.832,18.203 c -0.142,0.169 -0.341,0.339 -0.568,0.424 -0.228,0.113 -0.455,0.17 -0.711,0.17 -0.284,0 -0.568,-0.057 -0.795,-0.17 -0.228,-0.113 -0.455,-0.255 -0.626,-0.453 -0.17,-0.198 -0.284,-0.424 -0.397,-0.678 -0.086,-0.255 -0.143,-0.538 -0.143,-0.821 0,-0.283 0.057,-0.537 0.143,-0.792 0.085,-0.254 0.227,-0.481 0.397,-0.65 0.171,-0.198 0.37,-0.34 0.597,-0.453 0.256,-0.113 0.54,-0.17 0.824,-0.17 0.313,0 0.569,0.085 0.796,0.198 0.227,0.114 0.426,0.283 0.597,0.51 l 0.597,-0.453 c -0.057,-0.057 -0.114,-0.113 -0.228,-0.226 -0.085,-0.085 -0.227,-0.198 -0.369,-0.311 -0.171,-0.085 -0.37,-0.17 -0.597,-0.255 -0.227,-0.085 -0.511,-0.113 -0.796,-0.113 -0.426,0 -0.795,0.085 -1.136,0.226 -0.313,0.17 -0.597,0.368 -0.853,0.622 -0.227,0.255 -0.398,0.566 -0.54,0.877 -0.114,0.311 -0.17,0.651 -0.17,0.99 0,0.396 0.056,0.764 0.198,1.103 0.143,0.34 0.313,0.651 0.569,0.877 0.227,0.255 0.511,0.453 0.852,0.594 0.341,0.142 0.711,0.198 1.109,0.198 0.341,0 0.682,-0.056 1.023,-0.198 0.341,-0.141 0.597,-0.339 0.824,-0.622 z"
                   style="fill:#000000;fill-opacity:1;fill-rule:nonzero;stroke:none"
                   id="path136" />
                <path
                   d="m 75.054,15.855 c 0,0.255 0.057,0.481 0.142,0.707 0.114,0.226 0.228,0.424 0.398,0.566 0.171,0.17 0.37,0.311 0.597,0.396 0.227,0.113 0.483,0.17 0.739,0.17 0.256,0 0.511,-0.057 0.739,-0.17 0.227,-0.085 0.426,-0.226 0.597,-0.396 0.17,-0.142 0.284,-0.34 0.397,-0.566 0.086,-0.226 0.142,-0.452 0.142,-0.707 0,-0.283 -0.056,-0.509 -0.142,-0.735 -0.113,-0.227 -0.227,-0.425 -0.397,-0.594 -0.171,-0.142 -0.37,-0.283 -0.597,-0.368 -0.228,-0.113 -0.483,-0.142 -0.739,-0.142 -0.256,0 -0.512,0.029 -0.739,0.142 -0.227,0.085 -0.426,0.226 -0.597,0.368 -0.17,0.169 -0.284,0.367 -0.398,0.594 -0.085,0.226 -0.142,0.452 -0.142,0.735 z m 0.711,0 v 0 c 0,-0.198 0.028,-0.368 0.085,-0.509 0.057,-0.142 0.142,-0.283 0.227,-0.368 0.114,-0.113 0.228,-0.198 0.37,-0.254 0.142,-0.057 0.312,-0.114 0.483,-0.114 0.17,0 0.341,0.057 0.483,0.114 0.142,0.056 0.256,0.141 0.369,0.254 0.086,0.085 0.171,0.226 0.228,0.368 0.057,0.141 0.085,0.311 0.085,0.509 0,0.17 -0.028,0.339 -0.085,0.481 -0.057,0.141 -0.142,0.283 -0.228,0.368 -0.113,0.113 -0.227,0.198 -0.369,0.254 -0.142,0.085 -0.313,0.113 -0.483,0.113 -0.171,0 -0.341,-0.028 -0.483,-0.113 -0.142,-0.056 -0.256,-0.141 -0.37,-0.254 -0.085,-0.085 -0.17,-0.227 -0.227,-0.368 -0.057,-0.142 -0.085,-0.311 -0.085,-0.481 z"
                   style="fill:#000000;fill-opacity:1;fill-rule:nonzero;stroke:none"
                   id="path138" />
                <path
                   d="M 83.154,14.101 H 82.5 v 0.481 h -0.028 c -0.114,-0.17 -0.313,-0.311 -0.54,-0.424 -0.199,-0.113 -0.455,-0.142 -0.682,-0.142 -0.256,0 -0.512,0.029 -0.739,0.114 -0.228,0.113 -0.398,0.226 -0.569,0.396 -0.142,0.169 -0.256,0.367 -0.341,0.594 -0.085,0.226 -0.142,0.452 -0.142,0.735 0,0.255 0.057,0.481 0.142,0.707 0.085,0.226 0.199,0.424 0.341,0.594 0.171,0.17 0.341,0.283 0.569,0.396 0.227,0.085 0.483,0.142 0.739,0.142 0.255,0 0.483,-0.057 0.71,-0.17 0.227,-0.113 0.398,-0.255 0.512,-0.424 H 82.5 v 2.574 h 0.654 z m -1.819,0.509 v 0 c 0.17,0 0.341,0.057 0.483,0.114 0.142,0.056 0.256,0.141 0.369,0.254 0.086,0.085 0.171,0.226 0.228,0.368 0.057,0.141 0.085,0.311 0.085,0.509 0,0.17 -0.028,0.339 -0.085,0.481 -0.057,0.141 -0.142,0.283 -0.228,0.368 -0.113,0.113 -0.227,0.198 -0.369,0.254 -0.142,0.085 -0.313,0.113 -0.483,0.113 -0.171,0 -0.341,-0.028 -0.483,-0.113 -0.142,-0.056 -0.256,-0.141 -0.37,-0.254 -0.085,-0.085 -0.17,-0.227 -0.227,-0.368 -0.057,-0.142 -0.085,-0.311 -0.085,-0.481 0,-0.198 0.028,-0.368 0.085,-0.509 0.057,-0.142 0.142,-0.283 0.227,-0.368 0.114,-0.113 0.228,-0.198 0.37,-0.254 0.142,-0.057 0.312,-0.114 0.483,-0.114 z"
                   style="fill:#000000;fill-opacity:1;fill-rule:nonzero;stroke:none"
                   id="path140" />
                <path
                   d="m 84.66,15.6 c 0,-0.141 0.057,-0.282 0.113,-0.424 0.057,-0.113 0.143,-0.226 0.256,-0.311 0.114,-0.085 0.256,-0.17 0.398,-0.226 0.142,-0.029 0.284,-0.057 0.426,-0.057 0.228,0 0.398,0.057 0.54,0.142 0.171,0.084 0.313,0.226 0.427,0.367 l 0.511,-0.367 c -0.369,-0.481 -0.881,-0.708 -1.563,-0.708 -0.284,0 -0.511,0.029 -0.739,0.114 -0.227,0.113 -0.426,0.226 -0.597,0.396 -0.142,0.169 -0.255,0.367 -0.341,0.594 -0.085,0.226 -0.142,0.452 -0.142,0.735 0,0.255 0.057,0.481 0.142,0.707 0.086,0.226 0.228,0.424 0.398,0.594 0.142,0.17 0.341,0.283 0.569,0.396 0.227,0.085 0.454,0.142 0.71,0.142 0.313,0 0.597,-0.057 0.796,-0.17 0.227,-0.113 0.398,-0.255 0.54,-0.424 0.142,-0.17 0.227,-0.368 0.284,-0.594 0.085,-0.227 0.114,-0.453 0.114,-0.679 V 15.6 Z m 2.131,0.538 v 0 c -0.028,0.141 -0.028,0.283 -0.085,0.396 -0.028,0.113 -0.114,0.226 -0.199,0.311 -0.085,0.113 -0.171,0.17 -0.313,0.226 -0.113,0.057 -0.255,0.085 -0.426,0.085 -0.17,0 -0.312,-0.028 -0.455,-0.113 -0.142,-0.057 -0.255,-0.141 -0.341,-0.226 -0.085,-0.085 -0.17,-0.198 -0.227,-0.34 -0.057,-0.113 -0.085,-0.226 -0.085,-0.339 z"
                   style="fill:#000000;fill-opacity:1;fill-rule:nonzero;stroke:none"
                   id="path142" />
                <path
                   d="m 90.685,15.176 c 0.113,-0.17 0.284,-0.311 0.483,-0.424 0.199,-0.085 0.426,-0.142 0.625,-0.142 0.114,0 0.256,0.029 0.369,0.057 0.114,0.057 0.228,0.113 0.341,0.17 0.086,0.085 0.171,0.169 0.228,0.283 0.085,0.113 0.113,0.226 0.113,0.367 0,0.198 -0.056,0.368 -0.199,0.481 -0.113,0.085 -0.284,0.17 -0.483,0.255 -0.17,0.085 -0.398,0.141 -0.625,0.198 -0.227,0.085 -0.426,0.169 -0.625,0.283 -0.171,0.113 -0.341,0.282 -0.455,0.48 -0.142,0.198 -0.199,0.453 -0.199,0.821 0,0.141 0.029,0.311 0.086,0.481 0.085,0.169 0.17,0.311 0.312,0.452 0.142,0.17 0.341,0.283 0.569,0.368 0.227,0.113 0.483,0.141 0.795,0.141 0.313,0 0.569,-0.028 0.824,-0.113 0.285,-0.085 0.512,-0.226 0.711,-0.481 l -0.597,-0.509 c -0.085,0.113 -0.199,0.226 -0.369,0.311 -0.171,0.085 -0.341,0.142 -0.569,0.142 -0.199,0 -0.341,-0.029 -0.483,-0.085 -0.142,-0.057 -0.227,-0.113 -0.312,-0.198 -0.086,-0.085 -0.143,-0.17 -0.171,-0.255 -0.028,-0.113 -0.057,-0.198 -0.057,-0.254 0,-0.227 0.085,-0.396 0.199,-0.538 0.142,-0.113 0.284,-0.198 0.483,-0.283 0.199,-0.056 0.398,-0.141 0.625,-0.198 0.228,-0.056 0.427,-0.141 0.626,-0.226 0.199,-0.113 0.341,-0.254 0.483,-0.452 0.113,-0.17 0.17,-0.425 0.17,-0.736 0,-0.254 -0.028,-0.481 -0.142,-0.679 -0.085,-0.198 -0.227,-0.367 -0.369,-0.509 -0.171,-0.141 -0.37,-0.254 -0.597,-0.311 -0.199,-0.085 -0.455,-0.113 -0.711,-0.113 -0.341,0 -0.653,0.056 -0.937,0.17 -0.313,0.113 -0.54,0.311 -0.739,0.565 z"
                   style="fill:#000000;fill-opacity:1;fill-rule:nonzero;stroke:none"
                   id="path144" />
                <path
                   d="m 96.368,17.015 h -0.966 v -1.584 c 0,-0.113 0,-0.198 0,-0.283 0.029,-0.113 0.029,-0.198 0.057,-0.283 0.057,-0.057 0.085,-0.113 0.17,-0.17 0.057,-0.056 0.143,-0.085 0.285,-0.085 0.085,0 0.17,0.029 0.255,0.029 0.086,0.028 0.143,0.056 0.228,0.085 V 14.13 c -0.085,-0.057 -0.199,-0.085 -0.313,-0.114 -0.142,0 -0.227,0 -0.284,0 -0.284,0 -0.483,0.029 -0.597,0.085 -0.142,0.085 -0.256,0.17 -0.312,0.283 -0.086,0.113 -0.114,0.255 -0.143,0.396 0,0.142 0,0.283 0,0.424 v 1.811 h -0.767 v 0.565 h 0.767 v 0.99 h 0.654 v -0.99 h 0.966 z"
                   style="fill:#000000;fill-opacity:1;fill-rule:nonzero;stroke:none"
                   id="path146" />
                <path
                   d="m 97.249,17.156 c 0.171,0.17 0.398,0.311 0.654,0.396 0.227,0.085 0.483,0.142 0.739,0.142 0.256,0 0.483,-0.057 0.653,-0.114 0.199,-0.056 0.342,-0.141 0.455,-0.254 0.114,-0.113 0.228,-0.226 0.28,-0.368 0.03,-0.141 0.06,-0.283 0.06,-0.452 v -1.782 c 0,-0.114 0.03,-0.227 0.03,-0.34 0,-0.113 0,-0.198 0.03,-0.283 h -0.599 c -0.028,0.17 -0.028,0.34 -0.028,0.509 h -0.029 c -0.142,-0.226 -0.312,-0.367 -0.511,-0.48 -0.199,-0.085 -0.455,-0.114 -0.711,-0.114 -0.17,0 -0.312,0 -0.454,0.057 -0.171,0.028 -0.284,0.113 -0.398,0.198 -0.114,0.085 -0.199,0.198 -0.256,0.339 -0.085,0.114 -0.114,0.283 -0.114,0.453 0,0.226 0.057,0.396 0.171,0.566 0.085,0.141 0.227,0.283 0.398,0.367 0.17,0.085 0.398,0.17 0.625,0.198 0.227,0.057 0.483,0.057 0.739,0.057 h 0.511 v 0.17 c 0,0.085 -0.028,0.169 -0.056,0.254 -0.029,0.085 -0.086,0.17 -0.171,0.255 -0.057,0.056 -0.142,0.113 -0.256,0.17 -0.113,0.028 -0.227,0.056 -0.369,0.056 -0.114,0 -0.227,-0.028 -0.341,-0.056 -0.085,0 -0.171,-0.057 -0.256,-0.085 C 97.96,16.986 97.903,16.93 97.818,16.902 97.761,16.845 97.704,16.788 97.647,16.76 Z m 1.876,-1.386 v 0 c -0.171,0 -0.313,0 -0.483,-0.028 -0.171,0 -0.313,-0.057 -0.455,-0.085 -0.142,-0.057 -0.256,-0.113 -0.341,-0.226 -0.085,-0.085 -0.114,-0.198 -0.114,-0.34 0,-0.198 0.057,-0.339 0.199,-0.424 0.142,-0.085 0.313,-0.141 0.54,-0.141 0.199,0 0.341,0.028 0.483,0.113 0.114,0.056 0.228,0.141 0.313,0.226 0.085,0.113 0.142,0.198 0.171,0.339 0.028,0.114 0.056,0.227 0.056,0.34 v 0.226 z"
                   style="fill:#000000;fill-opacity:1;fill-rule:nonzero;stroke:none"
                   id="path148" />
                <path
                   d="m 101.09,17.58 h 0.65 v -0.537 h 0.03 c 0.08,0.198 0.23,0.339 0.42,0.453 0.2,0.141 0.46,0.198 0.71,0.198 0.18,0 0.35,-0.029 0.52,-0.085 0.14,-0.057 0.28,-0.142 0.39,-0.255 0.12,-0.085 0.2,-0.226 0.29,-0.396 0.06,-0.17 0.08,-0.396 0.08,-0.622 v -2.235 h -0.65 v 2.065 c 0,0.17 -0.03,0.283 -0.09,0.424 -0.02,0.114 -0.08,0.198 -0.17,0.255 -0.05,0.085 -0.14,0.141 -0.25,0.17 -0.09,0.028 -0.2,0.056 -0.29,0.056 -0.14,0 -0.28,-0.028 -0.39,-0.085 -0.12,-0.028 -0.23,-0.113 -0.32,-0.198 -0.08,-0.113 -0.14,-0.226 -0.2,-0.367 -0.05,-0.142 -0.08,-0.311 -0.08,-0.538 v -1.782 h -0.65 z"
                   style="fill:#000000;fill-opacity:1;fill-rule:nonzero;stroke:none"
                   id="path150" />
                <path
                   d="m 108.73,14.101 h -0.68 v 0.481 0 c -0.14,-0.17 -0.31,-0.311 -0.54,-0.424 -0.23,-0.113 -0.46,-0.142 -0.68,-0.142 -0.29,0 -0.52,0.029 -0.74,0.114 -0.23,0.113 -0.43,0.226 -0.57,0.396 -0.17,0.169 -0.28,0.367 -0.37,0.594 -0.09,0.226 -0.11,0.452 -0.11,0.735 0,0.255 0.02,0.481 0.11,0.707 0.09,0.226 0.2,0.424 0.37,0.594 0.14,0.17 0.34,0.283 0.57,0.396 0.22,0.085 0.45,0.142 0.74,0.142 0.25,0 0.48,-0.057 0.71,-0.17 0.22,-0.113 0.39,-0.255 0.51,-0.424 v 0 2.574 h 0.68 z m -1.82,0.509 v 0 c 0.17,0 0.34,0.057 0.48,0.114 0.15,0.056 0.26,0.141 0.35,0.254 0.11,0.085 0.19,0.226 0.22,0.368 0.06,0.141 0.09,0.311 0.09,0.509 0,0.17 -0.03,0.339 -0.09,0.481 -0.03,0.141 -0.11,0.283 -0.22,0.368 -0.09,0.113 -0.2,0.198 -0.35,0.254 -0.14,0.085 -0.31,0.113 -0.48,0.113 -0.2,0 -0.34,-0.028 -0.48,-0.113 -0.14,-0.056 -0.29,-0.141 -0.37,-0.254 -0.11,-0.085 -0.17,-0.227 -0.23,-0.368 -0.06,-0.142 -0.08,-0.311 -0.08,-0.481 0,-0.198 0.02,-0.368 0.08,-0.509 0.06,-0.142 0.12,-0.283 0.23,-0.368 0.08,-0.113 0.23,-0.198 0.37,-0.254 0.14,-0.057 0.28,-0.114 0.48,-0.114 z"
                   style="fill:#000000;fill-opacity:1;fill-rule:nonzero;stroke:none"
                   id="path152" />
                <path
                   d="m 109.75,17.156 c 0.2,0.17 0.4,0.311 0.66,0.396 0.25,0.085 0.48,0.142 0.74,0.142 0.25,0 0.48,-0.057 0.65,-0.114 0.2,-0.056 0.34,-0.141 0.45,-0.254 0.15,-0.113 0.23,-0.226 0.29,-0.368 0.06,-0.141 0.08,-0.283 0.08,-0.452 v -1.782 c 0,-0.114 0,-0.227 0,-0.34 0,-0.113 0,-0.198 0.03,-0.283 h -0.59 c -0.03,0.17 -0.03,0.34 -0.03,0.509 v 0 c -0.17,-0.226 -0.34,-0.367 -0.54,-0.48 -0.2,-0.085 -0.43,-0.114 -0.71,-0.114 -0.17,0 -0.32,0 -0.46,0.057 -0.14,0.028 -0.28,0.113 -0.4,0.198 -0.11,0.085 -0.19,0.198 -0.25,0.339 -0.06,0.114 -0.12,0.283 -0.12,0.453 0,0.226 0.06,0.396 0.18,0.566 0.08,0.141 0.22,0.283 0.39,0.367 0.2,0.085 0.4,0.17 0.63,0.198 0.23,0.057 0.48,0.057 0.77,0.057 H 112 v 0.17 c 0,0.085 -0.03,0.169 -0.06,0.254 -0.03,0.085 -0.08,0.17 -0.17,0.255 -0.06,0.056 -0.14,0.113 -0.25,0.17 -0.09,0.028 -0.23,0.056 -0.37,0.056 -0.12,0 -0.23,-0.028 -0.34,-0.056 -0.09,0 -0.18,-0.057 -0.26,-0.085 -0.09,-0.029 -0.14,-0.085 -0.2,-0.113 -0.08,-0.057 -0.14,-0.114 -0.2,-0.142 z m 1.88,-1.386 v 0 c -0.14,0 -0.31,0 -0.48,-0.028 -0.17,0 -0.32,-0.057 -0.46,-0.085 -0.14,-0.057 -0.23,-0.113 -0.34,-0.226 -0.08,-0.085 -0.11,-0.198 -0.11,-0.34 0,-0.198 0.05,-0.339 0.2,-0.424 0.14,-0.085 0.31,-0.141 0.56,-0.141 0.17,0 0.32,0.028 0.46,0.113 0.14,0.056 0.23,0.141 0.31,0.226 0.09,0.113 0.14,0.198 0.17,0.339 0.03,0.114 0.06,0.227 0.06,0.34 v 0.226 z"
                   style="fill:#000000;fill-opacity:1;fill-rule:nonzero;stroke:none"
                   id="path154" />
                <path
                   d="m 113.59,17.58 h 0.65 v -0.537 h 0.03 c 0.03,0.113 0.12,0.198 0.17,0.255 0.09,0.084 0.17,0.141 0.26,0.198 0.08,0.056 0.2,0.113 0.31,0.141 0.09,0.028 0.2,0.057 0.31,0.057 0.12,0 0.2,-0.029 0.29,-0.057 l -0.03,-0.707 c -0.06,0 -0.09,0.028 -0.14,0.028 -0.06,0 -0.12,0 -0.17,0 -0.34,0 -0.57,-0.085 -0.74,-0.254 -0.2,-0.198 -0.29,-0.481 -0.29,-0.849 v -1.754 h -0.65 z"
                   style="fill:#000000;fill-opacity:1;fill-rule:nonzero;stroke:none"
                   id="path156" />
                <path
                   d="m 57.406,10.452 h 1.847 c 0.341,0 0.626,-0.028 0.824,-0.141 0.228,-0.085 0.398,-0.198 0.512,-0.3395 C 60.731,9.8301 60.816,9.6886 60.873,9.4906 60.902,9.3209 60.93,9.1512 60.93,8.9815 60.93,8.8401 60.902,8.6703 60.873,8.5006 60.816,8.3026 60.731,8.1612 60.589,8.0198 60.475,7.8783 60.305,7.7652 60.077,7.6803 59.879,7.5672 59.594,7.5389 59.253,7.5389 H 58.117 V 5.2195 h -0.711 z m 0.711,-2.2908 v 0 h 0.937 c 0.142,0 0.285,0 0.398,0.0283 0.142,0.0283 0.256,0.0566 0.37,0.1131 0.113,0.0566 0.199,0.1415 0.255,0.2546 0.057,0.1131 0.114,0.2546 0.114,0.4243 0,0.198 -0.057,0.3394 -0.114,0.4526 -0.056,0.1131 -0.142,0.198 -0.255,0.2545 -0.114,0.0566 -0.228,0.0849 -0.37,0.1132 -0.113,0.0283 -0.256,0.0283 -0.398,0.0283 h -0.937 z"
                   style="fill:#000000;fill-opacity:1;fill-rule:nonzero;stroke:none"
                   id="path158" />
                <path
                   d="m 62.152,6.7469 c 0,-0.1697 0.028,-0.3111 0.085,-0.4243 0.057,-0.1414 0.142,-0.2263 0.256,-0.3394 0.114,-0.0849 0.256,-0.1414 0.398,-0.198 0.142,-0.0566 0.284,-0.0566 0.426,-0.0566 0.228,0 0.398,0.0283 0.54,0.1414 0.171,0.0849 0.313,0.2263 0.426,0.3678 L 64.795,5.87 C 64.426,5.3892 63.914,5.1346 63.232,5.1346 c -0.284,0 -0.512,0.0566 -0.739,0.1414 -0.227,0.0849 -0.426,0.2263 -0.568,0.396 -0.171,0.1698 -0.284,0.3678 -0.37,0.5941 -0.085,0.198 -0.142,0.4525 -0.142,0.7071 0,0.2546 0.057,0.5091 0.142,0.7354 0.086,0.2263 0.228,0.4243 0.398,0.594 0.142,0.1415 0.341,0.2829 0.568,0.3677 0.228,0.1132 0.455,0.1415 0.711,0.1415 0.313,0 0.597,-0.0566 0.796,-0.1697 0.227,-0.0849 0.398,-0.2263 0.54,-0.4243 0.142,-0.1697 0.227,-0.3677 0.284,-0.5657 0.085,-0.2263 0.114,-0.4526 0.114,-0.6789 V 6.7469 Z m 2.103,0.5092 v 0 C 64.227,7.4258 64.227,7.5389 64.17,7.6803 64.141,7.7935 64.056,7.9066 63.999,7.9915 63.914,8.0763 63.8,8.1612 63.658,8.2178 63.545,8.2743 63.402,8.2743 63.232,8.2743 63.061,8.2743 62.919,8.2461 62.777,8.1895 62.635,8.1329 62.521,8.0481 62.436,7.9632 62.351,7.8501 62.266,7.7369 62.209,7.6238 62.152,7.5106 62.152,7.3975 62.152,7.2561 Z"
                   style="fill:#000000;fill-opacity:1;fill-rule:nonzero;stroke:none"
                   id="path160" />
                <path
                   d="m 65.761,8.7269 h 0.625 v -0.5374 0 c 0.029,0.0566 0.057,0.1131 0.114,0.1697 0.085,0.0849 0.142,0.1414 0.256,0.2263 0.085,0.0566 0.199,0.1131 0.341,0.1697 0.114,0.0283 0.256,0.0566 0.426,0.0566 0.256,0 0.483,-0.0566 0.654,-0.1697 0.199,-0.0849 0.341,-0.2546 0.455,-0.4809 0.113,0.2263 0.255,0.396 0.483,0.4809 0.199,0.1131 0.398,0.1697 0.625,0.1697 0.256,0 0.483,-0.0283 0.654,-0.1132 0.17,-0.1131 0.312,-0.2263 0.426,-0.3677 0.085,-0.1414 0.17,-0.3111 0.199,-0.4808 0.028,-0.198 0.057,-0.396 0.057,-0.594 V 5.2195 h -0.682 v 1.9517 c 0,0.1414 0,0.2829 -0.029,0.396 0,0.1131 -0.028,0.2263 -0.085,0.3111 -0.057,0.1132 -0.142,0.1698 -0.228,0.2263 -0.113,0.0566 -0.255,0.0849 -0.397,0.0849 -0.341,0 -0.569,-0.0849 -0.711,-0.2829 C 68.83,7.7086 68.745,7.4541 68.745,7.1429 V 5.2195 h -0.653 v 1.8386 c 0,0.1697 -0.029,0.3111 -0.029,0.4525 -0.028,0.1415 -0.057,0.2546 -0.114,0.3677 -0.056,0.1132 -0.113,0.1698 -0.227,0.2263 -0.085,0.0566 -0.227,0.0849 -0.369,0.0849 -0.142,0 -0.256,-0.0283 -0.37,-0.0566 C 66.87,8.0763 66.784,8.0198 66.699,7.9066 66.614,7.8218 66.557,7.7086 66.5,7.5672 66.443,7.4258 66.415,7.2561 66.415,7.0581 V 5.2195 h -0.654 z"
                   style="fill:#000000;fill-opacity:1;fill-rule:nonzero;stroke:none"
                   id="path162" />
                <path
                   d="m 72.07,10.82 h 0.682 v -2.6022 0 c 0.142,0.198 0.313,0.3394 0.512,0.4525 0.227,0.0849 0.483,0.1415 0.71,0.1415 0.284,0 0.54,-0.0283 0.739,-0.1415 0.228,-0.0848 0.426,-0.2262 0.569,-0.3677 0.17,-0.1697 0.284,-0.3677 0.369,-0.594 0.085,-0.2263 0.114,-0.4808 0.114,-0.7354 0,-0.2546 -0.029,-0.5091 -0.114,-0.7071 C 75.566,6.0398 75.452,5.8418 75.282,5.672 75.139,5.5023 74.941,5.3609 74.713,5.276 74.514,5.1912 74.258,5.1346 73.974,5.1346 c -0.227,0 -0.454,0.0566 -0.682,0.1697 -0.227,0.0849 -0.398,0.2263 -0.54,0.4243 v 0 -0.5091 H 72.07 Z m 1.847,-5.0631 v 0 c 0.171,0 0.341,0.0283 0.484,0.0849 0.142,0.0848 0.255,0.1697 0.341,0.2545 0.113,0.1132 0.199,0.2546 0.227,0.396 0.057,0.1415 0.085,0.3112 0.085,0.4809 0,0.1697 -0.028,0.3394 -0.085,0.5091 -0.028,0.1415 -0.114,0.2546 -0.227,0.3678 -0.086,0.1131 -0.199,0.198 -0.341,0.2545 -0.143,0.0566 -0.313,0.0849 -0.484,0.0849 -0.198,0 -0.341,-0.0283 -0.483,-0.0849 C 73.292,8.0481 73.15,7.9632 73.065,7.8501 72.951,7.7369 72.894,7.6238 72.838,7.4823 72.781,7.3126 72.752,7.1429 72.752,6.9732 c 0,-0.1697 0.029,-0.3394 0.086,-0.4809 0.056,-0.1414 0.113,-0.2828 0.227,-0.396 0.085,-0.0848 0.227,-0.1697 0.369,-0.2545 0.142,-0.0566 0.285,-0.0849 0.483,-0.0849 z"
                   style="fill:#000000;fill-opacity:1;fill-rule:nonzero;stroke:none"
                   id="path164" />
                <path
                   d="m 76.617,8.3026 c 0.199,0.1697 0.427,0.3112 0.654,0.396 0.256,0.0849 0.511,0.1132 0.767,0.1132 0.256,0 0.455,-0.0283 0.654,-0.0849 0.17,-0.0566 0.341,-0.1414 0.455,-0.2546 0.113,-0.1131 0.198,-0.2545 0.255,-0.3677 0.057,-0.1414 0.086,-0.3111 0.086,-0.4525 V 5.87 c 0,-0.1414 0,-0.2545 0,-0.3394 0.028,-0.1131 0.028,-0.198 0.028,-0.3111 h -0.597 c 0,0.198 0,0.3677 0,0.5374 H 78.891 C 78.749,5.5306 78.578,5.3609 78.379,5.276 78.152,5.1912 77.925,5.1346 77.669,5.1346 c -0.171,0 -0.341,0.0283 -0.483,0.0849 -0.142,0.0283 -0.285,0.0848 -0.37,0.198 -0.113,0.0848 -0.199,0.198 -0.284,0.3111 -0.057,0.1414 -0.085,0.2829 -0.085,0.4526 0,0.2263 0.057,0.4243 0.142,0.5657 0.114,0.1697 0.256,0.2829 0.426,0.396 0.171,0.0849 0.37,0.1414 0.625,0.198 0.228,0.0283 0.483,0.0566 0.739,0.0566 h 0.483 v 0.1414 c 0,0.0849 0,0.198 -0.057,0.2829 -0.028,0.0848 -0.085,0.1697 -0.142,0.2263 -0.056,0.0848 -0.17,0.1414 -0.255,0.1697 -0.114,0.0565 -0.228,0.0565 -0.37,0.0565 -0.142,0 -0.256,0 -0.341,-0.0282 C 77.583,8.2178 77.498,8.1895 77.441,8.1612 77.356,8.1329 77.271,8.0763 77.214,8.0198 77.157,7.9915 77.1,7.9349 77.015,7.8783 Z m 1.904,-1.386 v 0 c -0.17,0 -0.341,0 -0.483,-0.0283 C 77.868,6.8601 77.726,6.8318 77.583,6.7752 77.441,6.7469 77.328,6.6621 77.242,6.5772 77.157,6.4923 77.1,6.3792 77.1,6.2378 c 0,-0.198 0.086,-0.3395 0.228,-0.4243 0.113,-0.0849 0.312,-0.1415 0.54,-0.1415 0.17,0 0.341,0.0283 0.454,0.0849 0.142,0.0566 0.256,0.1414 0.313,0.2546 0.085,0.0848 0.142,0.198 0.17,0.3111 0.057,0.1415 0.057,0.2546 0.057,0.3677 v 0.2263 z"
                   style="fill:#000000;fill-opacity:1;fill-rule:nonzero;stroke:none"
                   id="path166" />
                <path
                   d="m 80.056,8.7269 h 0.767 l 1.052,-2.7437 v 0 l 0.994,2.7437 H 83.58 L 81.932,4.484 C 81.875,4.3143 81.789,4.1729 81.733,4.0598 81.676,3.9466 81.591,3.8335 81.505,3.7486 81.42,3.6355 81.306,3.5789 81.193,3.5223 81.051,3.494 80.908,3.4658 80.71,3.4658 c -0.086,0 -0.199,0 -0.285,0 -0.113,0.0282 -0.199,0.0565 -0.284,0.0848 l 0.085,0.594 C 80.34,4.1163 80.482,4.088 80.624,4.088 c 0.086,0 0.171,0 0.256,0.0283 0.057,0.0283 0.114,0.0566 0.171,0.1132 0.056,0.0565 0.113,0.1131 0.142,0.198 0.028,0.0565 0.057,0.1414 0.085,0.2263 l 0.227,0.5657 z"
                   style="fill:#000000;fill-opacity:1;fill-rule:nonzero;stroke:none"
                   id="path168" />
                <path
                   d="m 84.177,8.3026 c 0.199,0.1697 0.426,0.3112 0.653,0.396 0.256,0.0849 0.512,0.1132 0.768,0.1132 0.255,0 0.454,-0.0283 0.653,-0.0849 0.171,-0.0566 0.341,-0.1414 0.455,-0.2546 0.114,-0.1131 0.199,-0.2545 0.256,-0.3677 0.057,-0.1414 0.085,-0.3111 0.085,-0.4525 V 5.87 c 0,-0.1414 0,-0.2545 0.028,-0.3394 0,-0.1131 0,-0.198 0,-0.3111 h -0.596 c 0,0.198 0,0.3677 0,0.5374 H 86.45 C 86.308,5.5306 86.138,5.3609 85.939,5.276 85.711,5.1912 85.484,5.1346 85.228,5.1346 c -0.17,0 -0.341,0.0283 -0.483,0.0849 -0.142,0.0283 -0.256,0.0848 -0.369,0.198 -0.114,0.0848 -0.199,0.198 -0.285,0.3111 -0.056,0.1414 -0.085,0.2829 -0.085,0.4526 0,0.2263 0.057,0.4243 0.142,0.5657 0.114,0.1697 0.256,0.2829 0.427,0.396 0.17,0.0849 0.369,0.1414 0.625,0.198 0.227,0.0283 0.483,0.0566 0.739,0.0566 h 0.483 v 0.1414 c 0,0.0849 0,0.198 -0.057,0.2829 -0.029,0.0848 -0.085,0.1697 -0.142,0.2263 -0.057,0.0848 -0.171,0.1414 -0.256,0.1697 -0.114,0.0565 -0.227,0.0565 -0.369,0.0565 -0.142,0 -0.256,0 -0.341,-0.0282 C 85.171,8.2178 85.058,8.1895 85.001,8.1612 84.916,8.1329 84.83,8.0763 84.773,8.0198 84.717,7.9915 84.66,7.9349 84.603,7.8783 Z m 1.904,-1.386 v 0 c -0.171,0 -0.341,0 -0.483,-0.0283 C 85.427,6.8601 85.285,6.8318 85.143,6.7752 85.001,6.7469 84.887,6.6621 84.802,6.5772 84.717,6.4923 84.66,6.3792 84.66,6.2378 c 0,-0.198 0.085,-0.3395 0.227,-0.4243 0.114,-0.0849 0.313,-0.1415 0.54,-0.1415 0.199,0 0.341,0.0283 0.483,0.0849 0.114,0.0566 0.228,0.1414 0.284,0.2546 0.086,0.0848 0.142,0.198 0.171,0.3111 0.057,0.1415 0.057,0.2546 0.057,0.3677 v 0.2263 z"
                   style="fill:#000000;fill-opacity:1;fill-rule:nonzero;stroke:none"
                   id="path170" />
                <path
                   d="m 88.013,8.7269 h 0.682 v -0.5374 0 c 0.057,0.0848 0.114,0.1697 0.199,0.2546 0.057,0.0848 0.142,0.1414 0.228,0.198 0.113,0.0565 0.198,0.0848 0.312,0.1414 0.114,0.0283 0.227,0.0283 0.341,0.0283 0.085,0 0.199,0 0.284,-0.0283 L 90.031,8.0481 c -0.057,0.0282 -0.114,0.0282 -0.171,0.0565 -0.056,0 -0.113,0 -0.17,0 -0.313,0 -0.568,-0.0848 -0.739,-0.2545 -0.17,-0.198 -0.256,-0.4809 -0.256,-0.8769 V 5.2195 h -0.682 z"
                   style="fill:#000000;fill-opacity:1;fill-rule:nonzero;stroke:none"
                   id="path172" />
                <path
                   d="m 90.798,8.3026 c 0.171,0.1697 0.398,0.3112 0.654,0.396 0.227,0.0849 0.483,0.1132 0.739,0.1132 0.256,0 0.454,-0.0283 0.653,-0.0849 C 93.043,8.6703 93.185,8.5855 93.299,8.4723 93.413,8.3592 93.498,8.2178 93.555,8.1046 93.612,7.9632 93.64,7.7935 93.64,7.6521 V 5.87 c 0,-0.1414 0,-0.2545 0.029,-0.3394 0,-0.1131 0,-0.198 0,-0.3111 H 93.1 c -0.028,0.198 -0.028,0.3677 -0.028,0.5374 H 93.043 C 92.901,5.5306 92.731,5.3609 92.532,5.276 92.333,5.1912 92.077,5.1346 91.821,5.1346 c -0.17,0 -0.312,0.0283 -0.483,0.0849 -0.142,0.0283 -0.256,0.0848 -0.369,0.198 -0.114,0.0848 -0.199,0.198 -0.284,0.3111 -0.057,0.1414 -0.086,0.2829 -0.086,0.4526 0,0.2263 0.057,0.4243 0.142,0.5657 0.114,0.1697 0.256,0.2829 0.427,0.396 0.17,0.0849 0.369,0.1414 0.625,0.198 0.227,0.0283 0.483,0.0566 0.739,0.0566 h 0.483 v 0.1414 c 0,0.0849 0,0.198 -0.028,0.2829 -0.057,0.0848 -0.086,0.1697 -0.171,0.2263 -0.057,0.0848 -0.142,0.1414 -0.256,0.1697 -0.113,0.0565 -0.227,0.0565 -0.369,0.0565 -0.142,0 -0.256,0 -0.341,-0.0282 C 91.764,8.2178 91.679,8.1895 91.594,8.1612 91.509,8.1329 91.423,8.0763 91.367,8.0198 91.31,7.9915 91.253,7.9349 91.196,7.8783 Z m 1.876,-1.386 v 0 c -0.171,0 -0.313,0 -0.483,-0.0283 C 92.02,6.8601 91.878,6.8318 91.736,6.7752 91.594,6.7469 91.48,6.6621 91.395,6.5772 91.31,6.4923 91.281,6.3792 91.281,6.2378 c 0,-0.198 0.057,-0.3395 0.199,-0.4243 0.142,-0.0849 0.313,-0.1415 0.54,-0.1415 0.199,0 0.341,0.0283 0.483,0.0849 0.114,0.0566 0.228,0.1414 0.313,0.2546 0.057,0.0848 0.114,0.198 0.171,0.3111 0.028,0.1415 0.028,0.2546 0.028,0.3677 v 0.2263 z"
                   style="fill:#000000;fill-opacity:1;fill-rule:nonzero;stroke:none"
                   id="path174" />
                <path
                   d="m 94.635,8.7269 h 0.653 V 8.1895 h 0.029 c 0.085,0.198 0.227,0.3394 0.426,0.4526 0.199,0.1131 0.455,0.1697 0.711,0.1697 0.17,0 0.341,-0.0283 0.483,-0.0566 0.17,-0.0566 0.312,-0.1414 0.426,-0.2546 0.114,-0.1131 0.199,-0.2545 0.284,-0.4243 0.057,-0.1697 0.085,-0.3677 0.085,-0.594 V 5.2195 h -0.653 v 2.0648 c 0,0.1698 -0.029,0.3112 -0.085,0.4243 -0.029,0.1132 -0.086,0.2263 -0.171,0.2829 -0.085,0.0848 -0.17,0.1131 -0.256,0.1697 -0.085,0.0283 -0.199,0.0283 -0.284,0.0283 -0.142,0 -0.284,0 -0.398,-0.0566 C 95.772,8.0763 95.658,8.0198 95.573,7.9349 95.487,7.8218 95.402,7.7086 95.374,7.5672 95.317,7.3975 95.288,7.2278 95.288,7.0298 V 5.2195 h -0.653 z"
                   style="fill:#000000;fill-opacity:1;fill-rule:nonzero;stroke:none"
                   id="path176" />
                <path
                   d="m 100.97,10.452 h 0.94 l 2.9,-4.2991 h 0.03 v 4.2991 h 0.71 V 5.2195 h -0.91 l -2.93,4.2994 h -0.03 V 5.2195 h -0.71 z"
                   style="fill:#000000;fill-opacity:1;fill-rule:nonzero;stroke:none"
                   id="path178" />
                <path
                   d="m 106.74,8.3026 c 0.17,0.1697 0.4,0.3112 0.65,0.396 0.23,0.0849 0.49,0.1132 0.74,0.1132 0.26,0 0.49,-0.0283 0.66,-0.0849 0.2,-0.0566 0.34,-0.1414 0.45,-0.2546 0.12,-0.1131 0.2,-0.2545 0.26,-0.3677 0.05,-0.1414 0.08,-0.3111 0.08,-0.4525 V 5.87 c 0,-0.1414 0,-0.2545 0.03,-0.3394 0,-0.1131 0,-0.198 0,-0.3111 h -0.57 c -0.03,0.198 -0.03,0.3677 -0.03,0.5374 h -0.02 c -0.15,-0.2263 -0.32,-0.396 -0.52,-0.4809 -0.19,-0.0848 -0.45,-0.1414 -0.71,-0.1414 -0.17,0 -0.31,0.0283 -0.48,0.0849 -0.14,0.0283 -0.25,0.0848 -0.37,0.198 -0.11,0.0848 -0.2,0.198 -0.25,0.3111 -0.09,0.1414 -0.12,0.2829 -0.12,0.4526 0,0.2263 0.06,0.4243 0.14,0.5657 0.12,0.1697 0.26,0.2829 0.43,0.396 0.17,0.0849 0.37,0.1414 0.63,0.198 0.22,0.0283 0.48,0.0566 0.73,0.0566 h 0.49 v 0.1414 c 0,0.0849 0,0.198 -0.03,0.2829 -0.06,0.0848 -0.09,0.1697 -0.17,0.2263 -0.06,0.0848 -0.14,0.1414 -0.26,0.1697 -0.11,0.0565 -0.22,0.0565 -0.37,0.0565 -0.14,0 -0.22,0 -0.34,-0.0282 -0.08,-0.0283 -0.17,-0.0566 -0.25,-0.0849 -0.09,-0.0283 -0.15,-0.0849 -0.23,-0.1414 -0.06,-0.0283 -0.11,-0.0849 -0.17,-0.1415 z m 1.88,-1.386 v 0 c -0.17,0 -0.32,0 -0.49,-0.0283 -0.17,-0.0282 -0.31,-0.0565 -0.45,-0.1131 -0.14,-0.0283 -0.26,-0.1131 -0.34,-0.198 -0.09,-0.0849 -0.12,-0.198 -0.12,-0.3394 0,-0.198 0.06,-0.3395 0.2,-0.4243 0.15,-0.0849 0.32,-0.1415 0.54,-0.1415 0.2,0 0.34,0.0283 0.49,0.0849 0.11,0.0566 0.22,0.1414 0.31,0.2546 0.06,0.0848 0.11,0.198 0.17,0.3111 0.03,0.1415 0.03,0.2546 0.03,0.3677 v 0.2263 z"
                   style="fill:#000000;fill-opacity:1;fill-rule:nonzero;stroke:none"
                   id="path180" />
                <path
                   d="m 112.43,7.8501 c -0.06,0.1131 -0.18,0.1697 -0.29,0.2545 -0.11,0.0566 -0.25,0.0849 -0.43,0.0849 -0.14,0 -0.28,-0.0283 -0.39,-0.0849 -0.12,-0.0848 -0.2,-0.1697 -0.2,-0.3111 0,-0.0849 0.05,-0.1697 0.11,-0.2263 0.06,-0.0849 0.14,-0.1131 0.23,-0.1697 0.11,-0.0283 0.2,-0.0566 0.31,-0.0849 0.09,-0.0283 0.17,-0.0283 0.26,-0.0565 0.14,-0.0283 0.28,-0.0849 0.4,-0.1132 0.14,-0.0566 0.25,-0.1131 0.34,-0.198 0.08,-0.0848 0.17,-0.1697 0.19,-0.2828 0.06,-0.1132 0.09,-0.2546 0.09,-0.4243 0,-0.198 -0.03,-0.3678 -0.11,-0.5092 -0.09,-0.1414 -0.2,-0.2546 -0.34,-0.3394 -0.12,-0.0849 -0.29,-0.1414 -0.46,-0.198 -0.17,-0.0283 -0.34,-0.0566 -0.51,-0.0566 -0.28,0 -0.54,0.0566 -0.77,0.1414 -0.23,0.0849 -0.42,0.2546 -0.59,0.4809 l 0.51,0.4243 c 0.11,-0.1132 0.22,-0.198 0.37,-0.2829 0.11,-0.0848 0.28,-0.1414 0.48,-0.1414 0.08,0 0.17,0 0.26,0.0283 0.08,0.0283 0.17,0.0566 0.22,0.0848 0.06,0.0283 0.12,0.0849 0.17,0.1415 0.03,0.0565 0.06,0.1131 0.06,0.198 0,0.0848 -0.03,0.1697 -0.09,0.2263 -0.05,0.0848 -0.14,0.1131 -0.22,0.1697 -0.09,0.0283 -0.17,0.0566 -0.29,0.0848 -0.08,0.0283 -0.17,0.0283 -0.25,0.0566 -0.14,0.0283 -0.29,0.0566 -0.4,0.1132 -0.14,0.0565 -0.26,0.1131 -0.34,0.1697 -0.12,0.0848 -0.17,0.1697 -0.23,0.2828 -0.08,0.1132 -0.11,0.2546 -0.11,0.4243 0,0.198 0.05,0.3394 0.11,0.4809 0.09,0.1414 0.2,0.2545 0.31,0.3394 0.15,0.0849 0.29,0.1414 0.43,0.198 0.17,0.0283 0.34,0.0566 0.48,0.0566 0.26,0 0.49,-0.0283 0.69,-0.1132 0.22,-0.1131 0.39,-0.2545 0.53,-0.4525 z"
                   style="fill:#000000;fill-opacity:1;fill-rule:nonzero;stroke:none"
                   id="path182" />
                <path
                   d="m 113.76,9.9715 c 0,0.1415 0.06,0.2545 0.14,0.3675 0.09,0.085 0.2,0.142 0.34,0.142 0.15,0 0.26,-0.057 0.34,-0.142 0.12,-0.113 0.15,-0.226 0.15,-0.3675 0,-0.1131 -0.03,-0.2263 -0.15,-0.3394 -0.08,-0.0849 -0.19,-0.1415 -0.34,-0.1415 -0.14,0 -0.25,0.0566 -0.34,0.1415 -0.08,0.1131 -0.14,0.2263 -0.14,0.3394 z m 0.14,-1.2446 v 0 h 0.68 V 5.2195 h -0.68 z"
                   style="fill:#000000;fill-opacity:1;fill-rule:nonzero;stroke:none"
                   id="path184" />
                <path
                   d="m 115.47,6.9732 c 0,0.2546 0.05,0.5091 0.14,0.7354 0.11,0.198 0.23,0.396 0.4,0.5657 0.17,0.1698 0.37,0.3112 0.59,0.396 0.23,0.1132 0.49,0.1415 0.74,0.1415 0.26,0 0.51,-0.0283 0.74,-0.1415 0.23,-0.0848 0.43,-0.2262 0.6,-0.396 0.17,-0.1697 0.28,-0.3677 0.4,-0.5657 0.08,-0.2263 0.14,-0.4808 0.14,-0.7354 0,-0.2546 -0.06,-0.4809 -0.14,-0.7071 -0.12,-0.2263 -0.23,-0.4243 -0.4,-0.5941 -0.17,-0.1697 -0.37,-0.2828 -0.6,-0.396 -0.23,-0.0848 -0.48,-0.1414 -0.74,-0.1414 -0.25,0 -0.51,0.0566 -0.74,0.1414 -0.22,0.1132 -0.42,0.2263 -0.59,0.396 -0.17,0.1698 -0.29,0.3678 -0.4,0.5941 -0.09,0.2262 -0.14,0.4525 -0.14,0.7071 z m 0.71,0 v 0 c 0,-0.1697 0.02,-0.3394 0.08,-0.4809 0.06,-0.1414 0.14,-0.2828 0.23,-0.396 0.11,-0.0848 0.23,-0.1697 0.37,-0.2545 0.14,-0.0566 0.31,-0.0849 0.48,-0.0849 0.17,0 0.34,0.0283 0.48,0.0849 0.15,0.0848 0.26,0.1697 0.37,0.2545 0.09,0.1132 0.17,0.2546 0.23,0.396 0.06,0.1415 0.09,0.3112 0.09,0.4809 0,0.1697 -0.03,0.3394 -0.09,0.5091 -0.06,0.1415 -0.14,0.2546 -0.23,0.3678 -0.11,0.1131 -0.22,0.198 -0.37,0.2545 -0.14,0.0566 -0.31,0.0849 -0.48,0.0849 -0.17,0 -0.34,-0.0283 -0.48,-0.0849 C 116.72,8.0481 116.6,7.9632 116.49,7.8501 116.4,7.7369 116.32,7.6238 116.26,7.4823 116.2,7.3126 116.18,7.1429 116.18,6.9732 Z"
                   style="fill:#000000;fill-opacity:1;fill-rule:nonzero;stroke:none"
                   id="path186" />
                <path
                   d="m 120.04,8.7269 h 0.68 v -0.5374 0 c 0.09,0.198 0.23,0.3394 0.46,0.4526 0.2,0.1131 0.42,0.1697 0.71,0.1697 0.17,0 0.34,-0.0283 0.48,-0.0566 0.17,-0.0566 0.29,-0.1414 0.43,-0.2546 0.11,-0.1131 0.2,-0.2545 0.25,-0.4243 0.09,-0.1697 0.12,-0.3677 0.12,-0.594 V 5.2195 h -0.68 v 2.0648 c 0,0.1698 0,0.3112 -0.06,0.4243 -0.03,0.1132 -0.12,0.2263 -0.17,0.2829 -0.09,0.0848 -0.17,0.1131 -0.26,0.1697 -0.11,0.0283 -0.2,0.0283 -0.31,0.0283 -0.14,0 -0.26,0 -0.37,-0.0566 -0.11,-0.0566 -0.23,-0.1131 -0.31,-0.198 -0.09,-0.1131 -0.17,-0.2263 -0.23,-0.3677 -0.03,-0.1697 -0.06,-0.3394 -0.06,-0.5374 V 5.2195 h -0.68 z"
                   style="fill:#000000;fill-opacity:1;fill-rule:nonzero;stroke:none"
                   id="path188" />
                <path
                   d="m 124.19,8.3026 c 0.2,0.1697 0.4,0.3112 0.65,0.396 0.26,0.0849 0.49,0.1132 0.74,0.1132 0.26,0 0.49,-0.0283 0.66,-0.0849 0.2,-0.0566 0.34,-0.1414 0.48,-0.2546 0.11,-0.1131 0.2,-0.2545 0.26,-0.3677 0.05,-0.1414 0.08,-0.3111 0.08,-0.4525 V 5.87 c 0,-0.1414 0,-0.2545 0,-0.3394 0,-0.1131 0,-0.198 0.03,-0.3111 h -0.6 c -0.03,0.198 -0.03,0.3677 -0.03,0.5374 v 0 c -0.17,-0.2263 -0.34,-0.396 -0.54,-0.4809 -0.19,-0.0848 -0.42,-0.1414 -0.71,-0.1414 -0.14,0 -0.31,0.0283 -0.45,0.0849 -0.14,0.0283 -0.29,0.0848 -0.4,0.198 -0.11,0.0848 -0.2,0.198 -0.25,0.3111 -0.06,0.1414 -0.12,0.2829 -0.12,0.4526 0,0.2263 0.06,0.4243 0.17,0.5657 0.09,0.1697 0.23,0.2829 0.4,0.396 0.2,0.0849 0.4,0.1414 0.63,0.198 0.22,0.0283 0.48,0.0566 0.76,0.0566 h 0.49 v 0.1414 c 0,0.0849 -0.03,0.198 -0.06,0.2829 -0.03,0.0848 -0.09,0.1697 -0.14,0.2263 -0.09,0.0848 -0.17,0.1414 -0.29,0.1697 -0.08,0.0565 -0.22,0.0565 -0.37,0.0565 -0.11,0 -0.22,0 -0.34,-0.0282 -0.08,-0.0283 -0.17,-0.0566 -0.25,-0.0849 -0.09,-0.0283 -0.15,-0.0849 -0.2,-0.1414 -0.09,-0.0283 -0.14,-0.0849 -0.2,-0.1415 z m 1.88,-1.386 v 0 c -0.15,0 -0.32,0 -0.49,-0.0283 -0.17,-0.0282 -0.31,-0.0565 -0.45,-0.1131 -0.14,-0.0283 -0.23,-0.1131 -0.31,-0.198 -0.12,-0.0849 -0.15,-0.198 -0.15,-0.3394 0,-0.198 0.06,-0.3395 0.2,-0.4243 0.14,-0.0849 0.32,-0.1415 0.57,-0.1415 0.17,0 0.34,0.0283 0.46,0.0849 0.14,0.0566 0.22,0.1414 0.31,0.2546 0.08,0.0848 0.14,0.198 0.17,0.3111 0.03,0.1415 0.06,0.2546 0.06,0.3677 v 0.2263 z"
                   style="fill:#000000;fill-opacity:1;fill-rule:nonzero;stroke:none"
                   id="path190" />
                <path
                   d="m 128.08,5.2195 h 0.65363 v 5.6006 H 128.08 Z"
                   style="fill:#000000;fill-opacity:1;fill-rule:nonzero;stroke:none"
                   id="path192" />
              </g>
            </g>
          </g>
        </g>
      </g>
    </g>
  </g>
</svg>
